<svg width="710" height="379" viewBox="0 0 710 379" fill="none" xmlns="http://www.w3.org/2000/svg">
<path d="M424.25 18.2329L444.093 66.4889" stroke="white" stroke-width="3.2" stroke-linecap="round" stroke-linejoin="round"/>
<path d="M370.633 89.7661L407.232 97.4182" stroke="white" stroke-width="3.2" stroke-linecap="round" stroke-linejoin="round"/>
<path d="M710 317.517C710 331.041 699.041 342 685.517 342C671.959 342 661 331.041 661 317.517C661 303.959 671.959 293 685.517 293C699.041 293 710 303.959 710 317.517Z" fill="#E1F5F7"/>
<path d="M223.958 54.9638C221.786 54.9638 220 53.1779 220 50.9576C220 48.7856 221.786 46.9998 223.958 46.9998C226.178 46.9998 227.964 48.7856 227.964 50.9576C227.964 53.1779 226.178 54.9638 223.958 54.9638Z" fill="white"/>
<path d="M223.958 76.2497C221.786 76.2497 220 74.4638 220 72.2435C220 70.0715 221.786 68.2856 223.958 68.2856C226.178 68.2856 227.964 70.0715 227.964 72.2435C227.964 74.4638 226.178 76.2497 223.958 76.2497Z" fill="white"/>
<path d="M223.958 99.6108C221.786 99.6108 220 97.8249 220 95.6529C220 93.4326 221.786 91.6467 223.958 91.6467C226.178 91.6467 227.964 93.4326 227.964 95.6529C227.964 97.8249 226.178 99.6108 223.958 99.6108Z" fill="white"/>
<g filter="url(#filter0_d_258_104)">
<path d="M176.958 187.964C174.738 187.964 173 186.178 173 184.006C173 181.786 174.738 180 176.958 180C179.13 180 180.916 181.786 180.916 184.006C180.916 186.178 179.13 187.964 176.958 187.964Z" fill="white"/>
<path d="M176.958 209.249C174.738 209.249 173 207.464 173 205.292C173 203.071 174.738 201.285 176.958 201.285C179.13 201.285 180.916 203.071 180.916 205.292C180.916 207.464 179.13 209.249 176.958 209.249Z" fill="white"/>
<path d="M176.958 232.611C174.738 232.611 173 230.825 173 228.653C173 226.432 174.738 224.695 176.958 224.695C179.13 224.695 180.916 226.432 180.916 228.653C180.916 230.825 179.13 232.611 176.958 232.611Z" fill="white"/>
</g>
<path d="M675.647 360.006C675.647 357.786 677.433 356 679.605 356C681.825 356 683.563 357.786 683.563 360.006C683.563 362.178 681.825 363.964 679.605 363.964C677.433 363.964 675.647 362.178 675.647 360.006Z" fill="white"/>
<path d="M654.361 360.006C654.361 357.786 656.147 356 658.319 356C660.539 356 662.277 357.786 662.277 360.006C662.277 362.178 660.539 363.964 658.319 363.964C656.147 363.964 654.361 362.178 654.361 360.006Z" fill="white"/>
<path d="M631 360.006C631 357.786 632.786 356 634.958 356C637.13 356 638.916 357.786 638.916 360.006C638.916 362.178 637.13 363.964 634.958 363.964C632.786 363.964 631 362.178 631 360.006Z" fill="white"/>
<path d="M511.647 194.006C511.647 191.786 513.433 190 515.605 190C517.825 190 519.563 191.786 519.563 194.006C519.563 196.178 517.825 197.964 515.605 197.964C513.433 197.964 511.647 196.178 511.647 194.006Z" fill="white"/>
<path d="M490.361 194.006C490.361 191.786 492.147 190 494.319 190C496.539 190 498.277 191.786 498.277 194.006C498.277 196.178 496.539 197.964 494.319 197.964C492.147 197.964 490.361 196.178 490.361 194.006Z" fill="white"/>
<path d="M467 194.006C467 191.786 468.786 190 470.958 190C473.13 190 474.916 191.786 474.916 194.006C474.916 196.178 473.13 197.964 470.958 197.964C468.786 197.964 467 196.178 467 194.006Z" fill="white"/>
<g filter="url(#filter1_d_258_104)">
<path d="M270.968 299.652C273.189 299.655 274.972 301.443 274.969 303.615C274.966 305.835 273.178 307.57 270.958 307.567C268.786 307.565 267.002 305.825 267.005 303.604C267.008 301.432 268.796 299.649 270.968 299.652Z" fill="white"/>
<path d="M270.997 278.366C273.217 278.369 275 280.157 274.997 282.329C274.995 284.549 273.206 286.285 270.986 286.282C268.814 286.279 267.03 284.539 267.033 282.319C267.036 280.147 268.825 278.363 270.997 278.366Z" fill="white"/>
<path d="M271.027 255.005C273.248 255.008 275.031 256.796 275.028 258.968C275.025 261.14 273.237 262.924 271.017 262.921C268.845 262.918 267.061 261.13 267.064 258.958C267.067 256.786 268.855 255.002 271.027 255.005Z" fill="white"/>
</g>
<g filter="url(#filter2_d_258_104)">
<path d="M110.651 347.264C110.651 349.485 108.866 351.271 106.694 351.271C104.474 351.271 102.736 349.486 102.735 347.265C102.735 345.093 104.473 343.307 106.693 343.307C108.865 343.307 110.651 345.092 110.651 347.264Z" fill="white"/>
<path d="M131.937 347.262C131.937 349.482 130.152 351.268 127.98 351.268C125.759 351.269 124.021 349.483 124.021 347.263C124.021 345.091 125.758 343.305 127.979 343.304C130.151 343.304 131.937 345.09 131.937 347.262Z" fill="white"/>
<path d="M155.298 347.259C155.298 349.479 153.513 351.265 151.341 351.265C149.169 351.266 147.383 349.48 147.382 347.26C147.382 345.088 149.168 343.302 151.34 343.301C153.512 343.301 155.298 345.087 155.298 347.259Z" fill="white"/>
</g>
<path d="M686.695 20.9576C686.695 18.7856 688.433 16.9998 690.653 16.9998C692.825 16.9998 694.611 18.7856 694.611 20.9576C694.611 23.1779 692.825 24.9638 690.653 24.9638C688.433 24.9638 686.695 23.1779 686.695 20.9576Z" fill="white"/>
<path d="M698.882 68.6769C698.882 66.5049 700.62 64.719 702.84 64.719C705.012 64.719 706.798 66.5049 706.798 68.6769C706.798 70.8972 705.012 72.683 702.84 72.683C700.62 72.683 698.882 70.8972 698.882 68.6769Z" fill="white"/>
<path d="M698.882 85.6769C698.882 83.5049 700.62 81.719 702.84 81.719C705.012 81.719 706.798 83.5049 706.798 85.6769C706.798 87.8972 705.012 89.683 702.84 89.683C700.62 89.683 698.882 87.8972 698.882 85.6769Z" fill="white"/>
<path d="M698.882 102.677C698.882 100.505 700.62 98.719 702.84 98.719C705.012 98.719 706.798 100.505 706.798 102.677C706.798 104.897 705.012 106.683 702.84 106.683C700.62 106.683 698.882 104.897 698.882 102.677Z" fill="white"/>
<path d="M665.409 20.9576C665.409 18.7856 667.147 16.9998 669.367 16.9998C671.539 16.9998 673.325 18.7856 673.325 20.9576C673.325 23.1779 671.539 24.9638 669.367 24.9638C667.147 24.9638 665.409 23.1779 665.409 20.9576Z" fill="white"/>
<path d="M642 20.9576C642 18.7856 643.786 16.9998 646.006 16.9998C648.178 16.9998 649.964 18.7856 649.964 20.9576C649.964 23.1779 648.178 24.9638 646.006 24.9638C643.786 24.9638 642 23.1779 642 20.9576Z" fill="white"/>
<path d="M354.887 273.125L371.448 263.201" stroke="white" stroke-width="3.2" stroke-linecap="round" stroke-linejoin="round"/>
<g filter="url(#filter3_d_258_104)">
<path d="M346.904 262.601C348.928 261.717 351.286 262.641 352.171 264.665L359.636 281.758C360.521 283.783 359.596 286.141 357.572 287.025L340.334 294.554C338.309 295.439 335.951 294.514 335.067 292.49L327.601 275.397C326.717 273.372 327.641 271.014 329.666 270.13L346.904 262.601Z" fill="#3C4E76"/>
</g>
<g filter="url(#filter4_d_258_104)">
<path d="M14.688 349.344C14.688 351.709 12.7574 353.688 10.344 353.688C7.93067 353.688 6 351.709 6 349.344C6 346.93 7.93067 345 10.344 345C12.7574 345 14.688 346.93 14.688 349.344Z" stroke="white" stroke-width="3.5" stroke-linecap="round" stroke-linejoin="round" shape-rendering="crispEdges"/>
</g>
<g filter="url(#filter5_d_258_104)">
<path d="M262.007 186.4C262.104 183.841 264.228 181.862 266.786 182.007C269.344 182.104 271.323 184.228 271.178 186.786C271.082 189.344 268.958 191.323 266.4 191.178C263.842 191.081 261.863 188.958 262.007 186.4Z" stroke="white" stroke-width="3.7" stroke-linecap="round" stroke-linejoin="round" shape-rendering="crispEdges"/>
</g>
<g filter="url(#filter6_d_258_104)">
<path d="M127.007 157.4C127.104 154.842 129.228 152.863 131.786 153.007C134.344 153.104 136.323 155.228 136.178 157.786C136.082 160.344 133.958 162.323 131.4 162.178C128.842 162.082 126.863 159.958 127.007 157.4Z" stroke="white" stroke-width="3.7" stroke-linecap="round" stroke-linejoin="round" shape-rendering="crispEdges"/>
</g>
<path d="M429.698 289.319L445.7 316.024" stroke="white" stroke-width="3.2" stroke-linecap="round" stroke-linejoin="round"/>
<g filter="url(#filter7_d_258_104)">
<path d="M453.255 308.84C455.217 307.824 457.631 308.59 458.647 310.552L467.225 327.115C468.241 329.076 467.475 331.49 465.513 332.506L448.809 341.157C446.848 342.173 444.434 341.407 443.418 339.445L434.84 322.882C433.824 320.921 434.59 318.507 436.552 317.491L453.255 308.84Z" fill="#3C4E76"/>
</g>
<path d="M585.483 195L580.515 213.622" stroke="white" stroke-width="3.2" stroke-linecap="round" stroke-linejoin="round"/>
<path d="M624.1 306.276L607.882 295.766" stroke="white" stroke-width="3.2" stroke-linecap="round" stroke-linejoin="round"/>
<g filter="url(#filter8_d_258_104)">
<path d="M629.407 297.236C630.705 295.449 633.206 295.053 634.994 296.351L650.085 307.313C651.872 308.612 652.268 311.113 650.97 312.901L639.914 328.12C638.616 329.907 636.114 330.303 634.327 329.005L619.236 318.043C617.449 316.744 617.053 314.243 618.351 312.455L629.407 297.236Z" fill="#3C4E76"/>
</g>
<path fill-rule="evenodd" clip-rule="evenodd" d="M369.544 177.71C369.544 180.413 367.275 182.633 364.476 182.633H358.587C357.863 187.074 356.126 191.176 353.567 194.748L357.477 198.706C359.408 200.637 359.359 203.726 357.332 205.608C356.367 206.525 355.112 206.96 353.857 206.96C352.554 206.96 351.202 206.477 350.237 205.463L346.424 201.65C343.045 203.967 339.087 205.608 334.792 206.332V211.545C334.792 214.248 332.523 216.42 329.772 216.42C326.972 216.42 324.752 214.248 324.752 211.545V206.332C320.456 205.608 316.547 203.967 313.12 201.65L309.307 205.463C308.341 206.477 306.99 206.96 305.687 206.96C304.432 206.96 303.177 206.525 302.212 205.608C300.184 203.726 300.136 200.637 302.067 198.706L305.976 194.748C303.418 191.176 301.681 187.074 301.005 182.633H295.068C292.269 182.633 290 180.413 290 177.71C290 175.007 292.269 172.835 295.068 172.835H301.246C302.115 168.588 303.949 164.678 306.556 161.348L302.067 156.762C300.136 154.832 300.184 151.694 302.212 149.812C304.19 147.978 307.376 148.026 309.307 149.957L313.94 154.638C317.174 152.611 320.843 151.163 324.752 150.536V143.923C324.752 141.22 326.972 139 329.772 139C332.523 139 334.792 141.22 334.792 143.923V150.536C338.701 151.163 342.37 152.611 345.603 154.638L350.237 149.957C352.168 148.026 355.353 147.978 357.332 149.812C359.359 151.694 359.408 154.832 357.477 156.762L352.988 161.348C355.546 164.678 357.429 168.588 358.298 172.835H364.476C367.275 172.835 369.544 175.007 369.544 177.71ZM342.563 177.951C342.563 170.856 336.674 165.112 329.434 165.112C322.146 165.112 316.257 170.856 316.257 177.951C316.257 185.047 322.146 190.79 329.434 190.79C336.674 190.79 342.563 185.047 342.563 177.951Z" fill="#C6C3FC"/>
<path d="M336.964 178.048C336.964 181.909 333.778 185.047 329.772 185.047C325.814 185.047 322.628 181.909 322.628 178.048C322.628 174.187 325.814 171.098 329.772 171.098C333.778 171.098 336.964 174.187 336.964 178.048Z" stroke="white" stroke-width="3" stroke-miterlimit="10"/>
<path d="M352.699 178.048C352.699 190.356 342.466 200.347 329.772 200.347C317.126 200.347 306.893 190.356 306.893 178.048C306.893 165.74 317.126 155.749 329.772 155.749C342.466 155.749 352.699 165.74 352.699 178.048Z" stroke="white" stroke-width="3" stroke-miterlimit="10"/>
<path fill-rule="evenodd" clip-rule="evenodd" d="M630.988 69C630.988 70.2569 629.933 71.2893 628.631 71.2893H625.893C625.556 73.3541 624.748 75.2618 623.559 76.9227L625.377 78.7631C626.274 79.6608 626.252 81.0973 625.309 81.9726C624.86 82.399 624.277 82.601 623.693 82.601C623.087 82.601 622.459 82.3766 622.01 81.9052L620.237 80.1322C618.666 81.2095 616.825 81.9726 614.828 82.3092V84.7332C614.828 85.99 613.773 87 612.494 87C611.192 87 610.16 85.99 610.16 84.7332V82.3092C608.162 81.9726 606.344 81.2095 604.751 80.1322L602.978 81.9052C602.529 82.3766 601.9 82.601 601.294 82.601C600.711 82.601 600.127 82.399 599.678 81.9726C598.736 81.0973 598.713 79.6608 599.611 78.7631L601.429 76.9227C600.239 75.2618 599.431 73.3541 599.117 71.2893H596.357C595.055 71.2893 594 70.2569 594 69C594 67.7431 595.055 66.7332 596.357 66.7332H599.229C599.633 64.7581 600.486 62.9401 601.698 61.3915L599.611 59.2593C598.713 58.3616 598.736 56.9027 599.678 56.0274C600.599 55.1746 602.08 55.197 602.978 56.0948L605.132 58.2718C606.636 57.3292 608.342 56.6559 610.16 56.3641V53.2893C610.16 52.0324 611.192 51 612.494 51C613.773 51 614.828 52.0324 614.828 53.2893V56.3641C616.646 56.6559 618.352 57.3292 619.855 58.2718L622.01 56.0948C622.908 55.197 624.389 55.1746 625.309 56.0274C626.252 56.9027 626.274 58.3616 625.377 59.2593L623.289 61.3915C624.479 62.9401 625.354 64.7581 625.758 66.7332H628.631C629.933 66.7332 630.988 67.7431 630.988 69ZM618.441 69.1122C618.441 65.813 615.703 63.1421 612.337 63.1421C608.948 63.1421 606.209 65.813 606.209 69.1122C606.209 72.4115 608.948 75.0823 612.337 75.0823C615.703 75.0823 618.441 72.4115 618.441 69.1122Z" fill="#C6C3FC"/>
<path d="M615.838 69.1572C615.838 70.9527 614.357 72.4116 612.494 72.4116C610.653 72.4116 609.172 70.9527 609.172 69.1572C609.172 67.3617 610.653 65.9253 612.494 65.9253C614.357 65.9253 615.838 67.3617 615.838 69.1572Z" stroke="white" stroke-width="3" stroke-miterlimit="10"/>
<path d="M623.155 69.1572C623.155 74.8804 618.397 79.5262 612.494 79.5262C606.613 79.5262 601.855 74.8804 601.855 69.1572C601.855 63.434 606.613 58.7881 612.494 58.7881C618.397 58.7881 623.155 63.434 623.155 69.1572Z" stroke="white" stroke-width="3" stroke-miterlimit="10"/>
<path fill-rule="evenodd" clip-rule="evenodd" d="M638.073 132.382C638.073 134.265 636.577 135.761 634.695 135.761H630.737C630.302 138.802 629.096 141.649 627.406 144.063L630.013 146.814C631.316 148.165 631.268 150.289 629.916 151.544C629.24 152.22 628.42 152.509 627.599 152.509C626.682 152.509 625.814 152.172 625.138 151.496L622.628 148.841C620.311 150.434 617.705 151.544 614.809 152.075V155.647C614.809 157.481 613.312 159.025 611.478 159.025C609.596 159.025 608.1 157.481 608.1 155.647V152.075C605.252 151.544 602.597 150.434 600.28 148.841L597.77 151.496C597.095 152.172 596.226 152.509 595.309 152.509C594.488 152.509 593.668 152.22 592.992 151.544C591.641 150.289 591.641 148.165 592.896 146.814L595.55 144.063C593.813 141.649 592.654 138.802 592.172 135.761H588.214C586.331 135.761 584.835 134.265 584.835 132.382C584.835 130.548 586.331 129.003 588.214 129.003H592.365C592.944 126.107 594.199 123.404 595.936 121.088L592.896 117.95C591.641 116.647 591.641 114.475 592.992 113.22C594.344 111.917 596.467 111.965 597.77 113.317L600.86 116.502C603.032 115.103 605.445 114.137 608.1 113.655V109.118C608.1 107.283 609.596 105.787 611.478 105.787C613.312 105.787 614.809 107.283 614.809 109.118V113.655C617.463 114.137 619.877 115.103 622.049 116.502L625.138 113.317C626.441 111.965 628.565 111.917 629.916 113.22C631.268 114.475 631.316 116.647 630.013 117.95L626.972 121.088C628.71 123.404 629.964 126.107 630.544 129.003H634.695C636.577 129.003 638.073 130.548 638.073 132.382ZM620.021 132.527C620.021 127.652 616.112 123.742 611.237 123.742C606.362 123.742 602.404 127.652 602.404 132.527C602.404 137.402 606.362 141.36 611.237 141.36C616.112 141.36 620.021 137.402 620.021 132.527Z" fill="#8383DD"/>
<path d="M616.257 132.624C616.257 135.278 614.133 137.402 611.478 137.402C608.824 137.402 606.652 135.278 606.652 132.624C606.652 129.969 608.824 127.797 611.478 127.797C614.133 127.797 616.257 129.969 616.257 132.624Z" stroke="white" stroke-width="2.1" stroke-miterlimit="10"/>
<path d="M622.628 132.623C622.628 138.753 617.608 143.773 611.478 143.773C605.3 143.773 600.329 138.753 600.329 132.623C600.329 126.445 605.3 121.474 611.478 121.474C617.608 121.474 622.628 126.445 622.628 132.623Z" stroke="white" stroke-width="2.1" stroke-miterlimit="10"/>
<path fill-rule="evenodd" clip-rule="evenodd" d="M163 61.9828C163 63.3264 161.932 64.3944 160.588 64.3944H157.763C157.453 66.5648 156.592 68.5975 155.386 70.32L157.247 72.2838C158.177 73.2484 158.142 74.7643 157.178 75.66C156.695 76.1423 156.11 76.349 155.524 76.349C154.869 76.349 154.249 76.1079 153.767 75.6256L151.976 73.7307C150.322 74.8676 148.461 75.66 146.394 76.039V78.5884C146.394 79.8976 145.326 81 144.017 81C142.674 81 141.606 79.8976 141.606 78.5884V76.039C139.573 75.66 137.678 74.8676 136.024 73.7307L134.233 75.6256C133.751 76.1079 133.131 76.349 132.476 76.349C131.89 76.349 131.305 76.1423 130.822 75.66C129.858 74.7643 129.858 73.2484 130.753 72.2838L132.648 70.32C131.408 68.5975 130.581 66.5648 130.237 64.3944H127.412C126.068 64.3944 125 63.3264 125 61.9828C125 60.6736 126.068 59.5712 127.412 59.5712H130.374C130.788 57.5041 131.684 55.5748 132.924 53.9211L130.753 51.6818C129.858 50.7516 129.858 49.2013 130.822 48.3055C131.787 47.3753 133.303 47.4098 134.233 48.3744L136.438 50.6482C137.988 49.6491 139.711 48.9601 141.606 48.6156V45.3772C141.606 44.068 142.674 43 144.017 43C145.326 43 146.394 44.068 146.394 45.3772V48.6156C148.289 48.9601 150.012 49.6491 151.562 50.6482L153.767 48.3744C154.697 47.4098 156.213 47.3753 157.178 48.3055C158.142 49.2013 158.177 50.7516 157.247 51.6818L155.076 53.9211C156.316 55.5748 157.212 57.5041 157.626 59.5712H160.588C161.932 59.5712 163 60.6736 163 61.9828ZM150.115 62.0861C150.115 58.6065 147.325 55.816 143.845 55.816C140.365 55.816 137.54 58.6065 137.54 62.0861C137.54 65.5657 140.365 68.3907 143.845 68.3907C147.325 68.3907 150.115 65.5657 150.115 62.0861Z" fill="#8383DD"/>
<path d="M147 62.5176C147 64.4523 145.673 66 144.015 66C142.357 66 141 64.4523 141 62.5176C141 60.5829 142.357 59 144.015 59C145.673 59 147 60.5829 147 62.5176Z" stroke="white" stroke-width="2.1" stroke-miterlimit="10"/>
<path d="M152 62C152 66.3983 148.398 70 144 70C139.567 70 136 66.3983 136 62C136 57.5671 139.567 54 144 54C148.398 54 152 57.5671 152 62Z" stroke="white" stroke-width="2.1" stroke-miterlimit="10"/>
<g filter="url(#filter9_d_258_104)">
<path d="M292.86 38.4539C292.86 41.4464 290.398 43.8598 287.406 43.8598C284.413 43.8598 282 41.4464 282 38.4539C282 35.4614 284.413 32.9998 287.406 32.9998C290.398 32.9998 292.86 35.4614 292.86 38.4539Z" stroke="white" stroke-width="3.2" stroke-linecap="round" stroke-linejoin="round" shape-rendering="crispEdges"/>
</g>
<g filter="url(#filter10_d_258_104)">
<path d="M213.86 306.454C213.86 309.447 211.398 311.86 208.406 311.86C205.413 311.86 203 309.447 203 306.454C203 303.462 205.413 301 208.406 301C211.398 301 213.86 303.462 213.86 306.454Z" stroke="white" stroke-width="3.2" stroke-linecap="round" stroke-linejoin="round" shape-rendering="crispEdges"/>
</g>
<path d="M396.24 140.62C396.24 142.599 394.647 144.24 392.62 144.24C390.641 144.24 389 142.599 389 140.62C389 138.593 390.641 137 392.62 137C394.647 137 396.24 138.593 396.24 140.62Z" stroke="white" stroke-width="3.2" stroke-linecap="round" stroke-linejoin="round"/>
<path d="M399.24 77.62C399.24 79.599 397.647 81.24 395.62 81.24C393.641 81.24 392 79.599 392 77.62C392 75.5928 393.641 74 395.62 74C397.647 74 399.24 75.5928 399.24 77.62Z" stroke="white" stroke-width="3.2" stroke-linecap="round" stroke-linejoin="round"/>
<path d="M345.045 101.829C345.045 102.843 344.225 103.663 343.211 103.663C342.198 103.663 341.425 102.843 341.425 101.829C341.425 100.864 342.198 100.043 343.211 100.043C344.225 100.043 345.045 100.864 345.045 101.829Z" stroke="white" stroke-width="3.2" stroke-linecap="round" stroke-linejoin="round"/>
<g filter="url(#filter11_d_258_104)">
<path d="M121.86 24.4056C121.86 27.4465 119.447 29.8598 116.454 29.8598C113.462 29.8598 111 27.4465 111 24.4056C111 21.4131 113.462 18.9998 116.454 18.9998C119.447 18.9998 121.86 21.4131 121.86 24.4056Z" stroke="white" stroke-width="3.2" stroke-linecap="round" stroke-linejoin="round" shape-rendering="crispEdges"/>
</g>
<path d="M424.01 28.6567C424.01 29.6703 423.189 30.4909 422.176 30.4909C421.21 30.4909 420.39 29.6703 420.39 28.6567C420.39 27.6431 421.21 26.8708 422.176 26.8708C423.189 26.8708 424.01 27.6431 424.01 28.6567Z" stroke="white" stroke-width="3.2" stroke-linecap="round" stroke-linejoin="round"/>
<path d="M497.964 302.006C497.964 304.178 496.178 305.964 494.006 305.964C491.786 305.964 490 304.178 490 302.006C490 299.786 491.786 298 494.006 298C496.178 298 497.964 299.786 497.964 302.006Z" stroke="white" stroke-width="3.2" stroke-linecap="round" stroke-linejoin="round"/>
<path d="M550.964 181.006C550.964 183.178 549.178 184.964 547.006 184.964C544.786 184.964 543 183.178 543 181.006C543 178.786 544.786 177 547.006 177C549.178 177 550.964 178.786 550.964 181.006Z" stroke="white" stroke-width="3.2" stroke-linecap="round" stroke-linejoin="round"/>
<path d="M501.964 226.006C501.964 228.178 500.178 229.964 498.006 229.964C495.786 229.964 494 228.178 494 226.006C494 223.786 495.786 222 498.006 222C500.178 222 501.964 223.786 501.964 226.006Z" stroke="white" stroke-width="3.2" stroke-linecap="round" stroke-linejoin="round"/>
<path d="M531.21 318.837C531.21 320.43 529.955 321.733 528.314 321.733C526.722 321.733 525.418 320.43 525.418 318.837C525.418 317.244 526.722 315.941 528.314 315.941C529.955 315.941 531.21 317.244 531.21 318.837Z" stroke="white" stroke-width="3.2" stroke-linecap="round" stroke-linejoin="round"/>
<path d="M492.838 373.909C492.838 375.502 491.535 376.805 489.942 376.805C488.35 376.805 487.046 375.502 487.046 373.909C487.046 372.317 488.35 371.013 489.942 371.013C491.535 371.013 492.838 372.317 492.838 373.909Z" stroke="white" stroke-width="3.2" stroke-linecap="round" stroke-linejoin="round"/>
<path d="M381.792 356.896C381.792 358.537 380.489 359.84 378.896 359.84C377.303 359.84 376 358.537 376 356.896C376 355.303 377.303 354 378.896 354C380.489 354 381.792 355.303 381.792 356.896Z" stroke="white" stroke-width="3.2" stroke-linecap="round" stroke-linejoin="round"/>
<path d="M372.792 294.896C372.792 296.537 371.489 297.84 369.896 297.84C368.303 297.84 367 296.537 367 294.896C367 293.303 368.303 292 369.896 292C371.489 292 372.792 293.303 372.792 294.896Z" stroke="white" stroke-width="3.2" stroke-linecap="round" stroke-linejoin="round"/>
<path d="M630.516 217.234C630.516 219.02 629.068 220.516 627.282 220.516C625.448 220.516 624 219.02 624 217.234C624 215.448 625.448 214 627.282 214C629.068 214 630.516 215.448 630.516 217.234Z" stroke="white" stroke-width="3.2" stroke-linecap="round" stroke-linejoin="round"/>
<path d="M690.068 220.558C690.068 221.958 688.958 223.068 687.558 223.068C686.158 223.068 685 221.958 685 220.558C685 219.158 686.158 218 687.558 218C688.958 218 690.068 219.158 690.068 220.558Z" stroke="white" stroke-width="3.2" stroke-linecap="round" stroke-linejoin="round"/>
<path d="M439.116 178.558C439.116 179.958 437.958 181.068 436.558 181.068C435.158 181.068 434 179.958 434 178.558C434 177.158 435.158 176 436.558 176C437.958 176 439.116 177.158 439.116 178.558Z" stroke="white" stroke-width="3.2" stroke-linecap="round" stroke-linejoin="round"/>
<path d="M666.744 121.763C666.744 124.949 664.137 127.555 660.903 127.555C657.718 127.555 655.111 124.949 655.111 121.763C655.111 118.578 657.718 115.971 660.903 115.971C664.137 115.971 666.744 118.578 666.744 121.763Z" stroke="white" stroke-width="3.2" stroke-linecap="round" stroke-linejoin="round"/>
<path d="M579.632 83.792C579.632 86.9776 577.026 89.584 573.792 89.584C570.606 89.584 568 86.9776 568 83.792C568 80.6064 570.606 78 573.792 78C577.026 78 579.632 80.6064 579.632 83.792Z" stroke="white" stroke-width="3.2" stroke-linecap="round" stroke-linejoin="round"/>
<path d="M366.765 65.436L369.517 70.4558L374.585 73.207L369.517 75.9582L366.765 81.0262L364.014 75.9582L358.946 73.207L364.014 70.4558L366.765 65.436Z" fill="#FF9E00"/>
<path d="M399.345 55.0586L400.697 57.4237L403.062 58.7269L400.697 60.0301L399.345 62.4434L398.042 60.0301L395.677 58.7269L398.042 57.4237L399.345 55.0586Z" fill="#FF9E00"/>
<path d="M471.118 326.656L473.966 331.917L479.179 334.765L473.966 337.661L471.118 342.874L468.222 337.661L463.009 334.765L468.222 331.917L471.118 326.656Z" fill="#FF9E00"/>
<path d="M463.106 364.449L464.94 367.731L468.271 369.566L464.94 371.351L463.106 374.682L461.32 371.351L457.99 369.566L461.32 367.731L463.106 364.449Z" fill="#FF9E00"/>
<path d="M687.016 285.146L689.429 289.587L693.87 292.049L689.429 294.462L687.016 298.903L684.554 294.462L680.114 292.049L684.554 289.587L687.016 285.146Z" fill="#FF9E00"/>
<path d="M706.564 270.184L707.626 272.115L709.556 273.177L707.626 274.239L706.564 276.169L705.502 274.239L703.571 273.177L705.502 272.115L706.564 270.184Z" fill="#FF9E00"/>
<path d="M660.179 165.735L661.821 168.679L664.765 170.32L661.821 171.913L660.179 174.905L658.587 171.913L655.594 170.32L658.587 168.679L660.179 165.735Z" fill="#FF9E00"/>
<path d="M679.776 146.186L681.61 149.613L685.037 151.496L681.61 153.33L679.776 156.757L677.893 153.33L674.466 151.496L677.893 149.613L679.776 146.186Z" fill="#FF9E00"/>
<path d="M496.103 245L497.551 247.655L500.205 249.103L497.551 250.551L496.103 253.205L494.655 250.551L492 249.103L494.655 247.655L496.103 245Z" fill="#FF9E00"/>
<path d="M425.458 129.003L426.713 131.369L429.078 132.623L426.713 133.927L425.458 136.243L424.155 133.927L421.838 132.623L424.155 131.369L425.458 129.003Z" fill="#FF9E00"/>
<path d="M459.486 77.2615L461.127 80.254L464.168 81.8951L461.127 83.5362L459.486 86.577L457.845 83.5362L454.852 81.8951L457.845 80.254L459.486 77.2615Z" fill="#FF9E00"/>
<path d="M479.054 2L480.551 4.65468L483.157 6.10268L480.551 7.55069L479.054 10.2054L477.606 7.55069L475 6.10268L477.606 4.65468L479.054 2Z" fill="#FF9E00"/>
<path d="M556.599 38.9858L558.433 42.3645L561.86 44.2469L558.433 46.1293L556.599 49.508L554.716 46.1293L551.338 44.2469L554.716 42.3645L556.599 38.9858Z" fill="#FF9E00"/>
<path d="M585.559 23.8782L586.621 25.8088L588.552 26.8707L586.621 27.9326L585.559 29.8633L584.497 27.9326L582.566 26.8707L584.497 25.8088L585.559 23.8782Z" fill="#FF9E00"/>
<path d="M667.468 78.0337L668.819 80.5436L671.329 81.895L668.819 83.2948L667.468 85.8046L666.068 83.2948L663.558 81.895L666.068 80.5436L667.468 78.0337Z" fill="#FF9E00"/>
<g filter="url(#filter12_d_258_104)">
<path d="M327.272 341.184C327.272 346.783 322.735 351.32 317.136 351.32C311.537 351.32 307 346.783 307 341.184C307 335.537 311.537 331 317.136 331C322.735 331 327.272 335.537 327.272 341.184Z" fill="white"/>
</g>
<g filter="url(#filter13_d_258_104)">
<path d="M224.272 215.184C224.272 220.783 219.735 225.32 214.136 225.32C208.537 225.32 204 220.783 204 215.184C204 209.537 208.537 205 214.136 205C219.735 205 224.272 209.537 224.272 215.184Z" fill="white"/>
</g>
<path d="M514.121 160.375C513.228 160.742 512.22 160.321 511.835 159.384L510.348 155.768C509.981 154.875 510.383 153.823 511.276 153.455C512.213 153.07 513.239 153.535 513.606 154.428L515.093 158.044C515.479 158.981 515.058 159.989 514.121 160.375Z" fill="#2D1A14"/>
<g filter="url(#filter14_d_258_104)">
<path d="M406.744 99.1954C402.817 88.8716 408.002 77.3185 418.326 73.391L461.119 57.1111C471.443 53.1836 482.996 58.3688 486.923 68.6927L503.385 111.963C507.312 122.287 502.127 133.84 491.803 137.767L449.01 154.047C438.686 157.975 427.133 152.79 423.206 142.466L406.744 99.1954Z" fill="#033D58"/>
</g>
<path d="M466.052 129.101C462.714 130.474 458.826 128.88 457.454 125.542L453.669 116.337C452.282 112.966 453.924 109.098 457.262 107.725C460.633 106.339 464.487 107.947 465.874 111.319L469.659 120.523C471.031 123.861 469.423 127.715 466.052 129.101Z" fill="#F7AF02"/>
<path d="M460.028 115.891C450.25 119.911 438.974 115.206 434.953 105.429C430.933 95.6509 435.624 84.3407 445.401 80.32C455.179 76.2994 466.503 81.0242 470.524 90.8018C474.544 100.58 469.806 111.87 460.028 115.891Z" fill="#F7AF02"/>
<path d="M461.178 123.577C460.538 123.84 459.858 123.529 459.594 122.888L451.11 102.254C450.86 101.647 451.124 100.947 451.765 100.684C452.372 100.434 453.085 100.732 453.335 101.339L461.82 121.973C462.083 122.614 461.785 123.327 461.178 123.577Z" stroke="#472A1C" stroke-width="0.9" stroke-linecap="round" stroke-linejoin="round"/>
<path d="M464.887 122.052C464.28 122.301 463.567 122.004 463.303 121.363L454.818 100.729C454.569 100.122 454.867 99.4082 455.473 99.1587C456.114 98.8953 456.828 99.193 457.077 99.7999L465.562 120.434C465.826 121.075 465.528 121.789 464.887 122.052Z" stroke="#472A1C" stroke-width="0.9" stroke-linecap="round" stroke-linejoin="round"/>
<path d="M455.97 121.934L457.454 125.542C458.826 128.88 462.714 130.474 466.052 129.101C469.423 127.715 471.031 123.861 469.659 120.523L468.175 116.915L455.97 121.934Z" fill="#9898EA"/>
<path d="M586.244 299.485C585.351 299.852 584.343 299.432 583.958 298.494L582.471 294.878C582.104 293.985 582.506 292.933 583.399 292.566C584.336 292.18 585.362 292.645 585.729 293.538L587.216 297.154C587.602 298.092 587.181 299.099 586.244 299.485Z" fill="#2D1A14"/>
<g filter="url(#filter15_d_258_104)">
<path d="M522.234 256.306C518.307 245.982 523.492 234.429 533.816 230.502L576.609 214.222C586.933 210.294 598.486 215.479 602.413 225.803L618.875 269.074C622.802 279.397 617.617 290.95 607.293 294.878L564.5 311.158C554.176 315.085 542.623 309.9 538.696 299.576L522.234 256.306Z" fill="#033D58"/>
</g>
<path d="M570.197 282.346L561.3 285.688L552.773 262.984L561.67 259.642L570.197 282.346Z" fill="#F7AF02"/>
<path d="M582.402 277.763L573.436 281.13L561.541 249.46L570.507 246.093L582.402 277.763Z" fill="#F7AF02"/>
<path d="M595.952 272.207L586.271 275.843L572.238 238.48L581.92 234.844L595.952 272.207Z" fill="#F7AF02"/>
<path d="M553.097 288.497L600.925 270.533" stroke="white" stroke-width="2.9" stroke-linecap="round" stroke-linejoin="round"/>
<path d="M428.244 288.485C427.351 288.852 426.343 288.432 425.958 287.494L424.471 283.878C424.104 282.986 424.506 281.933 425.399 281.566C426.336 281.181 427.362 281.646 427.729 282.538L429.216 286.154C429.602 287.092 429.181 288.1 428.244 288.485Z" fill="#2D1A14"/>
<g filter="url(#filter16_d_258_104)">
<path d="M364.234 245.306C360.307 234.982 365.492 223.429 375.816 219.502L418.609 203.222C428.933 199.294 440.486 204.48 444.413 214.804L460.875 258.074C464.802 268.398 459.617 279.951 449.293 283.878L406.5 300.158C396.176 304.086 384.623 298.9 380.696 288.577L364.234 245.306Z" fill="#033D58"/>
</g>
<path d="M433.919 238.613C434.202 239.087 434.474 239.567 434.735 240.053C439.035 248.455 438.178 258.294 433.139 265.677C431.137 268.622 428.521 271.155 425.276 273.099C413.412 280.208 397.953 276.333 390.824 264.436C383.695 252.538 387.59 237.113 399.487 229.984L399.589 229.923C405.963 226.15 413.356 225.532 419.91 227.577C419.946 227.586 419.964 227.59 419.964 227.59C425.633 229.385 430.658 233.172 433.919 238.613Z" fill="#2BA5B2"/>
<path d="M419.964 227.591L415.184 242.765L412.354 251.535L412.287 251.346L407.683 243.585L399.589 229.924C405.963 226.15 413.356 225.533 419.91 227.577C419.946 227.586 419.964 227.591 419.964 227.591Z" fill="#008DCE"/>
<path d="M433.919 238.614C434.202 239.087 434.474 239.567 434.735 240.053L421.06 248.432L411.285 254.427L412.287 251.346L415.056 242.704L419.91 227.577C419.946 227.586 419.964 227.591 419.964 227.591C425.632 229.385 430.658 233.172 433.919 238.614Z" fill="#006696"/>
<path d="M434.735 240.053C439.035 248.456 438.178 258.294 433.139 265.677L418.054 258.823L414.169 257.016L411.285 254.427L421.06 248.432L434.735 240.053Z" fill="#008DCE"/>
<path d="M420.297 246.776C422.93 251.17 421.488 256.811 417.128 259.424C412.734 262.057 407.112 260.648 404.479 256.254C401.867 251.894 403.255 246.239 407.649 243.606C412.009 240.993 417.685 242.416 420.297 246.776Z" fill="#C6C3FC"/>
<g filter="url(#filter17_d_258_104)">
<path d="M346.877 96.4646C344.736 95.9205 343.441 93.7438 343.985 91.6027L348.579 73.5249C349.123 71.3838 351.299 70.0891 353.441 70.6331L371.672 75.2657C373.813 75.8098 375.108 77.9865 374.564 80.1276L369.97 98.2055C369.426 100.347 367.249 101.641 365.108 101.097L346.877 96.4646Z" fill="#3C4E76"/>
</g>
<g filter="url(#filter18_d_258_104)">
<path d="M410.23 19.1392C409.431 17.0796 410.453 14.7622 412.513 13.9633L429.903 7.21769C431.962 6.41876 434.28 7.44073 435.079 9.50034L441.882 27.0381C442.681 29.0977 441.659 31.415 439.599 32.2139L422.209 38.9595C420.15 39.7585 417.832 38.7365 417.033 36.6769L410.23 19.1392Z" fill="#3C4E76"/>
</g>
<g filter="url(#filter19_d_258_104)">
<path d="M578.563 169.382C579.147 167.252 581.348 165.998 583.479 166.582L601.467 171.515C603.597 172.1 604.851 174.3 604.266 176.431L599.291 194.572C598.707 196.703 596.506 197.956 594.376 197.372L576.388 192.439C574.257 191.854 573.004 189.654 573.588 187.523L578.563 169.382Z" fill="#3C4E76"/>
</g>
<defs>
<filter id="filter0_d_258_104" x="169" y="180" width="15.9157" height="60.6108" filterUnits="userSpaceOnUse" color-interpolation-filters="sRGB">
<feFlood flood-opacity="0" result="BackgroundImageFix"/>
<feColorMatrix in="SourceAlpha" type="matrix" values="0 0 0 0 0 0 0 0 0 0 0 0 0 0 0 0 0 0 127 0" result="hardAlpha"/>
<feOffset dy="4"/>
<feGaussianBlur stdDeviation="2"/>
<feComposite in2="hardAlpha" operator="out"/>
<feColorMatrix type="matrix" values="0 0 0 0 1 0 0 0 0 1 0 0 0 0 1 0 0 0 0.15 0"/>
<feBlend mode="normal" in2="BackgroundImageFix" result="effect1_dropShadow_258_104"/>
<feBlend mode="normal" in="SourceGraphic" in2="effect1_dropShadow_258_104" result="shape"/>
</filter>
<filter id="filter1_d_258_104" x="263.005" y="255.005" width="16.023" height="60.5625" filterUnits="userSpaceOnUse" color-interpolation-filters="sRGB">
<feFlood flood-opacity="0" result="BackgroundImageFix"/>
<feColorMatrix in="SourceAlpha" type="matrix" values="0 0 0 0 0 0 0 0 0 0 0 0 0 0 0 0 0 0 127 0" result="hardAlpha"/>
<feOffset dy="4"/>
<feGaussianBlur stdDeviation="2"/>
<feComposite in2="hardAlpha" operator="out"/>
<feColorMatrix type="matrix" values="0 0 0 0 1 0 0 0 0 1 0 0 0 0 1 0 0 0 0.15 0"/>
<feBlend mode="normal" in2="BackgroundImageFix" result="effect1_dropShadow_258_104"/>
<feBlend mode="normal" in="SourceGraphic" in2="effect1_dropShadow_258_104" result="shape"/>
</filter>
<filter id="filter2_d_258_104" x="98.7355" y="343.301" width="60.5626" height="15.9697" filterUnits="userSpaceOnUse" color-interpolation-filters="sRGB">
<feFlood flood-opacity="0" result="BackgroundImageFix"/>
<feColorMatrix in="SourceAlpha" type="matrix" values="0 0 0 0 0 0 0 0 0 0 0 0 0 0 0 0 0 0 127 0" result="hardAlpha"/>
<feOffset dy="4"/>
<feGaussianBlur stdDeviation="2"/>
<feComposite in2="hardAlpha" operator="out"/>
<feColorMatrix type="matrix" values="0 0 0 0 1 0 0 0 0 1 0 0 0 0 1 0 0 0 0.15 0"/>
<feBlend mode="normal" in2="BackgroundImageFix" result="effect1_dropShadow_258_104"/>
<feBlend mode="normal" in="SourceGraphic" in2="effect1_dropShadow_258_104" result="shape"/>
</filter>
<filter id="filter3_d_258_104" x="317.266" y="256.265" width="52.7063" height="52.6245" filterUnits="userSpaceOnUse" color-interpolation-filters="sRGB">
<feFlood flood-opacity="0" result="BackgroundImageFix"/>
<feColorMatrix in="SourceAlpha" type="matrix" values="0 0 0 0 0 0 0 0 0 0 0 0 0 0 0 0 0 0 127 0" result="hardAlpha"/>
<feOffset dy="4"/>
<feGaussianBlur stdDeviation="5"/>
<feComposite in2="hardAlpha" operator="out"/>
<feColorMatrix type="matrix" values="0 0 0 0 1 0 0 0 0 1 0 0 0 0 1 0 0 0 0.15 0"/>
<feBlend mode="normal" in2="BackgroundImageFix" result="effect1_dropShadow_258_104"/>
<feBlend mode="normal" in="SourceGraphic" in2="effect1_dropShadow_258_104" result="shape"/>
</filter>
<filter id="filter4_d_258_104" x="0.25" y="343.25" width="20.188" height="20.188" filterUnits="userSpaceOnUse" color-interpolation-filters="sRGB">
<feFlood flood-opacity="0" result="BackgroundImageFix"/>
<feColorMatrix in="SourceAlpha" type="matrix" values="0 0 0 0 0 0 0 0 0 0 0 0 0 0 0 0 0 0 127 0" result="hardAlpha"/>
<feOffset dy="4"/>
<feGaussianBlur stdDeviation="2"/>
<feComposite in2="hardAlpha" operator="out"/>
<feColorMatrix type="matrix" values="0 0 0 0 1 0 0 0 0 1 0 0 0 0 1 0 0 0 0.15 0"/>
<feBlend mode="normal" in2="BackgroundImageFix" result="effect1_dropShadow_258_104"/>
<feBlend mode="normal" in="SourceGraphic" in2="effect1_dropShadow_258_104" result="shape"/>
</filter>
<filter id="filter5_d_258_104" x="256.15" y="180.15" width="20.8858" height="20.8857" filterUnits="userSpaceOnUse" color-interpolation-filters="sRGB">
<feFlood flood-opacity="0" result="BackgroundImageFix"/>
<feColorMatrix in="SourceAlpha" type="matrix" values="0 0 0 0 0 0 0 0 0 0 0 0 0 0 0 0 0 0 127 0" result="hardAlpha"/>
<feOffset dy="4"/>
<feGaussianBlur stdDeviation="2"/>
<feComposite in2="hardAlpha" operator="out"/>
<feColorMatrix type="matrix" values="0 0 0 0 1 0 0 0 0 1 0 0 0 0 1 0 0 0 0.15 0"/>
<feBlend mode="normal" in2="BackgroundImageFix" result="effect1_dropShadow_258_104"/>
<feBlend mode="normal" in="SourceGraphic" in2="effect1_dropShadow_258_104" result="shape"/>
</filter>
<filter id="filter6_d_258_104" x="121.15" y="151.15" width="20.8858" height="20.8857" filterUnits="userSpaceOnUse" color-interpolation-filters="sRGB">
<feFlood flood-opacity="0" result="BackgroundImageFix"/>
<feColorMatrix in="SourceAlpha" type="matrix" values="0 0 0 0 0 0 0 0 0 0 0 0 0 0 0 0 0 0 127 0" result="hardAlpha"/>
<feOffset dy="4"/>
<feGaussianBlur stdDeviation="2"/>
<feComposite in2="hardAlpha" operator="out"/>
<feColorMatrix type="matrix" values="0 0 0 0 1 0 0 0 0 1 0 0 0 0 1 0 0 0 0.15 0"/>
<feBlend mode="normal" in2="BackgroundImageFix" result="effect1_dropShadow_258_104"/>
<feBlend mode="normal" in="SourceGraphic" in2="effect1_dropShadow_258_104" result="shape"/>
</filter>
<filter id="filter7_d_258_104" x="424.391" y="302.391" width="53.2834" height="53.2156" filterUnits="userSpaceOnUse" color-interpolation-filters="sRGB">
<feFlood flood-opacity="0" result="BackgroundImageFix"/>
<feColorMatrix in="SourceAlpha" type="matrix" values="0 0 0 0 0 0 0 0 0 0 0 0 0 0 0 0 0 0 127 0" result="hardAlpha"/>
<feOffset dy="4"/>
<feGaussianBlur stdDeviation="5"/>
<feComposite in2="hardAlpha" operator="out"/>
<feColorMatrix type="matrix" values="0 0 0 0 1 0 0 0 0 1 0 0 0 0 1 0 0 0 0.15 0"/>
<feBlend mode="normal" in2="BackgroundImageFix" result="effect1_dropShadow_258_104"/>
<feBlend mode="normal" in="SourceGraphic" in2="effect1_dropShadow_258_104" result="shape"/>
</filter>
<filter id="filter8_d_258_104" x="607.587" y="289.587" width="54.1471" height="54.1821" filterUnits="userSpaceOnUse" color-interpolation-filters="sRGB">
<feFlood flood-opacity="0" result="BackgroundImageFix"/>
<feColorMatrix in="SourceAlpha" type="matrix" values="0 0 0 0 0 0 0 0 0 0 0 0 0 0 0 0 0 0 127 0" result="hardAlpha"/>
<feOffset dy="4"/>
<feGaussianBlur stdDeviation="5"/>
<feComposite in2="hardAlpha" operator="out"/>
<feColorMatrix type="matrix" values="0 0 0 0 1 0 0 0 0 1 0 0 0 0 1 0 0 0 0.15 0"/>
<feBlend mode="normal" in2="BackgroundImageFix" result="effect1_dropShadow_258_104"/>
<feBlend mode="normal" in="SourceGraphic" in2="effect1_dropShadow_258_104" result="shape"/>
</filter>
<filter id="filter9_d_258_104" x="276.4" y="31.3997" width="22.06" height="22.0601" filterUnits="userSpaceOnUse" color-interpolation-filters="sRGB">
<feFlood flood-opacity="0" result="BackgroundImageFix"/>
<feColorMatrix in="SourceAlpha" type="matrix" values="0 0 0 0 0 0 0 0 0 0 0 0 0 0 0 0 0 0 127 0" result="hardAlpha"/>
<feOffset dy="4"/>
<feGaussianBlur stdDeviation="2"/>
<feComposite in2="hardAlpha" operator="out"/>
<feColorMatrix type="matrix" values="0 0 0 0 1 0 0 0 0 1 0 0 0 0 1 0 0 0 0.15 0"/>
<feBlend mode="normal" in2="BackgroundImageFix" result="effect1_dropShadow_258_104"/>
<feBlend mode="normal" in="SourceGraphic" in2="effect1_dropShadow_258_104" result="shape"/>
</filter>
<filter id="filter10_d_258_104" x="197.4" y="299.4" width="22.06" height="22.0601" filterUnits="userSpaceOnUse" color-interpolation-filters="sRGB">
<feFlood flood-opacity="0" result="BackgroundImageFix"/>
<feColorMatrix in="SourceAlpha" type="matrix" values="0 0 0 0 0 0 0 0 0 0 0 0 0 0 0 0 0 0 127 0" result="hardAlpha"/>
<feOffset dy="4"/>
<feGaussianBlur stdDeviation="2"/>
<feComposite in2="hardAlpha" operator="out"/>
<feColorMatrix type="matrix" values="0 0 0 0 1 0 0 0 0 1 0 0 0 0 1 0 0 0 0.15 0"/>
<feBlend mode="normal" in2="BackgroundImageFix" result="effect1_dropShadow_258_104"/>
<feBlend mode="normal" in="SourceGraphic" in2="effect1_dropShadow_258_104" result="shape"/>
</filter>
<filter id="filter11_d_258_104" x="105.4" y="17.3997" width="22.06" height="22.0601" filterUnits="userSpaceOnUse" color-interpolation-filters="sRGB">
<feFlood flood-opacity="0" result="BackgroundImageFix"/>
<feColorMatrix in="SourceAlpha" type="matrix" values="0 0 0 0 0 0 0 0 0 0 0 0 0 0 0 0 0 0 127 0" result="hardAlpha"/>
<feOffset dy="4"/>
<feGaussianBlur stdDeviation="2"/>
<feComposite in2="hardAlpha" operator="out"/>
<feColorMatrix type="matrix" values="0 0 0 0 1 0 0 0 0 1 0 0 0 0 1 0 0 0 0.15 0"/>
<feBlend mode="normal" in2="BackgroundImageFix" result="effect1_dropShadow_258_104"/>
<feBlend mode="normal" in="SourceGraphic" in2="effect1_dropShadow_258_104" result="shape"/>
</filter>
<filter id="filter12_d_258_104" x="303" y="331" width="28.2721" height="28.3203" filterUnits="userSpaceOnUse" color-interpolation-filters="sRGB">
<feFlood flood-opacity="0" result="BackgroundImageFix"/>
<feColorMatrix in="SourceAlpha" type="matrix" values="0 0 0 0 0 0 0 0 0 0 0 0 0 0 0 0 0 0 127 0" result="hardAlpha"/>
<feOffset dy="4"/>
<feGaussianBlur stdDeviation="2"/>
<feComposite in2="hardAlpha" operator="out"/>
<feColorMatrix type="matrix" values="0 0 0 0 1 0 0 0 0 1 0 0 0 0 1 0 0 0 0.15 0"/>
<feBlend mode="normal" in2="BackgroundImageFix" result="effect1_dropShadow_258_104"/>
<feBlend mode="normal" in="SourceGraphic" in2="effect1_dropShadow_258_104" result="shape"/>
</filter>
<filter id="filter13_d_258_104" x="200" y="205" width="28.2721" height="28.3203" filterUnits="userSpaceOnUse" color-interpolation-filters="sRGB">
<feFlood flood-opacity="0" result="BackgroundImageFix"/>
<feColorMatrix in="SourceAlpha" type="matrix" values="0 0 0 0 0 0 0 0 0 0 0 0 0 0 0 0 0 0 127 0" result="hardAlpha"/>
<feOffset dy="4"/>
<feGaussianBlur stdDeviation="2"/>
<feComposite in2="hardAlpha" operator="out"/>
<feColorMatrix type="matrix" values="0 0 0 0 1 0 0 0 0 1 0 0 0 0 1 0 0 0 0.15 0"/>
<feBlend mode="normal" in2="BackgroundImageFix" result="effect1_dropShadow_258_104"/>
<feBlend mode="normal" in="SourceGraphic" in2="effect1_dropShadow_258_104" result="shape"/>
</filter>
<filter id="filter14_d_258_104" x="395.432" y="49.7988" width="119.265" height="119.561" filterUnits="userSpaceOnUse" color-interpolation-filters="sRGB">
<feFlood flood-opacity="0" result="BackgroundImageFix"/>
<feColorMatrix in="SourceAlpha" type="matrix" values="0 0 0 0 0 0 0 0 0 0 0 0 0 0 0 0 0 0 127 0" result="hardAlpha"/>
<feOffset dy="4"/>
<feGaussianBlur stdDeviation="5"/>
<feComposite in2="hardAlpha" operator="out"/>
<feColorMatrix type="matrix" values="0 0 0 0 1 0 0 0 0 1 0 0 0 0 1 0 0 0 0.15 0"/>
<feBlend mode="normal" in2="BackgroundImageFix" result="effect1_dropShadow_258_104"/>
<feBlend mode="normal" in="SourceGraphic" in2="effect1_dropShadow_258_104" result="shape"/>
</filter>
<filter id="filter15_d_258_104" x="510.922" y="206.909" width="119.265" height="119.561" filterUnits="userSpaceOnUse" color-interpolation-filters="sRGB">
<feFlood flood-opacity="0" result="BackgroundImageFix"/>
<feColorMatrix in="SourceAlpha" type="matrix" values="0 0 0 0 0 0 0 0 0 0 0 0 0 0 0 0 0 0 127 0" result="hardAlpha"/>
<feOffset dy="4"/>
<feGaussianBlur stdDeviation="5"/>
<feComposite in2="hardAlpha" operator="out"/>
<feColorMatrix type="matrix" values="0 0 0 0 1 0 0 0 0 1 0 0 0 0 1 0 0 0 0.15 0"/>
<feBlend mode="normal" in2="BackgroundImageFix" result="effect1_dropShadow_258_104"/>
<feBlend mode="normal" in="SourceGraphic" in2="effect1_dropShadow_258_104" result="shape"/>
</filter>
<filter id="filter16_d_258_104" x="352.922" y="195.91" width="119.265" height="119.561" filterUnits="userSpaceOnUse" color-interpolation-filters="sRGB">
<feFlood flood-opacity="0" result="BackgroundImageFix"/>
<feColorMatrix in="SourceAlpha" type="matrix" values="0 0 0 0 0 0 0 0 0 0 0 0 0 0 0 0 0 0 127 0" result="hardAlpha"/>
<feOffset dy="4"/>
<feGaussianBlur stdDeviation="5"/>
<feComposite in2="hardAlpha" operator="out"/>
<feColorMatrix type="matrix" values="0 0 0 0 1 0 0 0 0 1 0 0 0 0 1 0 0 0 0.15 0"/>
<feBlend mode="normal" in2="BackgroundImageFix" result="effect1_dropShadow_258_104"/>
<feBlend mode="normal" in="SourceGraphic" in2="effect1_dropShadow_258_104" result="shape"/>
</filter>
<filter id="filter17_d_258_104" x="333.861" y="64.509" width="50.827" height="50.7124" filterUnits="userSpaceOnUse" color-interpolation-filters="sRGB">
<feFlood flood-opacity="0" result="BackgroundImageFix"/>
<feColorMatrix in="SourceAlpha" type="matrix" values="0 0 0 0 0 0 0 0 0 0 0 0 0 0 0 0 0 0 127 0" result="hardAlpha"/>
<feOffset dy="4"/>
<feGaussianBlur stdDeviation="5"/>
<feComposite in2="hardAlpha" operator="out"/>
<feColorMatrix type="matrix" values="0 0 0 0 1 0 0 0 0 1 0 0 0 0 1 0 0 0 0.15 0"/>
<feBlend mode="normal" in2="BackgroundImageFix" result="effect1_dropShadow_258_104"/>
<feBlend mode="normal" in="SourceGraphic" in2="effect1_dropShadow_258_104" result="shape"/>
</filter>
<filter id="filter18_d_258_104" x="399.958" y="0.945801" width="52.1949" height="52.2856" filterUnits="userSpaceOnUse" color-interpolation-filters="sRGB">
<feFlood flood-opacity="0" result="BackgroundImageFix"/>
<feColorMatrix in="SourceAlpha" type="matrix" values="0 0 0 0 0 0 0 0 0 0 0 0 0 0 0 0 0 0 127 0" result="hardAlpha"/>
<feOffset dy="4"/>
<feGaussianBlur stdDeviation="5"/>
<feComposite in2="hardAlpha" operator="out"/>
<feColorMatrix type="matrix" values="0 0 0 0 1 0 0 0 0 1 0 0 0 0 1 0 0 0 0.15 0"/>
<feBlend mode="normal" in2="BackgroundImageFix" result="effect1_dropShadow_258_104"/>
<feBlend mode="normal" in="SourceGraphic" in2="effect1_dropShadow_258_104" result="shape"/>
</filter>
<filter id="filter19_d_258_104" x="563.445" y="160.439" width="50.9652" height="51.0762" filterUnits="userSpaceOnUse" color-interpolation-filters="sRGB">
<feFlood flood-opacity="0" result="BackgroundImageFix"/>
<feColorMatrix in="SourceAlpha" type="matrix" values="0 0 0 0 0 0 0 0 0 0 0 0 0 0 0 0 0 0 127 0" result="hardAlpha"/>
<feOffset dy="4"/>
<feGaussianBlur stdDeviation="5"/>
<feComposite in2="hardAlpha" operator="out"/>
<feColorMatrix type="matrix" values="0 0 0 0 1 0 0 0 0 1 0 0 0 0 1 0 0 0 0.15 0"/>
<feBlend mode="normal" in2="BackgroundImageFix" result="effect1_dropShadow_258_104"/>
<feBlend mode="normal" in="SourceGraphic" in2="effect1_dropShadow_258_104" result="shape"/>
</filter>
</defs>
</svg>
