<svg width="1355" height="1050" viewBox="0 0 1355 1050" fill="none" xmlns="http://www.w3.org/2000/svg">
<path d="M1093 693.517C1093 707.041 1082.04 718 1068.52 718C1054.96 718 1044 707.041 1044 693.517C1044 679.959 1054.96 669 1068.52 669C1082.04 669 1093 679.959 1093 693.517Z" fill="#E1F5F7"/>
<path d="M431.958 716.964C429.786 716.964 428 715.178 428 712.958C428 710.786 429.786 709 431.958 709C434.178 709 435.964 710.786 435.964 712.958C435.964 715.178 434.178 716.964 431.958 716.964Z" fill="white"/>
<path d="M431.958 738.25C429.786 738.25 428 736.464 428 734.244C428 732.072 429.786 730.286 431.958 730.286C434.178 730.286 435.964 732.072 435.964 734.244C435.964 736.464 434.178 738.25 431.958 738.25Z" fill="white"/>
<path d="M431.958 761.611C429.786 761.611 428 759.825 428 757.653C428 755.433 429.786 753.647 431.958 753.647C434.178 753.647 435.964 755.433 435.964 757.653C435.964 759.825 434.178 761.611 431.958 761.611Z" fill="white"/>
<g filter="url(#filter0_d_163_2)">
<path d="M928.958 740.964C926.738 740.964 925 739.178 925 737.006C925 734.786 926.738 733 928.958 733C931.13 733 932.916 734.786 932.916 737.006C932.916 739.178 931.13 740.964 928.958 740.964Z" fill="white"/>
<path d="M928.958 762.25C926.738 762.25 925 760.464 925 758.292C925 756.072 926.738 754.286 928.958 754.286C931.13 754.286 932.916 756.072 932.916 758.292C932.916 760.464 931.13 762.25 928.958 762.25Z" fill="white"/>
<path d="M928.958 785.611C926.738 785.611 925 783.825 925 781.653C925 779.433 926.738 777.695 928.958 777.695C931.13 777.695 932.916 779.433 932.916 781.653C932.916 783.825 931.13 785.611 928.958 785.611Z" fill="white"/>
</g>
<path d="M775.647 840.006C775.647 837.786 777.433 836 779.605 836C781.825 836 783.563 837.786 783.563 840.006C783.563 842.178 781.825 843.964 779.605 843.964C777.433 843.964 775.647 842.178 775.647 840.006Z" fill="white"/>
<path d="M754.361 840.006C754.361 837.786 756.147 836 758.319 836C760.539 836 762.277 837.786 762.277 840.006C762.277 842.178 760.539 843.964 758.319 843.964C756.147 843.964 754.361 842.178 754.361 840.006Z" fill="white"/>
<path d="M731 840.006C731 837.786 732.786 836 734.958 836C737.13 836 738.916 837.786 738.916 840.006C738.916 842.178 737.13 843.964 734.958 843.964C732.786 843.964 731 842.178 731 840.006Z" fill="white"/>
<path d="M1157.65 366.006C1157.65 363.786 1159.43 362 1161.6 362C1163.83 362 1165.56 363.786 1165.56 366.006C1165.56 368.178 1163.83 369.964 1161.6 369.964C1159.43 369.964 1157.65 368.178 1157.65 366.006Z" fill="white"/>
<path d="M1136.36 366.006C1136.36 363.786 1138.15 362 1140.32 362C1142.54 362 1144.28 363.786 1144.28 366.006C1144.28 368.178 1142.54 369.964 1140.32 369.964C1138.15 369.964 1136.36 368.178 1136.36 366.006Z" fill="white"/>
<path d="M1113 366.006C1113 363.786 1114.79 362 1116.96 362C1119.13 362 1120.92 363.786 1120.92 366.006C1120.92 368.178 1119.13 369.964 1116.96 369.964C1114.79 369.964 1113 368.178 1113 366.006Z" fill="white"/>
<g filter="url(#filter1_d_163_2)">
<path d="M14.9684 102.652C17.1887 102.655 18.9722 104.444 18.9693 106.616C18.9664 108.836 17.1782 110.571 14.9579 110.568C12.7859 110.565 11.0024 108.825 11.0053 106.605C11.0082 104.433 12.7964 102.65 14.9684 102.652Z" fill="white"/>
<path d="M14.9965 81.3668C17.2168 81.3697 19.0003 83.1579 18.9975 85.33C18.9945 87.5502 17.2064 89.2855 14.9861 89.2825C12.8141 89.2797 11.0305 87.5397 11.0334 85.3194C11.0363 83.1474 12.8245 81.3639 14.9965 81.3668Z" fill="white"/>
<path d="M15.0274 58.0054C17.2476 58.0084 19.0311 59.7966 19.0283 61.9686C19.0254 64.1406 17.2372 65.9241 15.0169 65.9212C12.8449 65.9183 11.0614 64.1301 11.0643 61.9581C11.0671 59.7861 12.8554 58.0026 15.0274 58.0054Z" fill="white"/>
</g>
<g filter="url(#filter2_d_163_2)">
<path d="M134.916 610.964C134.917 613.184 133.131 614.97 130.959 614.97C128.739 614.971 127.001 613.185 127.001 610.965C127 608.793 128.738 607.006 130.958 607.006C133.13 607.006 134.916 608.792 134.916 610.964Z" fill="white"/>
<path d="M156.202 610.961C156.202 613.181 154.417 614.967 152.245 614.967C150.024 614.968 148.286 613.182 148.286 610.962C148.286 608.79 150.023 607.004 152.244 607.003C154.416 607.003 156.202 608.789 156.202 610.961Z" fill="white"/>
<path d="M179.563 610.958C179.563 613.178 177.778 614.964 175.606 614.964C173.434 614.965 171.648 613.179 171.647 610.959C171.647 608.787 173.433 607.001 175.605 607C177.777 607 179.563 608.786 179.563 610.958Z" fill="white"/>
</g>
<path d="M1298.7 127.958C1298.7 125.786 1300.43 124 1302.65 124C1304.82 124 1306.61 125.786 1306.61 127.958C1306.61 130.178 1304.82 131.964 1302.65 131.964C1300.43 131.964 1298.7 130.178 1298.7 127.958Z" fill="white"/>
<path d="M1347 267.958C1347 265.786 1348.74 264 1350.96 264C1353.13 264 1354.92 265.786 1354.92 267.958C1354.92 270.178 1353.13 271.964 1350.96 271.964C1348.74 271.964 1347 270.178 1347 267.958Z" fill="white"/>
<path d="M1347 284.958C1347 282.786 1348.74 281 1350.96 281C1353.13 281 1354.92 282.786 1354.92 284.958C1354.92 287.178 1353.13 288.964 1350.96 288.964C1348.74 288.964 1347 287.178 1347 284.958Z" fill="white"/>
<path d="M1347 301.958C1347 299.786 1348.74 298 1350.96 298C1353.13 298 1354.92 299.786 1354.92 301.958C1354.92 304.178 1353.13 305.964 1350.96 305.964C1348.74 305.964 1347 304.178 1347 301.958Z" fill="white"/>
<path d="M1277.41 127.958C1277.41 125.786 1279.15 124 1281.37 124C1283.54 124 1285.33 125.786 1285.33 127.958C1285.33 130.178 1283.54 131.964 1281.37 131.964C1279.15 131.964 1277.41 130.178 1277.41 127.958Z" fill="white"/>
<path d="M1254 127.958C1254 125.786 1255.79 124 1258.01 124C1260.18 124 1261.96 125.786 1261.96 127.958C1261.96 130.178 1260.18 131.964 1258.01 131.964C1255.79 131.964 1254 130.178 1254 127.958Z" fill="white"/>
<g filter="url(#filter3_d_163_2)">
<path d="M176.688 795.344C176.688 797.709 174.757 799.688 172.344 799.688C169.931 799.688 168 797.709 168 795.344C168 792.931 169.931 791 172.344 791C174.757 791 176.688 792.931 176.688 795.344Z" stroke="white" stroke-width="3.5" stroke-linecap="round" stroke-linejoin="round" shape-rendering="crispEdges"/>
</g>
<g filter="url(#filter4_d_163_2)">
<path d="M328.007 502.4C328.104 499.842 330.228 497.863 332.786 498.007C335.344 498.104 337.323 500.228 337.178 502.786C337.082 505.344 334.958 507.323 332.4 507.178C329.842 507.082 327.863 504.958 328.007 502.4Z" stroke="white" stroke-width="3.7" stroke-linecap="round" stroke-linejoin="round" shape-rendering="crispEdges"/>
</g>
<g filter="url(#filter5_d_163_2)">
<path d="M246.007 312.4C246.104 309.842 248.228 307.863 250.786 308.007C253.344 308.104 255.323 310.228 255.178 312.786C255.082 315.344 252.958 317.323 250.4 317.178C247.842 317.082 245.863 314.958 246.007 312.4Z" stroke="white" stroke-width="3.7" stroke-linecap="round" stroke-linejoin="round" shape-rendering="crispEdges"/>
</g>
<path fill-rule="evenodd" clip-rule="evenodd" d="M137.544 488.71C137.544 491.413 135.275 493.633 132.476 493.633H126.587C125.863 498.074 124.126 502.176 121.567 505.748L125.477 509.706C127.408 511.637 127.359 514.726 125.332 516.608C124.367 517.525 123.112 517.96 121.857 517.96C120.554 517.96 119.202 517.477 118.237 516.463L114.424 512.65C111.045 514.967 107.087 516.608 102.792 517.332V522.545C102.792 525.248 100.523 527.42 97.7719 527.42C94.9724 527.42 92.7521 525.248 92.7521 522.545V517.332C88.4564 516.608 84.5468 514.967 81.1198 512.65L77.3067 516.463C76.3414 517.477 74.9899 517.96 73.6867 517.96C72.4318 517.96 71.1768 517.525 70.2115 516.608C68.1843 514.726 68.136 511.637 70.0667 509.706L73.9763 505.748C71.4182 502.176 69.6806 498.074 69.0048 493.633H63.068C60.2685 493.633 58 491.413 58 488.71C58 486.007 60.2685 483.835 63.068 483.835H69.2462C70.115 479.588 71.9491 475.678 74.5555 472.348L70.0667 467.762C68.136 465.832 68.1843 462.694 70.2115 460.812C72.1905 458.978 75.3761 459.026 77.3067 460.957L81.9404 465.638C85.1742 463.611 88.8425 462.163 92.7521 461.536V454.923C92.7521 452.22 94.9724 450 97.7719 450C100.523 450 102.792 452.22 102.792 454.923V461.536C106.701 462.163 110.37 463.611 113.603 465.638L118.237 460.957C120.168 459.026 123.353 458.978 125.332 460.812C127.359 462.694 127.408 465.832 125.477 467.762L120.988 472.348C123.546 475.678 125.429 479.588 126.298 483.835H132.476C135.275 483.835 137.544 486.007 137.544 488.71ZM110.563 488.951C110.563 481.856 104.674 476.112 97.434 476.112C90.1457 476.112 84.2572 481.856 84.2572 488.951C84.2572 496.047 90.1457 501.79 97.434 501.79C104.674 501.79 110.563 496.047 110.563 488.951Z" fill="#C6C3FC"/>
<path d="M104.964 489.048C104.964 492.909 101.778 496.047 97.7719 496.047C93.814 496.047 90.6284 492.909 90.6284 489.048C90.6284 485.187 93.814 482.098 97.7719 482.098C101.778 482.098 104.964 485.187 104.964 489.048Z" stroke="white" stroke-width="3" stroke-miterlimit="10"/>
<path d="M120.699 489.048C120.699 501.356 110.466 511.347 97.7719 511.347C85.126 511.347 74.8934 501.356 74.8934 489.048C74.8934 476.74 85.126 466.749 97.7719 466.749C110.466 466.749 120.699 476.74 120.699 489.048Z" stroke="white" stroke-width="3" stroke-miterlimit="10"/>
<path fill-rule="evenodd" clip-rule="evenodd" d="M1075.99 224C1075.99 225.257 1074.93 226.289 1073.63 226.289H1070.89C1070.56 228.354 1069.75 230.262 1068.56 231.923L1070.38 233.763C1071.27 234.661 1071.25 236.097 1070.31 236.973C1069.86 237.399 1069.28 237.601 1068.69 237.601C1068.09 237.601 1067.46 237.377 1067.01 236.905L1065.24 235.132C1063.67 236.209 1061.83 236.973 1059.83 237.309V239.733C1059.83 240.99 1058.77 242 1057.49 242C1056.19 242 1055.16 240.99 1055.16 239.733V237.309C1053.16 236.973 1051.34 236.209 1049.75 235.132L1047.98 236.905C1047.53 237.377 1046.9 237.601 1046.29 237.601C1045.71 237.601 1045.13 237.399 1044.68 236.973C1043.74 236.097 1043.71 234.661 1044.61 233.763L1046.43 231.923C1045.24 230.262 1044.43 228.354 1044.12 226.289H1041.36C1040.05 226.289 1039 225.257 1039 224C1039 222.743 1040.05 221.733 1041.36 221.733H1044.23C1044.63 219.758 1045.49 217.94 1046.7 216.392L1044.61 214.259C1043.71 213.362 1043.74 211.903 1044.68 211.027C1045.6 210.175 1047.08 210.197 1047.98 211.095L1050.13 213.272C1051.64 212.329 1053.34 211.656 1055.16 211.364V208.289C1055.16 207.032 1056.19 206 1057.49 206C1058.77 206 1059.83 207.032 1059.83 208.289V211.364C1061.65 211.656 1063.35 212.329 1064.86 213.272L1067.01 211.095C1067.91 210.197 1069.39 210.175 1070.31 211.027C1071.25 211.903 1071.27 213.362 1070.38 214.259L1068.29 216.392C1069.48 217.94 1070.35 219.758 1070.76 221.733H1073.63C1074.93 221.733 1075.99 222.743 1075.99 224ZM1063.44 224.112C1063.44 220.813 1060.7 218.142 1057.34 218.142C1053.95 218.142 1051.21 220.813 1051.21 224.112C1051.21 227.411 1053.95 230.082 1057.34 230.082C1060.7 230.082 1063.44 227.411 1063.44 224.112Z" fill="#C6C3FC"/>
<path d="M1060.84 224.157C1060.84 225.953 1059.36 227.412 1057.49 227.412C1055.65 227.412 1054.17 225.953 1054.17 224.157C1054.17 222.362 1055.65 220.925 1057.49 220.925C1059.36 220.925 1060.84 222.362 1060.84 224.157Z" stroke="white" stroke-width="3" stroke-miterlimit="10"/>
<path d="M1068.15 224.157C1068.15 229.88 1063.4 234.526 1057.49 234.526C1051.61 234.526 1046.86 229.88 1046.86 224.157C1046.86 218.434 1051.61 213.788 1057.49 213.788C1063.4 213.788 1068.15 218.434 1068.15 224.157Z" stroke="white" stroke-width="3" stroke-miterlimit="10"/>
<path fill-rule="evenodd" clip-rule="evenodd" d="M1332.07 817.382C1332.07 819.265 1330.58 820.761 1328.69 820.761H1324.74C1324.3 823.802 1323.1 826.649 1321.41 829.063L1324.01 831.814C1325.32 833.165 1325.27 835.289 1323.92 836.544C1323.24 837.22 1322.42 837.509 1321.6 837.509C1320.68 837.509 1319.81 837.172 1319.14 836.496L1316.63 833.841C1314.31 835.434 1311.7 836.544 1308.81 837.075V840.647C1308.81 842.481 1307.31 844.025 1305.48 844.025C1303.6 844.025 1302.1 842.481 1302.1 840.647V837.075C1299.25 836.544 1296.6 835.434 1294.28 833.841L1291.77 836.496C1291.09 837.172 1290.23 837.509 1289.31 837.509C1288.49 837.509 1287.67 837.22 1286.99 836.544C1285.64 835.289 1285.64 833.165 1286.9 831.814L1289.55 829.063C1287.81 826.649 1286.65 823.802 1286.17 820.761H1282.21C1280.33 820.761 1278.83 819.265 1278.83 817.382C1278.83 815.548 1280.33 814.003 1282.21 814.003H1286.36C1286.94 811.107 1288.2 808.404 1289.94 806.088L1286.9 802.95C1285.64 801.647 1285.64 799.475 1286.99 798.22C1288.34 796.917 1290.47 796.965 1291.77 798.317L1294.86 801.502C1297.03 800.103 1299.44 799.137 1302.1 798.655V794.118C1302.1 792.283 1303.6 790.787 1305.48 790.787C1307.31 790.787 1308.81 792.283 1308.81 794.118V798.655C1311.46 799.137 1313.88 800.103 1316.05 801.502L1319.14 798.317C1320.44 796.965 1322.56 796.917 1323.92 798.22C1325.27 799.475 1325.32 801.647 1324.01 802.95L1320.97 806.088C1322.71 808.404 1323.96 811.107 1324.54 814.003H1328.69C1330.58 814.003 1332.07 815.548 1332.07 817.382ZM1314.02 817.527C1314.02 812.652 1310.11 808.742 1305.24 808.742C1300.36 808.742 1296.4 812.652 1296.4 817.527C1296.4 822.402 1300.36 826.36 1305.24 826.36C1310.11 826.36 1314.02 822.402 1314.02 817.527Z" fill="#8383DD"/>
<path d="M1310.26 817.624C1310.26 820.278 1308.13 822.402 1305.48 822.402C1302.82 822.402 1300.65 820.278 1300.65 817.624C1300.65 814.969 1302.82 812.797 1305.48 812.797C1308.13 812.797 1310.26 814.969 1310.26 817.624Z" stroke="white" stroke-width="2.1" stroke-miterlimit="10"/>
<path d="M1316.63 817.623C1316.63 823.753 1311.61 828.773 1305.48 828.773C1299.3 828.773 1294.33 823.753 1294.33 817.623C1294.33 811.445 1299.3 806.474 1305.48 806.474C1311.61 806.474 1316.63 811.445 1316.63 817.623Z" stroke="white" stroke-width="2.1" stroke-miterlimit="10"/>
<path fill-rule="evenodd" clip-rule="evenodd" d="M857 768.983C857 770.326 855.932 771.394 854.588 771.394H851.763C851.453 773.565 850.592 775.597 849.386 777.32L851.247 779.284C852.177 780.248 852.142 781.764 851.178 782.66C850.695 783.142 850.11 783.349 849.524 783.349C848.869 783.349 848.249 783.108 847.767 782.626L845.976 780.731C844.322 781.868 842.461 782.66 840.394 783.039V785.588C840.394 786.898 839.326 788 838.017 788C836.674 788 835.606 786.898 835.606 785.588V783.039C833.573 782.66 831.678 781.868 830.024 780.731L828.233 782.626C827.751 783.108 827.131 783.349 826.476 783.349C825.89 783.349 825.305 783.142 824.822 782.66C823.858 781.764 823.858 780.248 824.753 779.284L826.648 777.32C825.408 775.597 824.581 773.565 824.237 771.394H821.412C820.068 771.394 819 770.326 819 768.983C819 767.674 820.068 766.571 821.412 766.571H824.374C824.788 764.504 825.684 762.575 826.924 760.921L824.753 758.682C823.858 757.752 823.858 756.201 824.822 755.306C825.787 754.375 827.303 754.41 828.233 755.374L830.438 757.648C831.988 756.649 833.711 755.96 835.606 755.616V752.377C835.606 751.068 836.674 750 838.017 750C839.326 750 840.394 751.068 840.394 752.377V755.616C842.289 755.96 844.012 756.649 845.562 757.648L847.767 755.374C848.697 754.41 850.213 754.375 851.178 755.306C852.142 756.201 852.177 757.752 851.247 758.682L849.076 760.921C850.316 762.575 851.212 764.504 851.626 766.571H854.588C855.932 766.571 857 767.674 857 768.983ZM844.115 769.086C844.115 765.607 841.325 762.816 837.845 762.816C834.365 762.816 831.54 765.607 831.54 769.086C831.54 772.566 834.365 775.391 837.845 775.391C841.325 775.391 844.115 772.566 844.115 769.086Z" fill="#8383DD"/>
<path d="M841 769.518C841 771.452 839.673 773 838.015 773C836.357 773 835 771.452 835 769.518C835 767.583 836.357 766 838.015 766C839.673 766 841 767.583 841 769.518Z" stroke="white" stroke-width="2.1" stroke-miterlimit="10"/>
<path d="M846 769C846 773.398 842.398 777 838 777C833.567 777 830 773.398 830 769C830 764.567 833.567 761 838 761C842.398 761 846 764.567 846 769Z" stroke="white" stroke-width="2.1" stroke-miterlimit="10"/>
<g filter="url(#filter6_d_163_2)">
<path d="M137.86 132.454C137.86 135.447 135.398 137.86 132.406 137.86C129.413 137.86 127 135.447 127 132.454C127 129.462 129.413 127 132.406 127C135.398 127 137.86 129.462 137.86 132.454Z" stroke="white" stroke-width="3.2" stroke-linecap="round" stroke-linejoin="round" shape-rendering="crispEdges"/>
</g>
<g filter="url(#filter7_d_163_2)">
<path d="M627.86 800.454C627.86 803.447 625.398 805.86 622.406 805.86C619.413 805.86 617 803.447 617 800.454C617 797.462 619.413 795 622.406 795C625.398 795 627.86 797.462 627.86 800.454Z" stroke="white" stroke-width="3.2" stroke-linecap="round" stroke-linejoin="round" shape-rendering="crispEdges"/>
</g>
<path d="M940.24 245.62C940.24 247.599 938.647 249.24 936.62 249.24C934.641 249.24 933 247.599 933 245.62C933 243.593 934.641 242 936.62 242C938.647 242 940.24 243.593 940.24 245.62Z" stroke="white" stroke-width="3.2" stroke-linecap="round" stroke-linejoin="round"/>
<path d="M1219.24 510.62C1219.24 512.599 1217.65 514.24 1215.62 514.24C1213.64 514.24 1212 512.599 1212 510.62C1212 508.593 1213.64 507 1215.62 507C1217.65 507 1219.24 508.593 1219.24 510.62Z" stroke="white" stroke-width="3.2" stroke-linecap="round" stroke-linejoin="round"/>
<path d="M924.62 531.786C924.62 532.799 923.799 533.62 922.786 533.62C921.772 533.62 921 532.799 921 531.786C921 530.821 921.772 530 922.786 530C923.799 530 924.62 530.821 924.62 531.786Z" stroke="white" stroke-width="3.2" stroke-linecap="round" stroke-linejoin="round"/>
<g filter="url(#filter8_d_163_2)">
<path d="M57.86 307.406C57.86 310.447 55.4467 312.86 52.4541 312.86C49.4616 312.86 47 310.447 47 307.406C47 304.413 49.4616 302 52.4541 302C55.4467 302 57.86 304.413 57.86 307.406Z" stroke="white" stroke-width="3.2" stroke-linecap="round" stroke-linejoin="round" shape-rendering="crispEdges"/>
</g>
<path d="M976.62 732.786C976.62 733.799 975.799 734.62 974.786 734.62C973.821 734.62 973 733.799 973 732.786C973 731.772 973.821 731 974.786 731C975.799 731 976.62 731.772 976.62 732.786Z" stroke="white" stroke-width="3.2" stroke-linecap="round" stroke-linejoin="round"/>
<path d="M403.964 832.006C403.964 834.178 402.178 835.964 400.006 835.964C397.786 835.964 396 834.178 396 832.006C396 829.786 397.786 828 400.006 828C402.178 828 403.964 829.786 403.964 832.006Z" stroke="white" stroke-width="3.2" stroke-linecap="round" stroke-linejoin="round"/>
<path d="M320.964 790.006C320.964 792.178 319.178 793.964 317.006 793.964C314.786 793.964 313 792.178 313 790.006C313 787.786 314.786 786 317.006 786C319.178 786 320.964 787.786 320.964 790.006Z" stroke="white" stroke-width="3.2" stroke-linecap="round" stroke-linejoin="round"/>
<path d="M1256.96 787.006C1256.96 789.178 1255.18 790.964 1253.01 790.964C1250.79 790.964 1249 789.178 1249 787.006C1249 784.786 1250.79 783 1253.01 783C1255.18 783 1256.96 784.786 1256.96 787.006Z" stroke="white" stroke-width="3.2" stroke-linecap="round" stroke-linejoin="round"/>
<path d="M398.792 368.896C398.792 370.489 397.537 371.792 395.896 371.792C394.303 371.792 393 370.489 393 368.896C393 367.303 394.303 366 395.896 366C397.537 366 398.792 367.303 398.792 368.896Z" stroke="white" stroke-width="3.2" stroke-linecap="round" stroke-linejoin="round"/>
<path d="M1137.79 784.896C1137.79 786.489 1136.49 787.792 1134.9 787.792C1133.3 787.792 1132 786.489 1132 784.896C1132 783.303 1133.3 782 1134.9 782C1136.49 782 1137.79 783.303 1137.79 784.896Z" stroke="white" stroke-width="3.2" stroke-linecap="round" stroke-linejoin="round"/>
<path d="M7.79202 561.896C7.79202 563.537 6.48882 564.84 4.89601 564.84C3.3032 564.84 2 563.537 2 561.896C2 560.303 3.3032 559 4.89601 559C6.48882 559 7.79202 560.303 7.79202 561.896Z" stroke="white" stroke-width="3.2" stroke-linecap="round" stroke-linejoin="round"/>
<path d="M456.792 593.896C456.792 595.537 455.489 596.84 453.896 596.84C452.303 596.84 451 595.537 451 593.896C451 592.303 452.303 591 453.896 591C455.489 591 456.792 592.303 456.792 593.896Z" stroke="white" stroke-width="3.2" stroke-linecap="round" stroke-linejoin="round"/>
<path d="M1093.52 558.234C1093.52 560.02 1092.07 561.516 1090.28 561.516C1088.45 561.516 1087 560.02 1087 558.234C1087 556.448 1088.45 555 1090.28 555C1092.07 555 1093.52 556.448 1093.52 558.234Z" stroke="white" stroke-width="3.2" stroke-linecap="round" stroke-linejoin="round"/>
<path d="M1337.07 564.558C1337.07 565.958 1335.96 567.068 1334.56 567.068C1333.16 567.068 1332 565.958 1332 564.558C1332 563.158 1333.16 562 1334.56 562C1335.96 562 1337.07 563.158 1337.07 564.558Z" stroke="white" stroke-width="3.2" stroke-linecap="round" stroke-linejoin="round"/>
<path d="M1190.12 232.558C1190.12 233.958 1188.96 235.068 1187.56 235.068C1186.16 235.068 1185 233.958 1185 232.558C1185 231.158 1186.16 230 1187.56 230C1188.96 230 1190.12 231.158 1190.12 232.558Z" stroke="white" stroke-width="3.2" stroke-linecap="round" stroke-linejoin="round"/>
<path d="M1318.63 436.792C1318.63 439.978 1316.03 442.584 1312.79 442.584C1309.61 442.584 1307 439.978 1307 436.792C1307 433.606 1309.61 431 1312.79 431C1316.03 431 1318.63 433.606 1318.63 436.792Z" stroke="white" stroke-width="3.2" stroke-linecap="round" stroke-linejoin="round"/>
<path d="M1237.63 661.792C1237.63 664.978 1235.03 667.584 1231.79 667.584C1228.61 667.584 1226 664.978 1226 661.792C1226 658.606 1228.61 656 1231.79 656C1235.03 656 1237.63 658.606 1237.63 661.792Z" stroke="white" stroke-width="3.2" stroke-linecap="round" stroke-linejoin="round"/>
<path d="M367.819 176L370.57 181.02L375.638 183.771L370.57 186.522L367.819 191.59L365.068 186.522L360 183.771L365.068 181.02L367.819 176Z" fill="#FF9E00"/>
<path d="M148.668 238L150.02 240.365L152.385 241.668L150.02 242.971L148.668 245.385L147.365 242.971L145 241.668L147.365 240.365L148.668 238Z" fill="#FF9E00"/>
<path d="M1156.11 0L1158.96 5.2611L1164.17 8.10882L1158.96 11.0048L1156.11 16.2177L1153.21 11.0048L1148 8.10882L1153.21 5.2611L1156.11 0Z" fill="#FF9E00"/>
<path d="M240.116 76L241.95 79.2822L245.281 81.1163L241.95 82.9022L240.116 86.2326L238.33 82.9022L235 81.1163L238.33 79.2822L240.116 76Z" fill="#FF9E00"/>
<path d="M1036.9 402L1039.32 406.441L1043.76 408.902L1039.32 411.315L1036.9 415.756L1034.44 411.315L1030 408.902L1034.44 406.441L1036.9 402Z" fill="#FF9E00"/>
<path d="M1327.99 678L1329.05 679.931L1330.99 680.993L1329.05 682.054L1327.99 683.985L1326.93 682.054L1325 680.993L1326.93 679.931L1327.99 678Z" fill="#FF9E00"/>
<path d="M260.585 450L262.226 452.944L265.171 454.585L262.226 456.178L260.585 459.171L258.993 456.178L256 454.585L258.993 452.944L260.585 450Z" fill="#FF9E00"/>
<path d="M311.309 374L313.143 377.427L316.57 379.309L313.143 381.144L311.309 384.57L309.427 381.144L306 379.309L309.427 377.427L311.309 374Z" fill="#FF9E00"/>
<path d="M56.1027 802L57.5507 804.655L60.2054 806.103L57.5507 807.551L56.1027 810.205L54.6547 807.551L52 806.103L54.6547 804.655L56.1027 802Z" fill="#FF9E00"/>
<path d="M1161.62 107L1162.87 109.365L1165.24 110.62L1162.87 111.923L1161.62 114.24L1160.32 111.923L1158 110.62L1160.32 109.365L1161.62 107Z" fill="#FF9E00"/>
<path d="M861.634 426L863.275 428.993L866.316 430.634L863.275 432.275L861.634 435.315L859.993 432.275L857 430.634L859.993 428.993L861.634 426Z" fill="#FF9E00"/>
<path d="M101.054 62L102.551 64.6547L105.157 66.1027L102.551 67.5507L101.054 70.2054L99.6064 67.5507L97 66.1027L99.6064 64.6547L101.054 62Z" fill="#FF9E00"/>
<path d="M973.261 615L975.095 618.379L978.522 620.261L975.095 622.143L973.261 625.522L971.379 622.143L968 620.261L971.379 618.379L973.261 615Z" fill="#FF9E00"/>
<path d="M13.9925 329L15.0544 330.931L16.9851 331.993L15.0544 333.054L13.9925 334.985L12.9307 333.054L11 331.993L12.9307 330.931L13.9925 329Z" fill="#FF9E00"/>
<path d="M994.91 158L996.261 160.51L998.771 161.861L996.261 163.261L994.91 165.771L993.51 163.261L991 161.861L993.51 160.51L994.91 158Z" fill="#FF9E00"/>
<g filter="url(#filter9_d_163_2)">
<path d="M265.272 601.184C265.272 606.783 260.735 611.32 255.136 611.32C249.537 611.32 245 606.783 245 601.184C245 595.537 249.537 591 255.136 591C260.735 591 265.272 595.537 265.272 601.184Z" fill="white"/>
</g>
<g filter="url(#filter10_d_163_2)">
<path d="M67.2721 716.184C67.2721 721.783 62.735 726.32 57.136 726.32C51.5371 726.32 47 721.783 47 716.184C47 710.537 51.5371 706 57.136 706C62.735 706 67.2721 710.537 67.2721 716.184Z" fill="white"/>
</g>
<defs>
<filter id="filter0_d_163_2" x="921" y="733" width="15.9157" height="60.6108" filterUnits="userSpaceOnUse" color-interpolation-filters="sRGB">
<feFlood flood-opacity="0" result="BackgroundImageFix"/>
<feColorMatrix in="SourceAlpha" type="matrix" values="0 0 0 0 0 0 0 0 0 0 0 0 0 0 0 0 0 0 127 0" result="hardAlpha"/>
<feOffset dy="4"/>
<feGaussianBlur stdDeviation="2"/>
<feComposite in2="hardAlpha" operator="out"/>
<feColorMatrix type="matrix" values="0 0 0 0 1 0 0 0 0 1 0 0 0 0 1 0 0 0 0.15 0"/>
<feBlend mode="normal" in2="BackgroundImageFix" result="effect1_dropShadow_163_2"/>
<feBlend mode="normal" in="SourceGraphic" in2="effect1_dropShadow_163_2" result="shape"/>
</filter>
<filter id="filter1_d_163_2" x="7.00531" y="58.0054" width="16.0229" height="60.563" filterUnits="userSpaceOnUse" color-interpolation-filters="sRGB">
<feFlood flood-opacity="0" result="BackgroundImageFix"/>
<feColorMatrix in="SourceAlpha" type="matrix" values="0 0 0 0 0 0 0 0 0 0 0 0 0 0 0 0 0 0 127 0" result="hardAlpha"/>
<feOffset dy="4"/>
<feGaussianBlur stdDeviation="2"/>
<feComposite in2="hardAlpha" operator="out"/>
<feColorMatrix type="matrix" values="0 0 0 0 1 0 0 0 0 1 0 0 0 0 1 0 0 0 0.15 0"/>
<feBlend mode="normal" in2="BackgroundImageFix" result="effect1_dropShadow_163_2"/>
<feBlend mode="normal" in="SourceGraphic" in2="effect1_dropShadow_163_2" result="shape"/>
</filter>
<filter id="filter2_d_163_2" x="123" y="607" width="60.5626" height="15.9697" filterUnits="userSpaceOnUse" color-interpolation-filters="sRGB">
<feFlood flood-opacity="0" result="BackgroundImageFix"/>
<feColorMatrix in="SourceAlpha" type="matrix" values="0 0 0 0 0 0 0 0 0 0 0 0 0 0 0 0 0 0 127 0" result="hardAlpha"/>
<feOffset dy="4"/>
<feGaussianBlur stdDeviation="2"/>
<feComposite in2="hardAlpha" operator="out"/>
<feColorMatrix type="matrix" values="0 0 0 0 1 0 0 0 0 1 0 0 0 0 1 0 0 0 0.15 0"/>
<feBlend mode="normal" in2="BackgroundImageFix" result="effect1_dropShadow_163_2"/>
<feBlend mode="normal" in="SourceGraphic" in2="effect1_dropShadow_163_2" result="shape"/>
</filter>
<filter id="filter3_d_163_2" x="162.25" y="789.25" width="20.188" height="20.188" filterUnits="userSpaceOnUse" color-interpolation-filters="sRGB">
<feFlood flood-opacity="0" result="BackgroundImageFix"/>
<feColorMatrix in="SourceAlpha" type="matrix" values="0 0 0 0 0 0 0 0 0 0 0 0 0 0 0 0 0 0 127 0" result="hardAlpha"/>
<feOffset dy="4"/>
<feGaussianBlur stdDeviation="2"/>
<feComposite in2="hardAlpha" operator="out"/>
<feColorMatrix type="matrix" values="0 0 0 0 1 0 0 0 0 1 0 0 0 0 1 0 0 0 0.15 0"/>
<feBlend mode="normal" in2="BackgroundImageFix" result="effect1_dropShadow_163_2"/>
<feBlend mode="normal" in="SourceGraphic" in2="effect1_dropShadow_163_2" result="shape"/>
</filter>
<filter id="filter4_d_163_2" x="322.15" y="496.15" width="20.8858" height="20.8857" filterUnits="userSpaceOnUse" color-interpolation-filters="sRGB">
<feFlood flood-opacity="0" result="BackgroundImageFix"/>
<feColorMatrix in="SourceAlpha" type="matrix" values="0 0 0 0 0 0 0 0 0 0 0 0 0 0 0 0 0 0 127 0" result="hardAlpha"/>
<feOffset dy="4"/>
<feGaussianBlur stdDeviation="2"/>
<feComposite in2="hardAlpha" operator="out"/>
<feColorMatrix type="matrix" values="0 0 0 0 1 0 0 0 0 1 0 0 0 0 1 0 0 0 0.15 0"/>
<feBlend mode="normal" in2="BackgroundImageFix" result="effect1_dropShadow_163_2"/>
<feBlend mode="normal" in="SourceGraphic" in2="effect1_dropShadow_163_2" result="shape"/>
</filter>
<filter id="filter5_d_163_2" x="240.15" y="306.15" width="20.8858" height="20.8857" filterUnits="userSpaceOnUse" color-interpolation-filters="sRGB">
<feFlood flood-opacity="0" result="BackgroundImageFix"/>
<feColorMatrix in="SourceAlpha" type="matrix" values="0 0 0 0 0 0 0 0 0 0 0 0 0 0 0 0 0 0 127 0" result="hardAlpha"/>
<feOffset dy="4"/>
<feGaussianBlur stdDeviation="2"/>
<feComposite in2="hardAlpha" operator="out"/>
<feColorMatrix type="matrix" values="0 0 0 0 1 0 0 0 0 1 0 0 0 0 1 0 0 0 0.15 0"/>
<feBlend mode="normal" in2="BackgroundImageFix" result="effect1_dropShadow_163_2"/>
<feBlend mode="normal" in="SourceGraphic" in2="effect1_dropShadow_163_2" result="shape"/>
</filter>
<filter id="filter6_d_163_2" x="121.4" y="125.4" width="22.06" height="22.0601" filterUnits="userSpaceOnUse" color-interpolation-filters="sRGB">
<feFlood flood-opacity="0" result="BackgroundImageFix"/>
<feColorMatrix in="SourceAlpha" type="matrix" values="0 0 0 0 0 0 0 0 0 0 0 0 0 0 0 0 0 0 127 0" result="hardAlpha"/>
<feOffset dy="4"/>
<feGaussianBlur stdDeviation="2"/>
<feComposite in2="hardAlpha" operator="out"/>
<feColorMatrix type="matrix" values="0 0 0 0 1 0 0 0 0 1 0 0 0 0 1 0 0 0 0.15 0"/>
<feBlend mode="normal" in2="BackgroundImageFix" result="effect1_dropShadow_163_2"/>
<feBlend mode="normal" in="SourceGraphic" in2="effect1_dropShadow_163_2" result="shape"/>
</filter>
<filter id="filter7_d_163_2" x="611.4" y="793.4" width="22.06" height="22.0601" filterUnits="userSpaceOnUse" color-interpolation-filters="sRGB">
<feFlood flood-opacity="0" result="BackgroundImageFix"/>
<feColorMatrix in="SourceAlpha" type="matrix" values="0 0 0 0 0 0 0 0 0 0 0 0 0 0 0 0 0 0 127 0" result="hardAlpha"/>
<feOffset dy="4"/>
<feGaussianBlur stdDeviation="2"/>
<feComposite in2="hardAlpha" operator="out"/>
<feColorMatrix type="matrix" values="0 0 0 0 1 0 0 0 0 1 0 0 0 0 1 0 0 0 0.15 0"/>
<feBlend mode="normal" in2="BackgroundImageFix" result="effect1_dropShadow_163_2"/>
<feBlend mode="normal" in="SourceGraphic" in2="effect1_dropShadow_163_2" result="shape"/>
</filter>
<filter id="filter8_d_163_2" x="41.4" y="300.4" width="22.06" height="22.0601" filterUnits="userSpaceOnUse" color-interpolation-filters="sRGB">
<feFlood flood-opacity="0" result="BackgroundImageFix"/>
<feColorMatrix in="SourceAlpha" type="matrix" values="0 0 0 0 0 0 0 0 0 0 0 0 0 0 0 0 0 0 127 0" result="hardAlpha"/>
<feOffset dy="4"/>
<feGaussianBlur stdDeviation="2"/>
<feComposite in2="hardAlpha" operator="out"/>
<feColorMatrix type="matrix" values="0 0 0 0 1 0 0 0 0 1 0 0 0 0 1 0 0 0 0.15 0"/>
<feBlend mode="normal" in2="BackgroundImageFix" result="effect1_dropShadow_163_2"/>
<feBlend mode="normal" in="SourceGraphic" in2="effect1_dropShadow_163_2" result="shape"/>
</filter>
<filter id="filter9_d_163_2" x="241" y="591" width="28.2721" height="28.3203" filterUnits="userSpaceOnUse" color-interpolation-filters="sRGB">
<feFlood flood-opacity="0" result="BackgroundImageFix"/>
<feColorMatrix in="SourceAlpha" type="matrix" values="0 0 0 0 0 0 0 0 0 0 0 0 0 0 0 0 0 0 127 0" result="hardAlpha"/>
<feOffset dy="4"/>
<feGaussianBlur stdDeviation="2"/>
<feComposite in2="hardAlpha" operator="out"/>
<feColorMatrix type="matrix" values="0 0 0 0 1 0 0 0 0 1 0 0 0 0 1 0 0 0 0.15 0"/>
<feBlend mode="normal" in2="BackgroundImageFix" result="effect1_dropShadow_163_2"/>
<feBlend mode="normal" in="SourceGraphic" in2="effect1_dropShadow_163_2" result="shape"/>
</filter>
<filter id="filter10_d_163_2" x="43" y="706" width="28.2721" height="28.3203" filterUnits="userSpaceOnUse" color-interpolation-filters="sRGB">
<feFlood flood-opacity="0" result="BackgroundImageFix"/>
<feColorMatrix in="SourceAlpha" type="matrix" values="0 0 0 0 0 0 0 0 0 0 0 0 0 0 0 0 0 0 127 0" result="hardAlpha"/>
<feOffset dy="4"/>
<feGaussianBlur stdDeviation="2"/>
<feComposite in2="hardAlpha" operator="out"/>
<feColorMatrix type="matrix" values="0 0 0 0 1 0 0 0 0 1 0 0 0 0 1 0 0 0 0.15 0"/>
<feBlend mode="normal" in2="BackgroundImageFix" result="effect1_dropShadow_163_2"/>
<feBlend mode="normal" in="SourceGraphic" in2="effect1_dropShadow_163_2" result="shape"/>
</filter>
</defs>
</svg>
