<svg width="82" height="82" viewBox="0 0 82 82" fill="none" xmlns="http://www.w3.org/2000/svg">
<path d="M62.4904 50.3485L60.5323 51.1074L62.0501 55.0236L44.4272 61.8535L45.186 63.8116L62.8089 56.9817L63.9473 59.9188C64.5759 61.5409 63.7704 63.3657 62.1484 63.9943L40.6093 72.3419C39.5594 72.7472 38.3732 72.5636 37.4945 71.8599L36.1783 73.4961C37.642 74.6681 39.6186 74.9742 41.3682 74.3L62.9073 65.9524C65.6084 64.9017 66.9494 61.8637 65.9054 59.16L62.4904 50.3485Z" fill="white"/>
<path d="M48.8822 64.6312L50.8403 63.8724L51.5991 65.8305L49.641 66.5893L48.8822 64.6312Z" fill="white"/>
<path d="M44.5117 35.9203L43.7528 33.9622L40.7659 35.1198C37.8565 29.0613 30.9699 26.0216 24.5331 27.9549L23.3755 24.968L21.4174 25.7269L22.575 28.7137C21.9349 29.0201 21.3201 29.376 20.7352 29.7781L18.7004 24.5276L34.3652 18.4566L33.6063 16.4985L17.9415 22.5695L17.5621 21.5905C16.9335 19.9685 17.7389 18.1437 19.3609 17.515L40.9 9.1674C41.6152 8.89023 42.4071 8.88353 43.1269 9.14892L43.8533 7.17826C42.6535 6.73545 41.3332 6.74675 40.1412 7.20929L18.602 15.5569C15.9009 16.6076 14.56 19.6456 15.604 22.3494L19.0189 31.1608C15.326 34.7161 13.9328 40.0382 15.4101 44.9466L12.4232 46.1042L13.1821 48.0623L16.1713 46.9038C19.0591 52.9844 25.9636 56.0347 32.4037 54.0744L33.5594 57.0565L35.5175 56.2976L34.3618 53.3155C40.4409 50.4239 43.4866 43.5174 41.5224 37.0788L44.5117 35.9203ZM30.9033 50.2031L31.6448 52.1163C30.2314 52.5228 28.7536 52.6539 27.2906 52.5039L26.6077 50.7418C25.56 48.0385 26.9024 44.9971 29.6057 43.9494C32.3091 42.9017 35.3505 44.2441 36.3982 46.9475L37.0811 48.7096C36.1021 49.8071 34.9216 50.7067 33.604 51.3603L32.8614 49.4443L30.9033 50.2031ZM24.7714 40.1925C24.1428 38.5704 24.9482 36.7456 26.5702 36.117C28.1923 35.4884 30.0171 36.2938 30.6457 37.9158C31.2743 39.5379 30.4689 41.3627 28.8469 41.9913C27.2248 42.6199 25.4 41.8145 24.7714 40.1925ZM38.7583 46.2582C38.6904 46.3967 38.608 46.5188 38.5354 46.6509L38.3563 46.1886C37.3627 43.6319 35.028 41.8414 32.3011 41.5445C33.3605 39.6102 33.0978 37.2201 31.6442 35.562C30.1904 33.9035 27.8552 33.3305 25.7991 34.1273C23.743 34.9242 22.4039 36.9212 22.4475 39.1263C22.4908 41.3309 23.9075 43.2738 25.9937 43.9889C24.1791 46.0459 23.6608 48.9422 24.6496 51.5007L24.8306 51.9678C24.6876 51.9209 24.5424 51.881 24.4014 51.8278C21.6674 50.7947 19.4262 48.7644 18.1294 46.1449L20.0354 45.4062L19.2765 43.4481L17.3682 44.1877C15.8435 38.8336 18.3506 33.1535 23.3338 30.6718L24.0734 32.5802L26.0315 31.8213L25.2919 29.913C30.6461 28.3883 36.3261 30.8954 38.8078 35.8786L36.8994 36.6183L37.6583 38.5764L39.5643 37.8377C40.3715 40.6469 40.0838 43.6572 38.7601 46.263L38.7583 46.2582Z" fill="white"/>
<path d="M62.6357 18.7613C63.1764 18.5517 63.4449 17.9434 63.2353 17.4028L58.6821 5.65416C58.4725 5.11348 57.8642 4.845 57.3236 5.05455L35.7845 13.4022C35.2438 13.6117 34.9753 14.22 35.1848 14.7607L39.7381 26.5093C39.9476 27.05 40.5559 27.3184 41.0966 27.1089L62.6357 18.7613ZM37.5224 14.9808L57.1034 7.39209L60.8978 17.1826L41.3168 24.7713L37.5224 14.9808Z" fill="white"/>
<path d="M40.2393 16.1801L44.1556 14.6623L44.9144 16.6204L40.9982 18.1382L40.2393 16.1801Z" fill="white"/>
<path d="M46.1136 13.9034L55.9042 10.1091L56.663 12.0672L46.8725 15.8615L46.1136 13.9034Z" fill="white"/>
<path d="M41.7571 20.0963L57.4219 14.0253L58.1808 15.9834L42.516 22.0544L41.7571 20.0963Z" fill="white"/>
<path d="M63.2215 20.7864C62.4638 21.0817 61.8402 21.6434 61.4688 22.3663L55.8465 33.2055L52.625 24.8931L50.6669 25.652L54.4612 35.4425L54.7442 35.3328L51.0792 42.4063C47.536 44.0181 45.8634 48.1129 47.2659 51.7444L47.9353 53.4716C48.3156 54.4415 48.1111 55.544 47.407 56.3123C47.0787 56.6727 47.0418 57.2116 47.3174 57.6134C47.593 58.0152 48.109 58.1748 48.5635 57.9981L55.4168 55.3421C59.045 53.931 60.9431 49.9358 59.7462 46.2318L67.557 25.0495C68.01 23.8193 67.7005 22.4376 66.7652 21.5184C65.8305 20.5989 64.4438 20.3126 63.2215 20.7864ZM54.6579 53.384L50.1805 55.1192C50.2903 54.3058 50.1914 53.4775 49.8934 52.7127L49.224 50.9855C48.2389 48.4338 49.3746 45.5529 51.8366 44.3606L57.792 46.9892C58.5707 49.6115 57.2072 52.3927 54.6579 53.384ZM65.5865 24.3236L58.0371 44.7997L53.2894 42.705L63.3299 23.3276C63.6311 22.7501 64.3287 22.5056 64.9249 22.7683C65.5207 23.0317 65.8102 23.7118 65.5865 24.3236Z" fill="white"/>
<path d="M21.8481 76.2347L43.3873 67.887C43.9279 67.6775 44.1964 67.0692 43.9869 66.5285L40.9514 58.6961C40.7418 58.1555 40.1336 57.887 39.5929 58.0965L32.7395 60.7526L30.8423 55.8573L28.8842 56.6162L30.7814 61.5115L18.0538 66.4442C17.5131 66.6537 17.2446 67.262 17.4541 67.8026L20.4897 75.6351C20.6992 76.1757 21.3075 76.4442 21.8481 76.2347ZM19.7917 68.0228L39.3727 60.4341L41.6493 66.3084L22.0683 73.8971L19.7917 68.0228Z" fill="white"/>
<path d="M22.5087 69.2219L27.4039 67.3247L28.1628 69.2828L23.2675 71.18L22.5087 69.2219Z" fill="white"/>
<path d="M29.3621 66.5659L38.1735 63.151L38.9324 65.1091L30.121 68.524L29.3621 66.5659Z" fill="white"/>
<path d="M6.29117 36.0934L16.0817 32.2991C16.6224 32.0895 16.8908 31.4813 16.6813 30.9406L13.6458 23.1082C13.4362 22.5675 12.828 22.299 12.2873 22.5086L2.4968 26.3029C1.95612 26.5125 1.68764 27.1207 1.89718 27.6614L4.93269 35.4938C5.14223 36.0345 5.7505 36.303 6.29117 36.0934ZM4.23472 27.8816L12.0671 24.8461L14.3438 30.7204L6.51135 33.7559L4.23472 27.8816Z" fill="white"/>
<path d="M6.95169 29.0809L10.8679 27.5632L11.6268 29.5213L7.71057 31.039L6.95169 29.0809Z" fill="white"/>
</svg>
