<svg width="87" height="81" viewBox="0 0 87 81" fill="none" xmlns="http://www.w3.org/2000/svg">
<path d="M8.32589 37.8179C8.55268 37.6857 8.72233 37.4635 8.78841 37.209C8.85631 36.955 8.8189 36.6792 8.68603 36.4512C8.55383 36.2244 8.33155 36.0548 8.07711 35.9887C7.82314 35.9208 7.54612 35.9589 7.31933 36.0911C7.09253 36.2233 6.92288 36.4456 6.8568 36.7C6.7889 36.954 6.82699 37.231 6.95918 37.4578C7.09138 37.6846 7.31366 37.8542 7.5681 37.9203C7.82207 37.9882 8.09909 37.9501 8.32589 37.8179Z" fill="white"/>
<path d="M11.089 36.2075C11.3158 36.0753 11.4854 35.853 11.5515 35.5985C11.6194 35.3446 11.5813 35.0675 11.4491 34.8408C11.3169 34.614 11.0946 34.4443 10.8402 34.3782C10.5862 34.3103 10.3092 34.3484 10.0824 34.4806C9.85563 34.6128 9.68597 34.8351 9.61989 35.0895C9.552 35.3435 9.59008 35.6205 9.72227 35.8473C9.85447 36.0741 10.0767 36.2438 10.3312 36.3098C10.5852 36.3777 10.8622 36.3396 11.089 36.2075Z" fill="white"/>
<path d="M13.8519 34.5969C14.0787 34.4647 14.2483 34.2424 14.3144 33.9879C14.3823 33.734 14.3442 33.4569 14.212 33.2302C14.0798 33.0034 13.8576 32.8337 13.6031 32.7676C13.3491 32.6997 13.0721 32.7378 12.8453 32.87C12.6174 33.0029 12.4489 33.2245 12.3828 33.4789C12.3149 33.7329 12.353 34.0099 12.4852 34.2367C12.6174 34.4635 12.8397 34.6332 13.0941 34.6992C13.3481 34.7671 13.6251 34.7291 13.8519 34.5969Z" fill="white"/>
<path d="M17.5356 32.4496L52.5331 12.05C53.0099 11.7721 53.1711 11.1602 52.8932 10.6833C52.6153 10.2065 52.0033 10.0453 51.5265 10.3232L16.529 30.7228C16.0522 31.0007 15.891 31.6127 16.1689 32.0895C16.4468 32.5663 17.0588 32.7276 17.5356 32.4496Z" fill="white"/>
<path d="M56.2171 9.90265L58.0591 8.82898C58.5359 8.55104 58.6972 7.93912 58.4192 7.46228C58.1413 6.98544 57.5294 6.82419 57.0525 7.10213L55.2106 8.1758C54.7337 8.45374 54.5725 9.06566 54.8504 9.5425C55.1284 10.0193 55.7403 10.1806 56.2171 9.90265Z" fill="white"/>
<path d="M33.8703 32.9539L15.4506 43.6905C14.4666 44.264 14.1327 45.531 14.7063 46.515L16.8536 50.1989C17.4271 51.1829 18.6942 51.5168 19.6781 50.9432L38.0978 40.2066C39.0818 39.6331 39.4157 38.366 38.8421 37.3821L36.6948 33.6981C36.1213 32.7142 34.8542 32.3803 33.8703 32.9539ZM37.1153 38.3886C37.1337 38.4203 37.1231 38.4612 37.0913 38.4798L18.6716 49.2164C18.6398 49.2349 18.5989 49.224 18.5805 49.1924L16.4331 45.5084C16.4147 45.4768 16.4254 45.4358 16.4571 45.4173L34.8768 34.6807C34.9086 34.6622 34.9495 34.673 34.968 34.7047L37.1153 38.3886Z" fill="white"/>
<path d="M62.1894 20.1486L56.4639 23.486C55.4792 22.627 54.0168 22.4445 52.8269 23.1381C51.637 23.8317 51.0751 25.1942 51.3372 26.4742L49.2956 27.6643C48.8188 27.9422 48.6575 28.5541 48.9355 29.031C49.2134 29.5078 49.8253 29.669 50.3022 29.3911L52.3438 28.2011C53.3284 29.06 54.7908 29.2425 55.9808 28.5489C57.1707 27.8553 57.7326 26.4929 57.4704 25.2128L63.196 21.8755C63.6728 21.5975 63.8341 20.9856 63.5561 20.5088C63.2782 20.0319 62.6662 19.8707 62.1894 20.1486ZM54.9742 26.8221C54.4346 27.1366 53.7398 26.9535 53.4253 26.4139C53.1108 25.8743 53.2938 25.1795 53.8334 24.865C54.373 24.5505 55.0678 24.7336 55.3824 25.2731C55.6969 25.8127 55.5138 26.5076 54.9742 26.8221Z" fill="white"/>
<path d="M41.2381 28.6592C39.2386 29.8247 38.56 32.3998 39.7255 34.3993C40.8911 36.3989 43.4661 37.0775 45.4657 35.9119C47.4653 34.7464 48.1438 32.1714 46.9783 30.1718C45.8128 28.1722 43.2377 27.4936 41.2381 28.6592ZM44.4591 34.1851C43.4117 34.7956 42.0629 34.4402 41.4524 33.3928C40.8419 32.3454 41.1973 30.9965 42.2447 30.386C43.2921 29.7755 44.6409 30.131 45.2514 31.1783C45.862 32.2257 45.5065 33.5746 44.4591 34.1851Z" fill="white"/>
<path d="M39.7755 43.0846L21.3558 53.8212C20.3718 54.3948 20.0379 55.6618 20.6115 56.6457L22.7588 60.3297C23.3323 61.3136 24.5993 61.6475 25.5833 61.074L44.003 50.3373C44.987 49.7638 45.3209 48.4968 44.7473 47.5128L42.6 43.8289C42.0265 42.8449 40.7594 42.511 39.7755 43.0846ZM43.0205 48.5194C43.0389 48.551 43.0282 48.592 42.9965 48.6105L24.5767 59.3471C24.545 59.3657 24.5041 59.3548 24.4856 59.3231L22.3383 55.6392C22.3199 55.6075 22.3305 55.5666 22.3623 55.5481L40.782 44.8114C40.8138 44.7929 40.8547 44.8038 40.8731 44.8354L43.0205 48.5194Z" fill="white"/>
<path d="M68.0946 30.2795L66.9735 30.9329C65.9889 30.074 64.5265 29.8915 63.3366 30.5851C62.1466 31.2787 61.5847 32.6411 61.8469 33.9212L55.2008 37.7951C54.724 38.0731 54.5627 38.685 54.8407 39.1618C55.1186 39.6387 55.7305 39.7999 56.2074 39.522L62.8536 35.648C63.8382 36.5069 65.3006 36.6894 66.4906 35.9958C67.6805 35.3022 68.2424 33.9398 67.9802 32.6597L69.1013 32.0063C69.5781 31.7283 69.7394 31.1164 69.4614 30.6395C69.1835 30.1627 68.5715 30.0015 68.0946 30.2795ZM65.484 34.269C64.9444 34.5835 64.2496 34.4004 63.9351 33.8608C63.6205 33.3212 63.8036 32.6264 64.3432 32.3119C64.8828 31.9974 65.5776 32.1805 65.8922 32.72C66.2067 33.2596 66.0236 33.9545 65.484 34.269Z" fill="white"/>
<path d="M47.1433 38.79C45.1438 39.9556 44.4652 42.5306 45.6307 44.5302C46.7963 46.5298 49.3713 47.2083 51.3709 46.0428C53.3705 44.8773 54.049 42.3022 52.8835 40.3026C51.718 38.3031 49.1429 37.6245 47.1433 38.79ZM50.3643 44.3159C49.3169 44.9265 47.9681 44.571 47.3576 43.5236C46.7471 42.4762 47.1025 41.1274 48.1499 40.5169C49.1973 39.9064 50.5461 40.2618 51.1567 41.3092C51.7672 42.3566 51.4117 43.7054 50.3643 44.3159Z" fill="white"/>
<path d="M45.6807 53.2154L27.261 63.9521C26.277 64.5256 25.9431 65.7926 26.5167 66.7766L28.664 70.4605C29.2375 71.4445 30.5046 71.7784 31.4885 71.2048L49.9082 60.4682C50.8922 59.8947 51.2261 58.6276 50.6525 57.6437L48.5052 53.9597C47.9317 52.9758 46.6646 52.6419 45.6807 53.2154ZM48.9257 58.6502C48.9441 58.6819 48.9334 58.7228 48.9017 58.7414L30.482 69.478C30.4502 69.4965 30.4093 69.4856 30.3908 69.454L28.2435 65.77C28.2251 65.7384 28.2358 65.6974 28.2675 65.6789L46.6872 54.9423C46.719 54.9238 46.7599 54.9346 46.7784 54.9663L48.9257 58.6502Z" fill="white"/>
<path d="M73.9996 40.4103L69.1946 43.2111C68.21 42.3522 66.7475 42.1697 65.5576 42.8633C64.3677 43.5569 63.8058 44.9193 64.0679 46.1994L61.1058 47.926C60.629 48.2039 60.4677 48.8158 60.7457 49.2927C61.0236 49.7695 61.6355 49.9308 62.1124 49.6528L65.0746 47.9262C66.0593 48.7851 67.5217 48.9676 68.7116 48.274C69.9015 47.5804 70.4634 46.218 70.2013 44.9379L75.0062 42.1372C75.483 41.8592 75.6443 41.2473 75.3663 40.7705C75.0884 40.2936 74.4765 40.1324 73.9996 40.4103ZM67.7051 46.5472C67.1655 46.8617 66.4706 46.6786 66.1561 46.139C65.8416 45.5994 66.0247 44.9046 66.5643 44.5901C67.1039 44.2755 67.7987 44.4586 68.1132 44.9982C68.4277 45.5378 68.2446 46.2326 67.7051 46.5472Z" fill="white"/>
<path d="M53.0486 48.9208C51.049 50.0863 50.3704 52.6614 51.536 54.6609C52.7015 56.6605 55.2765 57.3391 57.2761 56.1735C59.2757 55.008 59.9542 52.433 58.7887 50.4334C57.6232 48.4338 55.0481 47.7552 53.0486 48.9208ZM56.2695 54.4467C55.2222 55.0572 53.8733 54.7018 53.2628 53.6544C52.6523 52.607 53.0077 51.2581 54.0551 50.6476C55.1025 50.0371 56.4514 50.3925 57.0619 51.4399C57.6724 52.4873 57.3169 53.8362 56.2695 54.4467Z" fill="white"/>
<path d="M54.9053 3.41823L5.17206 32.4071C2.66468 33.8687 1.81378 37.0977 3.2753 39.6051L24.7486 76.4445C26.2101 78.9519 29.4391 79.8028 31.9465 78.3413L81.6798 49.3524C84.1871 47.8909 85.038 44.6618 83.5765 42.1544L62.1033 5.315C60.6417 2.80761 57.4127 1.95671 54.9053 3.41823ZM6.17862 34.134L55.9118 5.14508C57.467 4.23858 59.4699 4.76635 60.3764 6.32155L62.0205 9.14207L6.64619 41.4191L5.00215 38.5985C4.09564 37.0433 4.62342 35.0405 6.17862 34.134ZM80.6732 47.6255L30.94 76.6144C29.3848 77.5209 27.3819 76.9932 26.4754 75.438L7.65275 43.1459L63.027 10.8689L81.8497 43.161C82.7562 44.7162 82.2284 46.719 80.6732 47.6255Z" fill="white"/>
</svg>
