<svg width="122" height="124" viewBox="0 0 122 124" fill="none" xmlns="http://www.w3.org/2000/svg">
<path d="M94.494 9.39591L84.1552 3.98207C83.7879 3.79004 83.3593 3.75146 82.9634 3.87523C82.5678 3.99894 82.2376 4.27497 82.0451 4.64221L57.4086 51.7206L51.9882 62.0723C51.9831 62.0822 51.9792 62.0928 51.9741 62.103C51.9588 62.1341 51.9441 62.1653 51.9307 62.1974C51.9261 62.2084 51.9212 62.2196 51.9168 62.2306C51.9131 62.2397 51.9104 62.2492 51.9069 62.2585C51.8972 62.2852 51.8877 62.3118 51.8794 62.3391C51.8736 62.3577 51.8682 62.3764 51.8633 62.3952C51.8608 62.4052 51.858 62.4149 51.8557 62.4249C51.8511 62.4441 51.8466 62.4638 51.8426 62.4835C51.8369 62.5103 51.8326 62.5375 51.8284 62.5645C51.8268 62.5748 51.8246 62.5851 51.8232 62.5954C51.8217 62.6077 51.8205 62.6201 51.8194 62.6324C51.8159 62.6654 51.8137 62.6983 51.8127 62.7315C51.8122 62.7439 51.8105 62.7559 51.8101 62.7682L51.6881 69.2912L51.5733 75.4152L50.0551 78.3146C49.6547 79.0796 49.95 80.024 50.7148 80.4245C51.0973 80.6246 51.5246 80.6507 51.9064 80.5314C52.288 80.4121 52.6245 80.1471 52.8248 79.7648L54.3183 76.9126L64.6262 69.4791C64.6369 69.4713 64.6462 69.4628 64.6563 69.4548C64.6818 69.4355 64.7071 69.4159 64.7312 69.3947C64.741 69.3865 64.7509 69.3784 64.7602 69.3696C64.7681 69.3623 64.7755 69.3544 64.7834 69.3471C64.803 69.3288 64.8222 69.3102 64.8409 69.2905C64.8546 69.276 64.8685 69.2614 64.8816 69.2463C64.8887 69.2384 64.8956 69.2303 64.9025 69.2221C64.9149 69.2074 64.9272 69.1923 64.9393 69.1769C64.9564 69.1549 64.9728 69.1328 64.9887 69.1102C64.9948 69.1014 65.0013 69.0934 65.0072 69.0846C65.014 69.0744 65.0205 69.0637 65.0271 69.0533C65.0449 69.0257 65.0612 68.9975 65.0769 68.969C65.083 68.9578 65.0901 68.9476 65.0961 68.9363L78.6304 43.0891C78.6487 43.0541 78.6654 43.019 78.6807 42.9833L95.1537 11.5051C95.5541 10.7406 95.2586 9.79608 94.494 9.39591ZM54.7502 72.7469L54.814 69.3497L54.8888 65.3554L60.7466 68.4227L54.7502 72.7469ZM75.8576 41.6373C75.8394 41.6721 75.8228 41.7069 75.8075 41.7424L63.0523 66.1015L55.4829 62.1378L60.1783 53.1705L84.0899 7.4769L91.6594 11.4403L75.8576 41.6373Z" fill="white"/>
<path d="M108.934 77.0929L95.9359 35.5196C95.1643 33.0519 92.5288 31.6719 90.0611 32.4434C87.5934 33.215 86.2134 35.8505 86.9849 38.3182L100.232 80.6874C98.9375 82.1751 98.0942 83.9836 97.7847 85.9266L75.4495 92.9099L70.8786 78.2902C70.107 75.8225 67.4715 74.4425 65.0038 75.2141C62.5361 75.9856 61.1561 78.6211 61.9276 81.0888L66.4986 95.7085L44.3628 102.629C42.7199 100.914 40.5574 99.8118 38.2039 99.4908L31.2506 77.2516L42.6877 73.6757C45.1554 72.9042 46.5354 70.2686 45.7639 67.8009C44.9923 65.3332 42.3568 63.9532 39.8891 64.7248L28.452 68.3007L21.9342 47.4543C23.6203 45.9065 24.7542 43.8508 25.1665 41.5975L63.8162 29.5133C66.2839 28.7418 67.6639 26.1062 66.8924 23.6385C66.1208 21.1708 63.4853 19.7908 61.0176 20.5624L22.5662 32.5845C19.834 29.6078 15.5951 28.432 11.6752 29.6576C6.13652 31.3893 3.0392 37.3042 4.77098 42.8431C5.9526 46.6223 9.08888 49.3591 12.921 50.0539L29.315 102.488C26.5614 105.242 25.5425 109.278 26.724 113.057C28.456 118.596 34.3708 121.693 39.9097 119.961C43.7287 118.767 46.5311 115.476 47.16 111.581L100.585 94.877C103.32 97.7203 107.498 98.8291 111.317 97.6351C116.856 95.9034 119.953 89.9885 118.221 84.4497C116.92 80.2873 113.2 77.3985 108.934 77.0929ZM24.3724 35.2952L61.9505 23.5461C62.7732 23.2888 63.6515 23.7489 63.9087 24.5714C64.1658 25.394 63.7059 26.2724 62.8833 26.5296L25.2439 38.2979C25.165 37.7122 25.039 37.1323 24.8606 36.5617C24.725 36.128 24.5617 35.7055 24.3724 35.2952ZM40.822 67.7085C41.6448 67.4512 42.523 67.9113 42.7802 68.7338C43.0374 69.5566 42.5774 70.4348 41.7548 70.692L28.826 74.7343C28.0019 74.992 27.543 75.8685 27.8006 76.6925L34.9477 99.5515C34.5027 99.6297 34.0623 99.736 33.6285 99.8716C33.058 100.05 32.5095 100.277 31.9831 100.546L16.2203 50.1304C16.806 50.0515 17.386 49.9255 17.9566 49.7471C18.3904 49.6114 18.8129 49.4479 19.2232 49.2586L25.9349 70.7253C26.1925 71.5493 27.0691 72.0083 27.8931 71.7506L40.8219 67.7083L40.822 67.7085ZM7.75469 41.9102C6.53734 38.0166 8.71455 33.8587 12.6081 32.6413C15.6207 31.6994 18.902 32.7743 20.7732 35.3159C21.2606 35.9779 21.6319 36.711 21.877 37.4947C22.1598 38.3993 22.2656 39.3363 22.1913 40.2804L22.1914 40.2807C22.0221 42.4253 20.9328 44.386 19.2022 45.6599C18.5402 46.1473 17.8071 46.5186 17.0234 46.7637C16.1188 47.0465 15.1818 47.1522 14.2377 47.078C14.2373 47.0779 14.2371 47.078 14.2367 47.0779C11.2057 46.8384 8.66149 44.8105 7.75469 41.9102ZM44.1583 110.31C44.1583 110.31 44.1583 110.311 44.1583 110.311C43.9939 113.381 41.9118 116.06 38.9766 116.978C35.0831 118.195 30.9251 116.018 29.7078 112.124C28.801 109.224 29.7368 106.108 32.0918 104.184C32.0921 104.184 32.0925 104.184 32.0926 104.184C32.8262 103.585 33.6566 103.138 34.5612 102.855C35.3448 102.61 36.159 102.498 36.9807 102.521C39.2022 102.585 41.2568 103.628 42.6181 105.384C43.1579 106.08 43.5657 106.862 43.8305 107.709C44.0952 108.556 44.2054 109.43 44.1583 110.31ZM98.7108 92.1874L47.1677 108.303C47.0874 107.788 46.971 107.278 46.8139 106.776C46.6569 106.274 46.4619 105.788 46.2349 105.319L68.9234 98.2255C69.7474 97.9679 70.2064 97.0914 69.9487 96.2674L64.9113 80.156C64.6541 79.3332 65.1141 78.455 65.9367 78.1978C66.7594 77.9405 67.6377 78.4006 67.8949 79.2231L72.9322 95.3345C73.1899 96.1586 74.0664 96.6175 74.8904 96.3599L97.7778 89.204C97.858 89.7184 97.9745 90.2286 98.1315 90.7309C98.2886 91.2333 98.4838 91.719 98.7108 92.1874ZM89.9686 37.3853C89.7114 36.5626 90.1714 35.6843 90.994 35.4271C91.8167 35.1699 92.695 35.6299 92.9522 36.4525L105.74 77.3533C105.504 77.4096 105.269 77.4729 105.036 77.5456C104.256 77.7894 103.519 78.1158 102.83 78.5219L89.9686 37.3853ZM110.384 94.6516C107.449 95.5693 104.212 94.5533 102.328 92.1238C102.328 92.1236 102.328 92.1233 102.328 92.1231C101.788 91.427 101.38 90.6449 101.115 89.7983C100.851 88.9516 100.74 88.0765 100.787 87.1968C100.888 85.305 101.701 83.541 103.077 82.2301C103.902 81.4436 104.875 80.8711 105.969 80.5292C106.579 80.3384 107.212 80.2271 107.849 80.1984C111.198 80.0475 114.236 82.1794 115.238 85.3826C116.455 89.2762 114.278 93.4342 110.384 94.6516Z" fill="white"/>
</svg>
