<svg width="124" height="123" viewBox="0 0 124 123" fill="none" xmlns="http://www.w3.org/2000/svg">
<g clip-path="url(#clip0_105_235)">
<path d="M89.999 39.4993C86.9547 32.6074 81.4575 27.0931 74.5752 24.0274C67.6928 20.9617 59.9167 20.5634 52.7572 22.9099L46.9943 24.807C39.8409 27.1721 33.8219 32.1115 30.1064 38.6659C26.3909 45.2203 25.2442 52.9217 26.8889 60.2743C23.8009 61.5445 21.307 63.9348 19.9068 66.9661C18.5066 69.9974 18.3036 73.4459 19.3385 76.6205L22.4251 85.9968C23.5286 89.3363 25.9117 92.1017 29.0516 93.6864C32.1915 95.271 35.8318 95.5455 39.1737 94.4495L46.7434 91.9577C47.1218 91.8331 47.4719 91.6353 47.7739 91.3754C48.0758 91.1155 48.3236 90.7987 48.5031 90.443C48.6826 90.0874 48.7902 89.6999 48.82 89.3026C48.8497 88.9053 48.8009 88.5061 48.6763 88.1277L39.1909 59.313C38.9393 58.5487 38.3944 57.9158 37.6762 57.5533C36.9579 57.1908 36.1251 57.1285 35.3608 57.38L32.6782 58.2631C31.5522 52.4651 32.5772 46.4555 35.5613 41.3584C38.5454 36.2613 43.2842 32.426 48.8913 30.5699L54.6543 28.6728C60.2675 26.8353 66.358 27.1058 71.7862 29.4336C77.2145 31.7614 81.6088 35.9871 84.1471 41.3202L81.4644 42.2033C80.7002 42.4549 80.0672 42.9997 79.7047 43.718C79.3422 44.4363 79.2799 45.2691 79.5315 46.0333L89.0169 74.8481C89.2685 75.6123 89.8134 76.2453 90.5316 76.6078C91.2499 76.9703 92.0827 77.0326 92.847 76.781L95.3193 75.9671C95.4944 78.6438 94.7777 81.303 93.2812 83.5291C91.7848 85.7553 89.5929 87.4228 87.0482 88.2711L81.2852 90.1681L80.3367 87.2867C80.0851 86.5225 79.5403 85.8895 78.822 85.527C78.1037 85.1645 77.2709 85.1022 76.5067 85.3537C75.7424 85.6053 75.1095 86.1502 74.747 86.8684C74.3845 87.5867 74.3222 88.4195 74.5737 89.1838L76.4708 94.9467C76.7224 95.7109 77.2672 96.3439 77.9855 96.7064C78.7038 97.0689 79.5366 97.1312 80.3008 96.8796L88.9453 94.034C93.0406 92.6807 96.5222 89.917 98.7695 86.2356C101.017 82.5543 101.884 78.1945 101.216 73.9334C104.333 72.6807 106.857 70.2907 108.278 67.2472C109.699 64.2037 109.91 60.7341 108.869 57.5405L105.783 48.1642C104.729 44.9956 102.518 42.342 99.5908 40.7351C96.6638 39.1283 93.2377 38.6868 89.999 39.4993ZM41.9648 87.1433L37.2767 88.6866C35.4631 89.2819 33.4875 89.1332 31.7835 88.2732C30.0795 87.4133 28.7864 85.9123 28.188 84.0998L25.1015 74.7234C24.5062 72.9099 24.6548 70.9343 25.5148 69.2303C26.3748 67.5263 27.8758 66.2331 29.6883 65.6348L34.3765 64.0915L41.9648 87.1433ZM103.106 59.4376C103.702 61.2511 103.553 63.2267 102.693 64.9307C101.833 66.6348 100.332 67.9279 98.5195 68.5262L93.8313 70.0695L86.243 47.0177L90.9311 45.4744C92.7447 44.8791 94.7203 45.0278 96.4243 45.8878C98.1283 46.7478 99.4214 48.2488 100.02 50.0613L103.106 59.4376Z" fill="white"/>
</g>
<defs>
<clipPath id="clip0_105_235">
<rect width="97.0747" height="97.0747" fill="white" transform="translate(0.926514 30.3907) rotate(-18.2209)"/>
</clipPath>
</defs>
</svg>
