<svg width="76" height="90" viewBox="0 0 76 90" fill="none" xmlns="http://www.w3.org/2000/svg">
<path d="M38.2633 2.82892L7.35146 16.2607C3.80876 17.8 2.17892 21.9346 3.71828 25.4773C5.02637 28.4877 28.0146 81.3929 28.7239 83.0253C30.2633 86.568 34.3979 88.1978 37.9406 86.6585L68.8524 73.2267C72.3951 71.6874 74.0249 67.5528 72.4856 64.0101C71.1774 60.9995 48.1893 8.09445 47.48 6.46209C45.9406 2.9194 41.806 1.28955 38.2633 2.82892ZM68.2023 65.8712C68.7154 67.0521 68.1721 68.4303 66.9912 68.9435L36.0794 82.3752C34.8985 82.8883 33.5203 82.345 33.0072 81.1641L30.8726 76.2516L66.0677 60.9587L68.2023 65.8712ZM64.2066 56.6755L29.0114 71.9684L11.9973 32.8119L47.1924 17.519L64.2066 56.6755ZM45.3313 13.2357L10.1361 28.5286L8.00156 23.6162C7.48844 22.4353 8.03172 21.0571 9.21262 20.5439L40.1245 7.11219C41.3054 6.59907 42.6836 7.14235 43.1967 8.32325L45.3313 13.2357Z" fill="white"/>
<path d="M46.87 76.1534L55.0797 72.5861C56.2624 72.0722 56.8046 70.6967 56.2907 69.5139C55.7768 68.3312 54.4013 67.7889 53.2185 68.3029L45.0089 71.8701C43.8261 72.384 43.2839 73.7595 43.7978 74.9423C44.3118 76.1251 45.6873 76.6673 46.87 76.1534Z" fill="white"/>
<path d="M32.9745 11.7522L24.7648 15.3194C23.5821 15.8333 23.0399 17.2089 23.5538 18.3916C24.0677 19.5744 25.4432 20.1166 26.626 19.6027L34.8356 16.0354C36.0184 15.5215 36.5606 14.146 36.0467 12.9632C35.5327 11.7805 34.1572 11.2382 32.9745 11.7522Z" fill="white"/>
<path d="M18.447 18.0646L17.4833 18.4833C16.3005 18.9973 15.7583 20.3728 16.2722 21.5555C16.7861 22.7383 18.1617 23.2805 19.3444 22.7666L20.3081 22.3478C21.4909 21.8339 22.0331 20.4584 21.5192 19.2756C21.0053 18.0929 19.6297 17.5506 18.447 18.0646Z" fill="white"/>
</svg>
