<svg width="485" height="658" viewBox="0 0 485 658" fill="none" xmlns="http://www.w3.org/2000/svg">
<path d="M79.6469 651.006C79.6469 648.786 81.4327 647 83.6047 647C85.825 647 87.5626 648.786 87.5626 651.006C87.5626 653.178 85.825 654.964 83.6047 654.964C81.4327 654.964 79.6469 653.178 79.6469 651.006Z" fill="#2BA5B2"/>
<path d="M58.3611 651.006C58.3611 648.786 60.147 647 62.319 647C64.5393 647 66.2769 648.786 66.2769 651.006C66.2769 653.178 64.5393 654.964 62.319 654.964C60.147 654.964 58.3611 653.178 58.3611 651.006Z" fill="#2BA5B2"/>
<path d="M35 651.006C35 648.786 36.7859 647 38.9579 647C41.1299 647 42.9157 648.786 42.9157 651.006C42.9157 653.178 41.1299 654.964 38.9579 654.964C36.7859 654.964 35 653.178 35 651.006Z" fill="#2BA5B2"/>
<g filter="url(#filter0_d_329_310)">
<path d="M1.77754 517.779C0.795832 515.198 2.09234 512.31 4.67336 511.328L53.4456 492.778C56.0266 491.796 58.9148 493.092 59.8965 495.673L78.5789 544.792C79.5607 547.373 78.2642 550.261 75.6831 551.242L26.9109 569.793C24.3299 570.775 21.4417 569.479 20.46 566.898L1.77754 517.779Z" fill="#F7AF02"/>
</g>
<path d="M426.647 589.006C426.647 586.786 428.433 585 430.605 585C432.825 585 434.563 586.786 434.563 589.006C434.563 591.178 432.825 592.964 430.605 592.964C428.433 592.964 426.647 591.178 426.647 589.006Z" fill="#2BA5B2"/>
<path d="M405.361 589.006C405.361 586.786 407.147 585 409.319 585C411.539 585 413.277 586.786 413.277 589.006C413.277 591.178 411.539 592.964 409.319 592.964C407.147 592.964 405.361 591.178 405.361 589.006Z" fill="#2BA5B2"/>
<path d="M382 589.006C382 586.786 383.786 585 385.958 585C388.13 585 389.916 586.786 389.916 589.006C389.916 591.178 388.13 592.964 385.958 592.964C383.786 592.964 382 591.178 382 589.006Z" fill="#2BA5B2"/>
<path d="M39.249 136.616C37.0288 136.623 35.2374 134.843 35.2308 132.671C35.224 130.451 37.0045 128.707 39.2248 128.701C41.3968 128.694 43.188 130.426 43.1948 132.646C43.2014 134.818 41.421 136.61 39.249 136.616Z" fill="#2BA5B2"/>
<path d="M39.3143 157.902C37.094 157.909 35.3027 156.128 35.296 153.956C35.2892 151.736 37.0698 149.993 39.29 149.986C41.462 149.98 43.2532 151.712 43.26 153.932C43.2667 156.104 41.4863 157.895 39.3143 157.902Z" fill="#2BA5B2"/>
<path d="M39.3859 181.263C37.1657 181.27 35.3743 179.49 35.3677 177.318C35.361 175.146 37.1414 173.354 39.3617 173.347C41.5337 173.341 43.325 175.121 43.3317 177.293C43.3383 179.465 41.5579 181.256 39.3859 181.263Z" fill="#2BA5B2"/>
<path d="M489.03 403.928C486.81 403.934 485.019 402.154 485.012 399.982C485.005 397.762 486.786 396.019 489.006 396.012C491.178 396.005 492.969 397.737 492.976 399.958C492.983 402.13 491.202 403.921 489.03 403.928Z" fill="#2BA5B2"/>
<path d="M439.03 15.9277C436.81 15.9345 435.019 14.1541 435.012 11.9821C435.005 9.76181 436.786 8.01876 439.006 8.01196C441.178 8.0053 442.969 9.7374 442.976 11.9577C442.983 14.1297 441.202 15.921 439.03 15.9277Z" fill="#2BA5B2"/>
<path d="M439.095 37.2133C436.875 37.2201 435.084 35.4397 435.077 33.2677C435.07 31.0475 436.851 29.3044 439.071 29.2976C441.243 29.2909 443.034 31.023 443.041 33.2433C443.048 35.4153 441.267 37.2067 439.095 37.2133Z" fill="#2BA5B2"/>
<path d="M439.167 60.5744C436.947 60.5812 435.156 58.8008 435.149 56.6288C435.142 54.4568 436.923 52.6655 439.143 52.6587C441.315 52.652 443.106 54.4324 443.113 56.6044C443.12 58.7764 441.339 60.5677 439.167 60.5744Z" fill="#2BA5B2"/>
<path fill-rule="evenodd" clip-rule="evenodd" d="M209 40.1189C209 42.3616 207.118 44.2039 204.795 44.2039H199.909C199.308 47.8883 197.867 51.2925 195.744 54.2561L198.988 57.54C200.59 59.142 200.55 61.7051 198.868 63.267C198.067 64.0279 197.026 64.3883 195.984 64.3883C194.903 64.3883 193.782 63.9879 192.981 63.1468L189.817 59.983C187.013 61.9053 183.729 63.267 180.165 63.8677V68.193C180.165 70.4357 178.283 72.2379 176 72.2379C173.677 72.2379 171.835 70.4357 171.835 68.193V63.8677C168.271 63.267 165.027 61.9053 162.183 59.983L159.019 63.1468C158.219 63.9879 157.097 64.3883 156.016 64.3883C154.975 64.3883 153.933 64.0279 153.132 63.267C151.45 61.7051 151.41 59.142 153.012 57.54L156.256 54.2561C154.134 51.2925 152.692 47.8883 152.131 44.2039H147.205C144.882 44.2039 143 42.3616 143 40.1189C143 37.8762 144.882 36.074 147.205 36.074H152.331C153.052 32.5498 154.574 29.3058 156.737 26.5425L153.012 22.7379C151.41 21.1359 151.45 18.5328 153.132 16.9709C154.774 15.449 157.418 15.4891 159.019 17.091L162.864 20.9757C165.547 19.2937 168.591 18.0922 171.835 17.5716V12.0849C171.835 9.84223 173.677 8 176 8C178.283 8 180.165 9.84223 180.165 12.0849V17.5716C183.409 18.0922 186.453 19.2937 189.136 20.9757L192.981 17.091C194.583 15.4891 197.226 15.449 198.868 16.9709C200.55 18.5328 200.59 21.1359 198.988 22.7379L195.263 26.5425C197.386 29.3058 198.948 32.5498 199.669 36.074H204.795C207.118 36.074 209 37.8762 209 40.1189ZM186.613 40.3192C186.613 34.432 181.727 29.6663 175.72 29.6663C169.672 29.6663 164.786 34.432 164.786 40.3192C164.786 46.2063 169.672 50.9721 175.72 50.9721C181.727 50.9721 186.613 46.2063 186.613 40.3192Z" fill="#E0E0E0"/>
<path d="M181.967 40.3996C181.967 43.6034 179.324 46.2066 176 46.2066C172.716 46.2066 170.073 43.6034 170.073 40.3996C170.073 37.1957 172.716 34.6326 176 34.6326C179.324 34.6326 181.967 37.1957 181.967 40.3996Z" stroke="#263238" stroke-width="3" stroke-miterlimit="10"/>
<path d="M195.023 40.3992C195.023 50.6115 186.533 58.9016 176 58.9016C165.507 58.9016 157.017 50.6115 157.017 40.3992C157.017 30.1868 165.507 21.8967 176 21.8967C186.533 21.8967 195.023 30.1868 195.023 40.3992Z" stroke="#263238" stroke-width="3" stroke-miterlimit="10"/>
<path d="M72.964 400.006C72.964 402.178 71.1781 403.964 69.0061 403.964C66.7859 403.964 65 402.178 65 400.006C65 397.786 66.7859 396 69.0061 396C71.1781 396 72.964 397.786 72.964 400.006Z" stroke="#263238" stroke-width="3.2" stroke-linecap="round" stroke-linejoin="round"/>
<path d="M342.261 26L344.095 29.3787L347.522 31.2611L344.095 33.1435L342.261 36.5222L340.379 33.1435L337 31.2611L340.379 29.3787L342.261 26Z" fill="#FF9E00"/>
<path d="M33.2611 261L35.0952 264.379L38.5222 266.261L35.0952 268.143L33.2611 271.522L31.3787 268.143L28 266.261L31.3787 264.379L33.2611 261Z" fill="#FF9E00"/>
<path d="M422.261 358L424.095 361.379L427.522 363.261L424.095 365.143L422.261 368.522L420.379 365.143L417 363.261L420.379 361.379L422.261 358Z" fill="#FF9E00"/>
<path d="M247.261 469L249.095 472.379L252.522 474.261L249.095 476.143L247.261 479.522L245.379 476.143L242 474.261L245.379 472.379L247.261 469Z" fill="#FF9E00"/>
<path d="M450.261 633L452.095 636.379L455.522 638.261L452.095 640.143L450.261 643.522L448.379 640.143L445 638.261L448.379 636.379L450.261 633Z" fill="#FF9E00"/>
<path d="M34 590L37.8349 597.064L45 601L37.8349 604.936L34 612L30.0642 604.936L23 601L30.0642 597.064L34 590Z" fill="#FF9E00"/>
<path d="M474 155L477.835 162.064L485 166L477.835 169.936L474 177L470.064 169.936L463 166L470.064 162.064L474 155Z" fill="#FF9E00"/>
<path d="M316.964 659.006C316.964 661.178 315.178 662.964 313.006 662.964C310.786 662.964 309 661.178 309 659.006C309 656.786 310.786 655 313.006 655C315.178 655 316.964 656.786 316.964 659.006Z" stroke="#263238" stroke-width="3.2" stroke-linecap="round" stroke-linejoin="round"/>
<path d="M24.964 445.006C24.964 447.178 23.1781 448.964 21.0061 448.964C18.7859 448.964 17 447.178 17 445.006C17 442.786 18.7859 441 21.0061 441C23.1781 441 24.964 442.786 24.964 445.006Z" stroke="#263238" stroke-width="3.2" stroke-linecap="round" stroke-linejoin="round"/>
<path d="M484.964 532.006C484.964 534.178 483.178 535.964 481.006 535.964C478.786 535.964 477 534.178 477 532.006C477 529.786 478.786 528 481.006 528C483.178 528 484.964 529.786 484.964 532.006Z" stroke="#263238" stroke-width="3.2" stroke-linecap="round" stroke-linejoin="round"/>
<g filter="url(#filter1_d_329_310)">
<path d="M211.272 634.184C211.272 639.783 206.735 644.32 201.136 644.32C195.537 644.32 191 639.783 191 634.184C191 628.537 195.537 624 201.136 624C206.735 624 211.272 628.537 211.272 634.184Z" fill="#2BA5B2"/>
</g>
<g filter="url(#filter2_d_329_310)">
<path d="M443.272 459.184C443.272 464.783 438.735 469.32 433.136 469.32C427.537 469.32 423 464.783 423 459.184C423 453.537 427.537 449 433.136 449C438.735 449 443.272 453.537 443.272 459.184Z" fill="#2BA5B2"/>
</g>
<g filter="url(#filter3_d_329_310)">
<path d="M167.272 441.184C167.272 446.783 162.735 451.32 157.136 451.32C151.537 451.32 147 446.783 147 441.184C147 435.537 151.537 431 157.136 431C162.735 431 167.272 435.537 167.272 441.184Z" fill="#2BA5B2"/>
</g>
<g filter="url(#filter4_d_329_310)">
<path d="M465.272 261.184C465.272 266.783 460.735 271.32 455.136 271.32C449.537 271.32 445 266.783 445 261.184C445 255.537 449.537 251 455.136 251C460.735 251 465.272 255.537 465.272 261.184Z" fill="#263238"/>
</g>
<g filter="url(#filter5_d_329_310)">
<path d="M97.2721 10.1843C97.2721 15.7832 92.735 20.3203 87.136 20.3203C81.5371 20.3203 77 15.7832 77 10.1843C77 4.53707 81.5371 0 87.136 0C92.735 0 97.2721 4.53707 97.2721 10.1843Z" fill="#2BA5B2"/>
</g>
<path d="M19.2599 522.404C18.9375 522.523 18.6012 522.415 18.4828 522.093L18.4399 521.976C18.3215 521.654 18.4871 521.296 18.8096 521.178C19.132 521.059 19.4897 521.225 19.6081 521.547C19.7265 521.87 19.5823 522.286 19.2599 522.404Z" fill="#455A64"/>
<path d="M20.1176 524.74C19.7952 524.859 19.4589 524.752 19.3405 524.429L19.2976 524.312C19.1793 523.99 19.3449 523.632 19.6673 523.514C19.9897 523.395 20.3474 523.561 20.4658 523.883C20.5842 524.206 20.44 524.622 20.1176 524.74Z" fill="#455A64"/>
<path d="M20.9755 527.077C20.6531 527.195 20.3168 527.088 20.1984 526.766L20.1555 526.649C20.0371 526.326 20.2027 525.969 20.5251 525.85C20.8476 525.732 21.2053 525.897 21.3237 526.22C21.4421 526.542 21.2979 526.958 20.9755 527.077Z" fill="#455A64"/>
<path d="M60.6226 537.575C60.3002 537.694 59.9639 537.586 59.8455 537.264L59.8026 537.147C59.6842 536.825 59.8498 536.467 60.1722 536.349C60.4946 536.23 60.8524 536.396 60.9708 536.718C61.0891 537.041 60.945 537.457 60.6226 537.575Z" fill="#455A64"/>
<path d="M61.4804 539.912C61.1579 540.03 60.8216 539.923 60.7033 539.6L60.6604 539.484C60.542 539.161 60.7076 538.803 61.03 538.685C61.3524 538.567 61.7102 538.732 61.8286 539.055C61.9469 539.377 61.8028 539.793 61.4804 539.912Z" fill="#455A64"/>
<path d="M62.3382 542.248C62.0158 542.366 61.6795 542.259 61.5611 541.937L61.5182 541.82C61.3998 541.497 61.5654 541.14 61.8879 541.021C62.2103 540.903 62.568 541.068 62.6864 541.391C62.8048 541.713 62.6606 542.129 62.3382 542.248Z" fill="#455A64"/>
<path d="M48.7704 548.621L45.2658 549.908C44.9796 550.013 44.6607 549.896 44.5102 549.63L43.0673 547.083C41.7964 547.29 40.5226 547.337 39.2689 547.226L38.0168 549.875C37.8857 550.149 37.5761 550.288 37.2855 550.208L33.6903 549.193C33.3973 549.11 33.2061 548.828 33.2406 548.525L33.5683 545.615C32.4433 545.046 31.3865 544.338 30.42 543.503L27.8463 544.91C27.5741 545.064 27.2443 544.989 27.0575 544.747L24.7561 541.801C24.569 541.562 24.5812 541.223 24.7863 540.998L26.7569 538.834C26.4402 538.228 26.1899 537.669 25.9823 537.103C25.776 536.541 25.6038 535.95 25.4496 535.273L22.552 534.909C22.2505 534.872 22.0205 534.621 22.0082 534.316L21.8562 530.581C21.8432 530.278 22.0441 530.009 22.3525 529.946L25.2248 529.353C25.3238 528.72 25.4593 528.097 25.6317 527.494C25.7245 527.161 26.0727 526.973 26.3999 527.066C26.7311 527.159 26.9218 527.505 26.8278 527.834C26.6342 528.516 26.4887 529.228 26.3968 529.953C26.3629 530.215 26.173 530.43 25.9049 530.483L23.1203 531.059L23.2294 533.739L26.0424 534.093C26.3068 534.127 26.5214 534.326 26.575 534.587C26.7397 535.389 26.9227 536.054 27.1505 536.674C27.3799 537.299 27.6687 537.92 28.0593 538.626C28.1876 538.86 28.1546 539.149 27.9739 539.347L26.0613 541.449L27.7132 543.565L30.2088 542.202C30.4497 542.071 30.7312 542.109 30.9271 542.289C32.0024 543.271 33.2051 544.077 34.5014 544.687C34.7418 544.8 34.8857 545.055 34.8555 545.319L34.5377 548.14L37.1172 548.869L38.3322 546.296C38.4477 546.055 38.7025 545.911 38.9692 545.944C40.3854 546.115 41.8341 546.06 43.2758 545.784C43.5381 545.733 43.802 545.856 43.9338 546.089L45.3322 548.558L47.8462 547.635L47.3141 544.846C47.2641 544.584 47.3856 544.319 47.6187 544.188C48.8965 543.466 50.0361 542.569 51.0057 541.524C51.1876 541.326 51.4756 541.269 51.7191 541.38L54.3101 542.555L55.8052 540.33L53.7376 538.385C53.5435 538.203 53.4872 537.916 53.5984 537.674C54.1938 536.371 54.5877 534.978 54.7717 533.533C54.8039 533.27 54.9912 533.058 55.2636 533.002L58.0482 532.426L57.9382 529.744L55.1197 529.379C54.8553 529.345 54.6419 529.146 54.5883 528.885C54.4295 528.094 54.2482 527.435 54.0187 526.81C53.791 526.189 53.5005 525.564 53.1056 524.846C52.9773 524.612 53.0115 524.323 53.1921 524.125L55.1079 522.035L53.4564 519.92L50.9608 521.283C50.7188 521.418 50.4369 521.376 50.2425 521.197C49.1672 520.214 47.9646 519.408 46.6682 518.798C46.4278 518.685 46.2839 518.43 46.3141 518.166L46.6319 515.345L44.0525 514.617L42.8374 517.189C42.7231 517.43 42.4672 517.574 42.2004 517.541C40.7842 517.37 39.3355 517.425 37.8938 517.701C37.6316 517.752 37.3676 517.629 37.2358 517.396L35.837 514.926L33.323 515.849L33.8551 518.638C33.9051 518.9 33.7836 519.165 33.5505 519.296C32.2726 520.018 31.1331 520.915 30.1634 521.96C29.9816 522.158 29.6947 522.215 29.4501 522.104L26.8596 520.93L25.3632 523.155L27.4309 525.1C27.6805 525.336 27.6924 525.73 27.457 525.98C27.2205 526.232 26.8274 526.241 26.5771 526.007L24.1256 523.698C23.9044 523.489 23.8674 523.15 24.0369 522.897L26.1215 519.797C26.2899 519.545 26.6166 519.453 26.8948 519.578L29.5631 520.787C30.4467 519.89 31.4502 519.103 32.5518 518.439L32.0038 515.563C31.9455 515.264 32.1126 514.968 32.3988 514.863L35.9034 513.576C36.1896 513.471 36.5085 513.588 36.659 513.854L38.1019 516.401C39.3728 516.194 40.6466 516.147 41.9003 516.258L43.1524 513.609C43.2831 513.333 43.5927 513.195 43.8837 513.276L47.4789 514.29C47.7719 514.374 47.9631 514.656 47.9286 514.959L47.6009 517.869C48.7259 518.438 49.7827 519.146 50.7491 519.981L53.3229 518.574C53.6014 518.423 53.9265 518.496 54.1117 518.737L56.4131 521.683C56.6002 521.922 56.5872 522.262 56.3822 522.487L54.4084 524.64C54.729 525.256 54.9806 525.819 55.1869 526.381C55.3945 526.946 55.5654 527.534 55.7162 528.201L58.6192 528.577C58.9207 528.614 59.1491 528.864 59.1615 529.169L59.3134 532.904C59.3281 533.208 59.1271 533.477 58.8172 533.539L55.9449 534.132C55.7474 535.392 55.4004 536.617 54.911 537.779L57.0436 539.785C57.2648 539.995 57.303 540.333 57.1334 540.586L55.0489 543.686C54.8789 543.938 54.5506 544.029 54.2755 543.905L51.6072 542.696C50.7236 543.593 49.7202 544.381 48.6185 545.045L49.1666 547.92C49.2237 548.22 49.0566 548.516 48.7704 548.621Z" fill="#455A64"/>
<path d="M44.4447 542.256C38.647 544.384 32.1996 541.4 30.0709 535.602C27.9423 529.804 30.9268 523.357 36.7245 521.228C42.5222 519.1 48.9696 522.084 51.0982 527.882C51.8042 529.805 51.9702 531.878 51.5782 533.879C51.5107 534.215 51.1831 534.435 50.8465 534.371C50.5102 534.303 50.2898 533.977 50.3552 533.639C50.7052 531.863 50.5575 530.02 49.93 528.311C48.0382 523.158 42.3062 520.505 37.1534 522.396C32.0005 524.288 29.3472 530.02 31.2391 535.173C33.131 540.326 38.8629 542.979 44.0158 541.087C45.6804 540.476 47.1518 539.432 48.2709 538.068C48.4865 537.803 48.8794 537.761 49.147 537.981C49.4138 538.199 49.452 538.592 49.234 538.857C47.9736 540.393 46.3185 541.568 44.4447 542.256Z" fill="#455A64"/>
<path d="M50.3425 536.879C50.1907 536.935 50.0169 536.931 49.8612 536.857C49.5508 536.709 49.4195 536.337 49.5673 536.028L49.6549 535.841C49.7991 535.529 50.1694 535.393 50.4808 535.537C50.7923 535.682 50.9282 536.052 50.7841 536.363L50.6905 536.563C50.6168 536.716 50.4897 536.825 50.3425 536.879Z" fill="#455A64"/>
<path d="M41.0727 534.877C41.026 534.894 40.9771 534.905 40.925 534.911C40.582 534.948 40.2761 534.7 40.2398 534.359L39.6924 529.258C39.6541 528.915 39.897 528.613 40.2442 528.573C40.5872 528.536 40.8931 528.784 40.9293 529.125L41.4768 534.226C41.5091 534.517 41.3356 534.78 41.0727 534.877Z" fill="#455A64"/>
<path d="M44.5773 533.59C44.4278 533.645 44.2573 533.643 44.1012 533.571C43.7897 533.427 43.6538 533.057 43.7979 532.745L45.0155 530.115L42.3867 528.898C42.0753 528.754 41.9393 528.384 42.0835 528.072C42.2277 527.761 42.598 527.625 42.9094 527.769L46.1036 529.248C46.415 529.392 46.551 529.762 46.4068 530.074L44.9282 533.268C44.8554 533.423 44.7268 533.535 44.5773 533.59Z" fill="#455A64"/>
<path d="M38.7364 535.735C38.5869 535.79 38.4164 535.787 38.2603 535.716L35.0661 534.237C34.7547 534.093 34.6187 533.723 34.7629 533.412L36.2414 530.217C36.3856 529.906 36.7559 529.77 37.0674 529.914C37.3788 530.058 37.5147 530.429 37.3706 530.74L36.1537 533.369L38.7825 534.586C39.094 534.73 39.2299 535.1 39.0858 535.412C39.0145 535.568 38.886 535.68 38.7364 535.735Z" fill="#455A64"/>
<path d="M19.2599 522.404C18.9375 522.523 18.6012 522.415 18.4828 522.093L18.4399 521.976C18.3215 521.654 18.4871 521.296 18.8096 521.178C19.132 521.059 19.4897 521.225 19.6081 521.547C19.7265 521.87 19.5823 522.286 19.2599 522.404Z" fill="white"/>
<path d="M20.1176 524.74C19.7952 524.859 19.4589 524.752 19.3405 524.429L19.2976 524.312C19.1793 523.99 19.3449 523.632 19.6673 523.514C19.9897 523.395 20.3474 523.561 20.4658 523.883C20.5842 524.206 20.44 524.622 20.1176 524.74Z" fill="white"/>
<path d="M20.9755 527.077C20.6531 527.195 20.3168 527.088 20.1984 526.766L20.1555 526.649C20.0371 526.326 20.2027 525.969 20.5251 525.85C20.8476 525.732 21.2053 525.897 21.3237 526.22C21.4421 526.542 21.2979 526.958 20.9755 527.077Z" fill="white"/>
<path d="M60.6226 537.575C60.3002 537.694 59.9639 537.586 59.8455 537.264L59.8026 537.147C59.6842 536.825 59.8498 536.467 60.1722 536.349C60.4946 536.23 60.8524 536.396 60.9708 536.718C61.0891 537.041 60.945 537.457 60.6226 537.575Z" fill="white"/>
<path d="M61.4804 539.912C61.1579 540.03 60.8216 539.923 60.7033 539.6L60.6604 539.484C60.542 539.161 60.7076 538.803 61.03 538.685C61.3524 538.567 61.7102 538.732 61.8286 539.055C61.9469 539.377 61.8028 539.793 61.4804 539.912Z" fill="white"/>
<path d="M62.3382 542.248C62.0158 542.366 61.6795 542.259 61.5611 541.937L61.5182 541.82C61.3998 541.497 61.5654 541.14 61.8879 541.021C62.2103 540.903 62.568 541.068 62.6864 541.391C62.8048 541.713 62.6606 542.129 62.3382 542.248Z" fill="white"/>
<path d="M48.7704 548.621L45.2658 549.908C44.9796 550.013 44.6607 549.896 44.5102 549.63L43.0673 547.083C41.7964 547.29 40.5226 547.337 39.2689 547.226L38.0168 549.875C37.8857 550.149 37.5761 550.288 37.2855 550.208L33.6903 549.193C33.3973 549.11 33.2061 548.828 33.2406 548.525L33.5683 545.615C32.4433 545.046 31.3865 544.338 30.42 543.503L27.8463 544.91C27.5741 545.064 27.2443 544.989 27.0575 544.747L24.7561 541.801C24.569 541.562 24.5812 541.223 24.7863 540.998L26.7569 538.834C26.4402 538.228 26.1899 537.669 25.9823 537.103C25.776 536.541 25.6038 535.95 25.4496 535.273L22.552 534.909C22.2505 534.872 22.0205 534.621 22.0082 534.316L21.8562 530.581C21.8432 530.278 22.0441 530.009 22.3525 529.946L25.2248 529.353C25.3238 528.72 25.4593 528.097 25.6317 527.494C25.7245 527.161 26.0727 526.973 26.3999 527.066C26.7311 527.159 26.9218 527.505 26.8278 527.834C26.6342 528.516 26.4887 529.228 26.3968 529.953C26.3629 530.215 26.173 530.43 25.9049 530.483L23.1203 531.059L23.2294 533.739L26.0424 534.093C26.3068 534.127 26.5214 534.326 26.575 534.587C26.7397 535.389 26.9227 536.054 27.1505 536.674C27.3799 537.299 27.6687 537.92 28.0593 538.626C28.1876 538.86 28.1546 539.149 27.9739 539.347L26.0613 541.449L27.7132 543.565L30.2088 542.202C30.4497 542.071 30.7312 542.109 30.9271 542.289C32.0024 543.271 33.2051 544.077 34.5014 544.687C34.7418 544.8 34.8857 545.055 34.8555 545.319L34.5377 548.14L37.1172 548.869L38.3322 546.296C38.4477 546.055 38.7025 545.911 38.9692 545.944C40.3854 546.115 41.8341 546.06 43.2758 545.784C43.5381 545.733 43.802 545.856 43.9338 546.089L45.3322 548.558L47.8462 547.635L47.3141 544.846C47.2641 544.584 47.3856 544.319 47.6187 544.188C48.8965 543.466 50.0361 542.569 51.0057 541.524C51.1876 541.326 51.4756 541.269 51.7191 541.38L54.3101 542.555L55.8052 540.33L53.7376 538.385C53.5435 538.203 53.4872 537.916 53.5984 537.674C54.1938 536.371 54.5877 534.978 54.7717 533.533C54.8039 533.27 54.9912 533.058 55.2636 533.002L58.0482 532.426L57.9382 529.744L55.1197 529.379C54.8553 529.345 54.6419 529.146 54.5883 528.885C54.4295 528.094 54.2482 527.435 54.0187 526.81C53.791 526.189 53.5005 525.564 53.1056 524.846C52.9773 524.612 53.0115 524.323 53.1921 524.125L55.1079 522.035L53.4564 519.92L50.9608 521.283C50.7188 521.418 50.4369 521.376 50.2425 521.197C49.1672 520.214 47.9646 519.408 46.6682 518.798C46.4278 518.685 46.2839 518.43 46.3141 518.166L46.6319 515.345L44.0525 514.617L42.8374 517.189C42.7231 517.43 42.4672 517.574 42.2004 517.541C40.7842 517.37 39.3355 517.425 37.8938 517.701C37.6316 517.752 37.3676 517.629 37.2358 517.396L35.837 514.926L33.323 515.849L33.8551 518.638C33.9051 518.9 33.7836 519.165 33.5505 519.296C32.2726 520.018 31.1331 520.915 30.1634 521.96C29.9816 522.158 29.6947 522.215 29.4501 522.104L26.8596 520.93L25.3632 523.155L27.4309 525.1C27.6805 525.336 27.6924 525.73 27.457 525.98C27.2205 526.232 26.8274 526.241 26.5771 526.007L24.1256 523.698C23.9044 523.489 23.8674 523.15 24.0369 522.897L26.1215 519.797C26.2899 519.545 26.6166 519.453 26.8948 519.578L29.5631 520.787C30.4467 519.89 31.4502 519.103 32.5518 518.439L32.0038 515.563C31.9455 515.264 32.1126 514.968 32.3988 514.863L35.9034 513.576C36.1896 513.471 36.5085 513.588 36.659 513.854L38.1019 516.401C39.3728 516.194 40.6466 516.147 41.9003 516.258L43.1524 513.609C43.2831 513.333 43.5927 513.195 43.8837 513.276L47.4789 514.29C47.7719 514.374 47.9631 514.656 47.9286 514.959L47.6009 517.869C48.7259 518.438 49.7827 519.146 50.7491 519.981L53.3229 518.574C53.6014 518.423 53.9265 518.496 54.1117 518.737L56.4131 521.683C56.6002 521.922 56.5872 522.262 56.3822 522.487L54.4084 524.64C54.729 525.256 54.9806 525.819 55.1869 526.381C55.3945 526.946 55.5654 527.534 55.7162 528.201L58.6192 528.577C58.9207 528.614 59.1491 528.864 59.1615 529.169L59.3134 532.904C59.3281 533.208 59.1271 533.477 58.8172 533.539L55.9449 534.132C55.7474 535.392 55.4004 536.617 54.911 537.779L57.0436 539.785C57.2648 539.995 57.303 540.333 57.1334 540.586L55.0489 543.686C54.8789 543.938 54.5506 544.029 54.2755 543.905L51.6072 542.696C50.7236 543.593 49.7202 544.381 48.6185 545.045L49.1666 547.92C49.2237 548.22 49.0566 548.516 48.7704 548.621Z" fill="white"/>
<path d="M44.4447 542.256C38.647 544.384 32.1996 541.4 30.0709 535.602C27.9423 529.804 30.9268 523.357 36.7245 521.228C42.5222 519.1 48.9696 522.084 51.0982 527.882C51.8042 529.805 51.9702 531.878 51.5782 533.879C51.5107 534.215 51.1831 534.435 50.8465 534.371C50.5102 534.303 50.2898 533.977 50.3552 533.639C50.7052 531.863 50.5575 530.02 49.93 528.311C48.0382 523.158 42.3062 520.505 37.1534 522.396C32.0005 524.288 29.3472 530.02 31.2391 535.173C33.131 540.326 38.8629 542.979 44.0158 541.087C45.6804 540.476 47.1518 539.432 48.2709 538.068C48.4865 537.803 48.8794 537.761 49.147 537.981C49.4138 538.199 49.452 538.592 49.234 538.857C47.9736 540.393 46.3185 541.568 44.4447 542.256Z" fill="white"/>
<path d="M50.3425 536.879C50.1907 536.935 50.0169 536.931 49.8612 536.857C49.5508 536.709 49.4195 536.337 49.5673 536.028L49.6549 535.841C49.7991 535.529 50.1694 535.393 50.4808 535.537C50.7923 535.682 50.9282 536.052 50.7841 536.363L50.6905 536.563C50.6168 536.716 50.4897 536.825 50.3425 536.879Z" fill="white"/>
<path d="M41.0727 534.877C41.026 534.894 40.9771 534.905 40.925 534.911C40.582 534.948 40.2761 534.7 40.2398 534.359L39.6924 529.258C39.6541 528.915 39.897 528.613 40.2442 528.573C40.5872 528.536 40.8931 528.784 40.9293 529.125L41.4768 534.226C41.5091 534.517 41.3356 534.78 41.0727 534.877Z" fill="white"/>
<path d="M44.5773 533.59C44.4278 533.645 44.2573 533.643 44.1012 533.571C43.7897 533.427 43.6538 533.057 43.7979 532.745L45.0155 530.115L42.3867 528.898C42.0753 528.754 41.9393 528.384 42.0835 528.072C42.2277 527.761 42.598 527.625 42.9094 527.769L46.1036 529.248C46.415 529.392 46.551 529.762 46.4068 530.074L44.9282 533.268C44.8554 533.423 44.7268 533.535 44.5773 533.59Z" fill="white"/>
<path d="M38.7364 535.735C38.5869 535.79 38.4164 535.787 38.2603 535.716L35.0661 534.237C34.7547 534.093 34.6187 533.723 34.7629 533.412L36.2414 530.217C36.3856 529.906 36.7559 529.77 37.0674 529.914C37.3788 530.058 37.5147 530.429 37.3706 530.74L36.1537 533.369L38.7825 534.586C39.094 534.73 39.2299 535.1 39.0858 535.412C39.0145 535.568 38.886 535.68 38.7364 535.735Z" fill="white"/>
<defs>
<filter id="filter0_d_329_310" x="-8.55042" y="486.45" width="97.4573" height="97.6716" filterUnits="userSpaceOnUse" color-interpolation-filters="sRGB">
<feFlood flood-opacity="0" result="BackgroundImageFix"/>
<feColorMatrix in="SourceAlpha" type="matrix" values="0 0 0 0 0 0 0 0 0 0 0 0 0 0 0 0 0 0 127 0" result="hardAlpha"/>
<feOffset dy="4"/>
<feGaussianBlur stdDeviation="5"/>
<feComposite in2="hardAlpha" operator="out"/>
<feColorMatrix type="matrix" values="0 0 0 0 1 0 0 0 0 1 0 0 0 0 1 0 0 0 0.15 0"/>
<feBlend mode="normal" in2="BackgroundImageFix" result="effect1_dropShadow_329_310"/>
<feBlend mode="normal" in="SourceGraphic" in2="effect1_dropShadow_329_310" result="shape"/>
</filter>
<filter id="filter1_d_329_310" x="187" y="624" width="28.2721" height="28.3203" filterUnits="userSpaceOnUse" color-interpolation-filters="sRGB">
<feFlood flood-opacity="0" result="BackgroundImageFix"/>
<feColorMatrix in="SourceAlpha" type="matrix" values="0 0 0 0 0 0 0 0 0 0 0 0 0 0 0 0 0 0 127 0" result="hardAlpha"/>
<feOffset dy="4"/>
<feGaussianBlur stdDeviation="2"/>
<feComposite in2="hardAlpha" operator="out"/>
<feColorMatrix type="matrix" values="0 0 0 0 1 0 0 0 0 1 0 0 0 0 1 0 0 0 0.15 0"/>
<feBlend mode="normal" in2="BackgroundImageFix" result="effect1_dropShadow_329_310"/>
<feBlend mode="normal" in="SourceGraphic" in2="effect1_dropShadow_329_310" result="shape"/>
</filter>
<filter id="filter2_d_329_310" x="419" y="449" width="28.2721" height="28.3203" filterUnits="userSpaceOnUse" color-interpolation-filters="sRGB">
<feFlood flood-opacity="0" result="BackgroundImageFix"/>
<feColorMatrix in="SourceAlpha" type="matrix" values="0 0 0 0 0 0 0 0 0 0 0 0 0 0 0 0 0 0 127 0" result="hardAlpha"/>
<feOffset dy="4"/>
<feGaussianBlur stdDeviation="2"/>
<feComposite in2="hardAlpha" operator="out"/>
<feColorMatrix type="matrix" values="0 0 0 0 1 0 0 0 0 1 0 0 0 0 1 0 0 0 0.15 0"/>
<feBlend mode="normal" in2="BackgroundImageFix" result="effect1_dropShadow_329_310"/>
<feBlend mode="normal" in="SourceGraphic" in2="effect1_dropShadow_329_310" result="shape"/>
</filter>
<filter id="filter3_d_329_310" x="143" y="431" width="28.2721" height="28.3203" filterUnits="userSpaceOnUse" color-interpolation-filters="sRGB">
<feFlood flood-opacity="0" result="BackgroundImageFix"/>
<feColorMatrix in="SourceAlpha" type="matrix" values="0 0 0 0 0 0 0 0 0 0 0 0 0 0 0 0 0 0 127 0" result="hardAlpha"/>
<feOffset dy="4"/>
<feGaussianBlur stdDeviation="2"/>
<feComposite in2="hardAlpha" operator="out"/>
<feColorMatrix type="matrix" values="0 0 0 0 1 0 0 0 0 1 0 0 0 0 1 0 0 0 0.15 0"/>
<feBlend mode="normal" in2="BackgroundImageFix" result="effect1_dropShadow_329_310"/>
<feBlend mode="normal" in="SourceGraphic" in2="effect1_dropShadow_329_310" result="shape"/>
</filter>
<filter id="filter4_d_329_310" x="441" y="251" width="28.2721" height="28.3203" filterUnits="userSpaceOnUse" color-interpolation-filters="sRGB">
<feFlood flood-opacity="0" result="BackgroundImageFix"/>
<feColorMatrix in="SourceAlpha" type="matrix" values="0 0 0 0 0 0 0 0 0 0 0 0 0 0 0 0 0 0 127 0" result="hardAlpha"/>
<feOffset dy="4"/>
<feGaussianBlur stdDeviation="2"/>
<feComposite in2="hardAlpha" operator="out"/>
<feColorMatrix type="matrix" values="0 0 0 0 1 0 0 0 0 1 0 0 0 0 1 0 0 0 0.15 0"/>
<feBlend mode="normal" in2="BackgroundImageFix" result="effect1_dropShadow_329_310"/>
<feBlend mode="normal" in="SourceGraphic" in2="effect1_dropShadow_329_310" result="shape"/>
</filter>
<filter id="filter5_d_329_310" x="73" y="0" width="28.2721" height="28.3203" filterUnits="userSpaceOnUse" color-interpolation-filters="sRGB">
<feFlood flood-opacity="0" result="BackgroundImageFix"/>
<feColorMatrix in="SourceAlpha" type="matrix" values="0 0 0 0 0 0 0 0 0 0 0 0 0 0 0 0 0 0 127 0" result="hardAlpha"/>
<feOffset dy="4"/>
<feGaussianBlur stdDeviation="2"/>
<feComposite in2="hardAlpha" operator="out"/>
<feColorMatrix type="matrix" values="0 0 0 0 1 0 0 0 0 1 0 0 0 0 1 0 0 0 0.15 0"/>
<feBlend mode="normal" in2="BackgroundImageFix" result="effect1_dropShadow_329_310"/>
<feBlend mode="normal" in="SourceGraphic" in2="effect1_dropShadow_329_310" result="shape"/>
</filter>
</defs>
</svg>
