<svg width="91" height="86" viewBox="0 0 91 86" fill="none" xmlns="http://www.w3.org/2000/svg">
<path d="M42.4085 62.566C68.5507 65.6739 73.9656 27.3806 48.0064 23.1085C21.903 20.0845 16.5124 58.2775 42.4085 62.566ZM38.005 48.7067C39.616 51.3977 41.5498 53.8817 43.7634 56.1036C42.9996 57.1194 42.3345 58.2057 41.7771 59.3478C37.5552 58.4737 33.8299 56.0121 31.3701 52.4712L38.005 48.7067ZM30.6996 34.276C31.2036 33.4354 31.783 32.6425 32.4308 31.907C32.4163 32.6901 32.454 33.4733 32.5435 34.2514C31.9183 34.3217 31.2895 34.3557 30.6603 34.353L30.6996 34.276ZM45.4051 25.9871C45.0846 26.5286 44.733 27.051 44.3519 27.5516C43.7298 27.0756 43.0768 26.6415 42.3972 26.2522C43.389 26.0659 44.3964 25.9753 45.4055 25.9816L45.4051 25.9871ZM59.7459 51.4182C59.2419 52.2588 58.6625 53.0517 58.0147 53.7872C58.0291 53.0041 57.9915 52.2209 57.9019 51.4428C58.5272 51.3725 59.156 51.3385 59.7851 51.3412L59.7459 51.4182ZM45.0404 59.7071C45.3609 59.1656 45.7125 58.6432 46.0936 58.1426C46.7156 58.6186 47.3686 59.0527 48.0483 59.442C47.059 59.6262 46.0543 59.7153 45.048 59.708L45.0404 59.7071ZM51.9012 57.7182C50.5363 57.3854 49.264 56.7491 48.179 55.8567C48.7573 55.3284 49.3712 54.8404 50.0163 54.3961L51.9012 57.7182ZM54.5706 56.2036L52.6857 52.8815C53.398 52.5556 54.1318 52.279 54.882 52.0535C55.0916 53.4427 54.9851 54.8613 54.5706 56.2036ZM51.1363 50.1506L47.3188 43.4223L51.2949 41.1663C52.606 43.6417 53.6241 46.2616 54.3286 48.9728C53.2324 49.2724 52.1643 49.6664 51.1363 50.1506ZM45.8042 40.7528L41.9866 34.0245C42.9304 33.3922 43.8176 32.6793 44.6382 31.8937C46.6044 33.8889 48.3311 36.1068 49.7834 38.5022L45.8042 40.7528ZM40.4372 31.2936L38.5523 27.9715C39.9172 28.3042 41.1895 28.9405 42.2745 29.833C41.6962 30.3613 41.0823 30.8493 40.4372 31.2936ZM35.8829 29.4861L37.7678 32.8082C37.0555 33.134 36.3217 33.4107 35.5715 33.6361C35.3619 32.247 35.4684 30.8284 35.8829 29.4861ZM39.3172 35.539L43.1347 42.2674L39.1586 44.5234C37.8472 42.048 36.8292 39.4281 36.1249 36.7168C37.2211 36.4173 38.2892 36.0232 39.3172 35.539ZM44.6493 44.9369L48.4668 51.6652C47.523 52.2975 46.6359 53.0104 45.8153 53.796C43.8493 51.8006 42.1226 49.5828 40.6701 47.1875L44.6493 44.9369ZM61.1597 48.3435C59.8933 48.2361 58.6196 48.2498 57.3559 48.3844C56.5847 45.3465 55.4453 42.4141 53.963 39.6524L60.598 35.8879C62.3734 39.8146 62.5744 44.2729 61.1597 48.3435ZM59.0834 33.2185L52.4484 36.983C50.8375 34.292 48.9037 31.8079 46.6901 29.5861C47.4539 28.5703 48.119 27.484 48.6764 26.3419C52.8983 27.216 56.6236 29.6775 59.0834 33.2185ZM29.2938 37.3462C30.5602 37.4535 31.8339 37.4398 33.0976 37.3053C33.8688 40.3432 35.0082 43.2756 36.4905 46.0372L29.8555 49.8017C28.0801 45.875 27.8791 41.4168 29.2938 37.3462ZM72.2663 48.713C74.9212 50.0774 71.9459 53.8051 71.3413 55.8243C62.7638 74.584 34.6646 77.6079 22.4214 60.952L21.9413 67.6221C21.9268 67.8232 21.8728 68.0194 21.7825 68.1995C21.6921 68.3797 21.5671 68.5403 21.4147 68.6722C21.2623 68.804 21.0854 68.9046 20.8941 68.9681C20.7028 69.0316 20.5009 69.0568 20.2998 69.0422C20.0988 69.0277 19.9026 68.9737 19.7225 68.8833C19.5423 68.793 19.3817 68.668 19.2498 68.5156C19.118 68.3632 19.0174 68.1863 18.9539 67.995C18.8904 67.8037 18.8652 67.6018 18.8798 67.4007L19.6749 56.3632C19.6994 56.1141 19.7834 55.8746 19.9198 55.6647C20.0562 55.4548 20.241 55.2808 20.4587 55.1573C20.6764 55.0338 20.9205 54.9644 21.1707 54.955C21.4208 54.9455 21.6695 54.9963 21.8959 55.1031L31.7786 60.0822C31.9586 60.1728 32.119 60.298 32.2507 60.4507C32.3823 60.6033 32.4826 60.7804 32.5458 60.9717C32.609 61.1631 32.6339 61.3651 32.619 61.5661C32.6042 61.7671 32.5499 61.9632 32.4592 62.1433C31.4292 64.3985 27.6297 61.1288 26.2997 60.7595C39.2806 75.5341 65.8021 68.8901 70.3776 49.7846C70.4863 49.3933 70.7457 49.0609 71.099 48.8605C71.4522 48.6601 71.8706 48.6079 72.2623 48.7153L72.2663 48.713ZM74.1978 39.4638C74.1562 41.6047 75.1908 44.7 73.5285 46.3136C73.2849 46.4487 73.0092 46.5153 72.7307 46.5064C72.4523 46.4975 72.1814 46.4134 71.9469 46.263C71.7124 46.1126 71.5229 45.9016 71.3986 45.6523C71.2742 45.403 71.2197 45.1247 71.2407 44.8469C71.9385 42.7836 69.8293 38.92 72.4942 38.1032C72.6955 38.0797 72.8996 38.0963 73.0945 38.1522C73.2893 38.208 73.4712 38.3018 73.6296 38.4284C73.788 38.5549 73.9198 38.7115 74.0173 38.8892C74.1148 39.067 74.1762 39.2623 74.1978 39.4638ZM16.2557 46.2258C16.3896 44.1296 14.8184 39.5567 17.7989 39.1749C20.5003 39.8935 18.5278 43.8181 19.3027 45.868C19.3258 46.0683 19.3093 46.2711 19.2541 46.465C19.1988 46.6589 19.1059 46.84 18.9807 46.998C18.8554 47.1559 18.7003 47.2877 18.5241 47.3857C18.348 47.4837 18.1542 47.5461 17.9539 47.5693C17.7537 47.5924 17.5508 47.5759 17.3569 47.5206C17.163 47.4654 16.9819 47.3725 16.824 47.2472C16.666 47.122 16.5342 46.9668 16.4362 46.7907C16.3382 46.6145 16.2758 46.4208 16.2527 46.2205L16.2557 46.2258ZM72.3328 19.6174C72.0081 20.4632 72.1432 31.8217 70.7664 31.883C69.9882 33.0303 60.3711 27.1135 59.4362 26.9399C59.0727 26.7568 58.7967 26.4369 58.6691 26.0503C58.5414 25.6638 58.5725 25.2424 58.7556 24.8789C58.9386 24.5153 59.2586 24.2393 59.6451 24.1117C60.0317 23.984 60.4531 24.0152 60.8166 24.1982L65.6168 26.6162C53.4085 9.97225 24.8505 15.8414 20.0805 35.9007C19.5703 37.8346 16.5778 36.9917 17.1198 35.0892C22.8735 11.9557 55.3304 6.0517 68.818 25.7279L69.2735 19.4C69.3028 18.994 69.4922 18.6163 69.8001 18.35C70.1079 18.0837 70.509 17.9505 70.9149 17.9799C71.3209 18.0093 71.6986 18.1987 71.965 18.5065C72.2313 18.8144 72.3644 19.2154 72.335 19.6214L72.3328 19.6174Z" fill="white"/>
</svg>
