<svg width="122" height="107" viewBox="0 0 122 107" fill="none" xmlns="http://www.w3.org/2000/svg">
<path d="M86.9216 3.11093L8.10714 33.3544C3.63689 35.0697 1.30188 39.858 2.90208 44.0282L24.0617 99.1703C25.6619 103.34 30.6007 105.338 35.071 103.622L113.885 73.3787C118.356 71.6633 120.691 66.875 119.091 62.7049L97.9309 7.5628C96.3307 3.39269 91.3919 1.39557 86.9216 3.11093ZM116.012 63.8863C117.004 66.4728 115.556 69.4428 112.783 70.5068L33.9689 100.75C31.1962 101.814 28.1329 100.575 27.1403 97.9889L5.98068 42.8468C4.98814 40.2602 6.43645 37.2903 9.20918 36.2263L88.0237 5.98283C90.7964 4.91885 93.8597 6.15759 94.8523 8.74415L116.012 63.8863Z" fill="white"/>
<path d="M99.4338 45.5362C100.284 45.21 100.727 44.3026 100.422 43.5095L96.8956 34.3191C96.5913 33.5261 95.6554 33.1475 94.8051 33.4738L79.9248 39.1838L77.5003 32.8655L82.5288 30.9359C83.3789 30.6097 83.8215 29.7024 83.5171 28.9092L79.9905 19.7188C79.6862 18.9259 78.7503 18.5473 77.9001 18.8735L25.3573 39.0357C24.5073 39.3619 24.0646 40.2693 24.369 41.0625L27.8956 50.2528C28.1999 51.0458 29.1358 51.4244 29.9861 51.0981L35.0146 49.1685L37.4391 55.4868L22.5588 61.1969C21.7087 61.5231 21.2661 62.4304 21.5704 63.2236L25.097 72.414C25.4013 73.2069 26.3372 73.5855 27.1875 73.2593L32.216 71.3297L34.6405 77.648L29.612 79.5776C28.7619 79.9038 28.3193 80.8111 28.6236 81.6043L32.1502 90.7947C32.4545 91.5877 33.3904 91.9662 34.2407 91.64L47.3764 86.5994C48.2264 86.2732 48.6691 85.3659 48.3647 84.5727L44.8381 75.3823C44.5338 74.5893 43.5979 74.2107 42.7477 74.537L37.7191 76.4666L35.2946 70.1483L51.9194 63.7689L54.344 70.0872L49.3154 72.0168C48.4653 72.343 48.0227 73.2504 48.3271 74.0435L51.8537 83.2339C52.158 84.0269 53.0939 84.4055 53.9441 84.0792L67.0798 79.0386C67.9299 78.7124 68.3725 77.8051 68.0682 77.0119L64.5415 67.8215C64.2372 67.0286 63.3013 66.65 62.4511 66.9762L57.4226 68.9058L54.998 62.5875L60.0266 60.6579C60.8766 60.3317 61.3193 59.4244 61.0149 58.6312L57.4883 49.4408C57.184 48.6479 56.2481 48.2693 55.3979 48.5955L40.5175 54.3055L38.093 47.9873L74.4215 34.047L76.846 40.3652L61.9656 46.0753C61.1156 46.4015 60.6729 47.3089 60.9773 48.102L64.5039 57.2924C64.8082 58.0854 65.7441 58.464 66.5943 58.1377L71.6229 56.2081L74.0474 62.5264L69.0188 64.456C68.1688 64.7822 67.7261 65.6896 68.0305 66.4827L71.5571 75.6731C71.8614 76.4661 72.7973 76.8447 73.6476 76.5184L86.7832 71.4779C87.6333 71.1517 88.076 70.2443 87.7716 69.4511L84.245 60.2608C83.9407 59.4678 83.0048 59.0892 82.1545 59.4154L77.126 61.345L74.7015 55.0268L91.3263 48.6473L93.7508 54.9656L88.7223 56.8952C87.8722 57.2214 87.4296 58.1288 87.7339 58.9219L91.2606 68.1123C91.5648 68.9053 92.5007 69.2839 93.351 68.9576L106.487 63.9171C107.337 63.5909 107.779 62.6835 107.475 61.8903L103.948 52.7C103.644 51.907 102.708 51.5284 101.858 51.8546L96.8294 53.7842L94.4049 47.466L99.4338 45.5362ZM42.3104 77.9998L44.7349 84.3181L34.6778 88.1773L32.2533 81.859L42.3104 77.9998ZM62.014 70.4389L64.4385 76.7572L54.3814 80.6164L51.9569 74.2981L62.014 70.4389ZM54.9608 52.0582L57.3853 58.3765L27.6246 69.7966L25.2001 63.4783L54.9608 52.0582ZM30.4232 47.6354L27.9987 41.3172L77.4628 22.3363L79.8873 28.6546L30.4232 47.6354ZM81.7176 62.8781L84.1421 69.1964L74.085 73.0556L71.6605 66.7373L81.7176 62.8781ZM101.421 55.3172L103.846 61.6355L93.7887 65.4947L91.3642 59.1764L101.421 55.3172ZM67.0318 54.6748L64.6073 48.3566L94.368 36.9365L96.7925 43.2548L67.0318 54.6748Z" fill="white"/>
</svg>
