<svg width="86" height="82" viewBox="0 0 86 82" fill="none" xmlns="http://www.w3.org/2000/svg">
<path d="M58.931 3.00211L51.4408 1.07469C48.3435 0.277812 45.1748 2.14985 44.3782 5.24727C43.6917 7.91638 38.9016 26.5416 38.1685 29.3921L21.7768 25.1749C21.5173 25.1077 21.2488 25.0968 20.9719 25.141L2.25147 28.3107C1.49962 28.4378 0.892019 28.9963 0.7023 29.7354C0.512148 30.4747 0.774665 31.2566 1.37209 31.7313L16.2397 43.5425C16.2428 43.5447 16.2459 43.547 16.249 43.5493C16.4429 43.7014 16.6859 43.8304 16.9606 43.9015L33.3522 48.1187C32.4545 51.6092 27.8337 69.5757 27.1426 72.2628C26.3441 75.3678 28.2102 78.5274 31.3156 79.326L38.8057 81.2534C41.9031 82.0503 45.072 80.1787 45.8688 77.0806L52.0784 52.9365L76.2224 59.1478C79.3198 59.9447 82.4887 58.0731 83.2851 54.9753L85.2118 47.4849C86.0102 44.3795 84.1443 41.2203 81.0387 40.4212L56.8946 34.2099L63.1044 10.0651C63.9029 6.96009 62.0366 3.80112 58.931 3.00211ZM7.17175 31.4002L18.6806 29.4513L16.3116 38.6611L7.17175 31.4002ZM42.1234 76.1174C41.8579 77.1498 40.8018 77.7738 39.7693 77.5081L32.2787 75.581C31.2435 75.3146 30.6216 74.2619 30.8879 73.2267L31.2894 71.6652L36.9071 73.1109C37.941 73.3769 38.9953 72.754 39.2612 71.7201C39.5273 70.6856 38.9046 69.6316 37.8701 69.3654L32.2526 67.9202L33.2155 64.1747L35.0887 64.6567C36.1225 64.9226 37.1765 64.3 37.4428 63.2659C37.7089 62.2313 37.0862 61.1773 36.0516 60.9112L34.1792 60.4294L35.1423 56.6844L40.7605 58.1298C41.7943 58.3958 42.8482 57.7731 43.1145 56.739C43.3806 55.7045 42.7579 54.6505 41.7234 54.3843L36.1055 52.9394L37.0972 49.0822L48.3334 51.973L42.1234 76.1174ZM19.7964 40.6375L20.7596 36.8924L70.599 49.7146L69.6361 53.4601L19.7964 40.6375ZM80.0753 44.167C81.1105 44.4333 81.7324 45.486 81.4662 46.5212L79.5401 54.0118C79.2746 55.0442 78.2185 55.6682 77.1856 55.4028L73.3811 54.4236C73.6422 53.4084 75.9733 44.3444 76.2708 43.1878L80.0753 44.167ZM72.5258 42.2243L71.5622 45.9696L21.7232 33.1471L22.6861 29.4017L72.5258 42.2243ZM59.359 9.10185L53.1494 33.246L41.9138 30.3553L42.848 26.7216L48.4662 28.167C49.5002 28.4334 50.5546 27.8105 50.8202 26.7762C51.0863 25.7417 50.4636 24.6877 49.4293 24.422L43.8116 22.9763L44.7748 19.2312L46.6473 19.713C47.6816 19.9787 48.7355 19.3561 49.0018 18.322C49.2674 17.2877 48.6447 16.2337 47.6107 15.9673L45.7382 15.4855L46.7014 11.7405L52.3188 13.1857C53.3533 13.4519 54.4072 12.8292 54.6733 11.7947C54.9392 10.7608 54.3165 9.70683 53.2824 9.44042L47.6645 7.99543L48.1232 6.21076C48.3891 5.17803 49.4452 4.55411 50.4777 4.81973L57.9683 6.74689C59.003 7.01349 59.6252 8.06662 59.359 9.10185Z" fill="white"/>
</svg>
