<svg width="123" height="131" viewBox="0 0 123 131" fill="none" xmlns="http://www.w3.org/2000/svg">
<path d="M70.6792 83.4988C71.8416 83.0343 72.9801 82.4869 74.0865 81.8563C80.3304 78.3004 84.8209 72.5468 86.731 65.6552C88.6403 58.7639 87.741 51.5598 84.1982 45.3697C80.6554 39.1797 74.8938 34.7456 67.9736 32.8829C61.0528 31.0213 53.8023 31.9515 47.5602 35.5096C41.3162 39.0654 36.8265 44.8187 34.9164 51.7103C32.0081 62.2056 35.8304 72.9542 43.7683 79.4168L33.3347 117.066C31.7339 122.845 35.1526 128.816 40.9552 130.378C43.257 130.998 45.655 130.849 47.8474 129.973C48.323 129.783 48.7883 129.559 49.2414 129.302C51.7848 127.853 53.6105 125.52 54.3837 122.73L64.814 85.0917C66.8114 84.7821 68.7785 84.2583 70.6792 83.4988ZM37.7658 52.4777C39.4651 46.3432 43.4619 41.2222 49.0181 38.0572C50.0042 37.4965 51.0162 37.0087 52.0516 36.595C56.8531 34.6763 62.1201 34.3558 67.1872 35.7201C73.3472 37.3772 78.4757 41.3244 81.6292 46.8335C84.7818 52.343 85.5824 58.7553 83.8821 64.8879C82.1828 71.0223 78.186 76.1433 72.629 79.3086C67.0676 82.4734 60.6192 83.3042 54.4598 81.6456C41.7453 78.2236 34.2563 65.1394 37.7658 52.4777ZM51.5347 121.963C50.972 123.996 49.64 125.697 47.7834 126.754C45.9312 127.812 43.7802 128.091 41.7406 127.54C37.5082 126.402 35.016 122.047 36.1838 117.833L46.3193 81.2612C48.5373 82.6652 51.0024 83.7643 53.6731 84.4831C56.3163 85.1942 59.0064 85.4799 61.6711 85.3853L51.5347 121.963ZM42.4616 53.7404C45.2553 43.6601 55.7656 37.6719 65.8914 40.397C66.678 40.6085 67.1401 41.4147 66.9232 42.1979C66.7076 42.9816 65.894 43.4447 65.1066 43.2335C56.5509 40.9315 47.6711 45.9893 45.3106 54.5075C45.1821 54.9693 44.8456 55.321 44.4298 55.4871C44.141 55.6025 43.8145 55.629 43.4927 55.5427C42.7059 55.3301 42.2448 54.5235 42.4616 53.7404ZM87.8157 6.3L121.74 91.1949C123.497 95.593 121.322 100.612 116.889 102.383L59.2465 125.417C58.4882 125.72 57.6291 125.355 57.3285 124.603C57.0278 123.85 57.399 122.994 58.1573 122.691L115.8 99.6572C118.718 98.4913 120.15 95.1875 118.993 92.2924L85.069 7.39756C83.9122 4.5025 80.5978 3.09522 77.6803 4.26106L6.56874 32.6771C3.65119 33.843 2.21861 37.1471 3.37547 40.0422L31.6232 110.732C31.9239 111.485 31.5526 112.341 30.7944 112.644C30.0361 112.947 29.177 112.582 28.8763 111.83L0.628634 41.1398C-1.12877 36.7419 1.04727 31.7226 5.47957 29.9515L76.5911 1.5354C81.0232 -0.235661 86.0583 1.90207 87.8157 6.3Z" fill="white"/>
</svg>
