<svg width="241" height="241" viewBox="0 0 241 241" fill="none" xmlns="http://www.w3.org/2000/svg">
<path d="M196.652 100.835L163.474 80.1656C160.197 78.1241 155.87 79.1291 153.828 82.4064L139.71 105.068C137.668 108.346 138.673 112.673 141.951 114.714L143.101 115.431L139.854 120.643C139.244 121.622 139.283 122.861 139.955 123.8C140.178 124.111 140.454 124.367 140.765 124.561C141.392 124.951 142.159 125.089 142.91 124.915L154.137 122.307L175.129 135.384C178.406 137.426 182.733 136.421 184.775 133.143L198.893 110.481C200.935 107.204 199.929 102.877 196.652 100.835ZM177.04 132.317L156.007 119.214C155.214 118.72 154.276 118.564 153.366 118.775L143.906 120.973L146.229 117.244C147.249 115.607 146.747 113.445 145.11 112.425L143.862 111.647C142.276 110.659 141.789 108.565 142.777 106.979L156.895 84.3176C157.883 82.7318 159.977 82.2454 161.563 83.2333L194.741 103.903C196.327 104.891 196.813 106.985 195.825 108.57L181.707 131.232C180.72 132.818 178.626 133.304 177.04 132.317Z" fill="white"/>
<path d="M166.962 115.151C166.819 114.5 166.465 113.999 165.903 113.648C165.343 113.3 164.737 113.197 164.084 113.339C163.432 113.482 162.93 113.835 162.579 114.398C162.24 114.943 162.146 115.544 162.299 116.2C162.451 116.857 162.808 117.36 163.372 117.711C163.934 118.062 164.54 118.158 165.187 118C165.835 117.842 166.329 117.491 166.669 116.945C167.008 116.4 167.106 115.802 166.962 115.151Z" fill="white"/>
<path d="M179.145 102.268C178.621 100.795 177.525 99.5381 175.854 98.4972C174.218 97.4783 172.707 97.0622 171.322 97.2486C169.936 97.435 168.98 97.9503 168.454 98.7946C168.159 99.2694 168.09 99.7398 168.25 100.206C168.41 100.671 168.691 101.03 169.095 101.281C169.41 101.477 169.734 101.544 170.065 101.48C170.396 101.417 170.697 101.306 170.966 101.147C171.235 100.988 171.623 100.931 172.13 100.977C172.637 101.023 173.188 101.231 173.784 101.603C174.485 102.039 174.96 102.546 175.21 103.122C175.459 103.698 175.406 104.272 175.05 104.844C174.845 105.173 174.545 105.437 174.152 105.638C173.759 105.838 173.435 105.966 173.179 106.024C172.924 106.081 172.497 106.14 171.898 106.199C171.299 106.259 170.957 106.298 170.872 106.317C169.068 106.588 167.658 107.538 166.644 109.166C166.223 109.842 166.042 110.367 166.102 110.741C166.162 111.115 166.465 111.472 167.01 111.811C168.048 112.458 168.791 112.421 169.24 111.699C169.591 111.137 169.873 110.733 170.087 110.487C170.3 110.242 170.629 110.008 171.074 109.784C171.519 109.561 172.086 109.407 172.775 109.324C175.714 109.03 177.709 108.04 178.761 106.351C179.54 105.103 179.667 103.742 179.145 102.268Z" fill="white"/>
<path d="M110.227 153.022L103.976 147.192C103.213 146.481 102.643 145.672 102.271 144.834C102.246 144.765 102.216 144.699 102.182 144.634C101.579 143.136 101.624 141.565 102.407 140.308L104.249 137.35C105.751 137.194 107.229 136.859 108.651 136.354C112.113 138.418 116.597 137.402 118.835 134.065C120.833 134.542 123.002 133.728 124.146 131.891L129.022 124.065C130.131 122.284 129.953 120.064 128.748 118.488C129.641 118.651 130.533 118.123 130.802 117.234C132.714 110.908 133.04 105.131 131.774 100.063C130.315 94.2228 127.439 89.7727 123.225 86.8351C122.954 86.6466 116.489 82.2251 107.626 83.5457C105.082 83.9246 102.504 84.7845 99.9612 86.1001C99.9593 86.101 99.9573 86.1016 99.9554 86.1026C99.9482 86.106 99.9415 86.11 99.9343 86.1135C99.9287 86.1166 99.9229 86.1191 99.9173 86.122C99.9161 86.1228 99.915 86.1237 99.9136 86.1242C97.6013 87.2631 95.5294 88.7824 93.7561 90.6418C92.5491 91.9073 91.5036 93.3093 90.6335 94.8228C88.7451 94.5263 86.7721 95.3534 85.6994 97.0754L80.8239 104.901C79.3927 107.199 80.0975 110.232 82.3946 111.663L84.4062 112.916C83.0273 117.235 83.2902 121.852 84.9911 125.92L83.4032 128.469C82.62 129.726 81.2286 130.459 79.6174 130.578C79.5457 130.576 79.4737 130.579 79.4012 130.586C78.4854 130.622 77.5073 130.466 76.5322 130.095L68.5431 127.054C61.1421 124.236 53.4561 126.308 49.8519 132.094L45.0847 139.746C44.557 140.593 44.8157 141.707 45.6629 142.235L106.686 180.252C107.533 180.779 108.648 180.52 109.176 179.673L113.943 172.021C117.547 166.236 116.019 158.423 110.227 153.022ZM113.703 133.631C114.283 133.192 114.842 132.719 115.373 132.208L115.607 132.354C115.1 132.974 114.433 133.407 113.703 133.631ZM125.955 122.153L121.079 129.979C120.702 130.585 119.902 130.771 119.296 130.394L117.772 129.444L118.303 128.592L124.017 119.421L125.541 120.37C126.146 120.747 126.332 121.548 125.955 122.153ZM108.159 87.1201C115.553 86.0183 121.108 89.765 121.158 89.8001C124.635 92.2234 127.027 95.9706 128.268 100.939C129.374 105.365 129.063 110.496 127.342 116.188C127.235 116.543 127.243 116.906 127.344 117.236L125.864 116.314C126.071 115.562 125.774 114.734 125.078 114.3C124.774 114.111 124.435 114.024 124.101 114.028C124.093 114.028 124.088 114.027 124.08 114.027C121.766 114.082 117.441 112.307 115.36 111.01C110.261 107.833 106.484 102.952 104.387 97.0282L102.788 88.7459C104.589 87.9307 106.391 87.3833 108.159 87.1201ZM86.3601 108.693L85.8293 109.545L84.3057 108.596C83.6999 108.218 83.514 107.418 83.8914 106.812L88.7668 98.9864C89.1443 98.3805 89.9443 98.1946 90.5501 98.5721L92.0738 99.5213L86.3601 108.693ZM95.8223 96.1332C95.5962 96.057 95.3617 96.0279 95.131 96.0428C94.8246 95.997 94.5185 95.9459 94.2134 95.8845C94.8421 94.9021 95.5636 93.9823 96.3712 93.1358C97.2342 92.2308 98.1852 91.4267 99.2085 90.7214C99.4436 92.5671 99.8068 94.3575 100.293 96.0811C98.5853 96.289 97.2635 96.248 96.673 96.2101C96.3894 96.192 96.1058 96.1647 95.8223 96.1332ZM89.4275 110.604L96.0967 99.8985L96.1614 99.7947C96.2549 99.8019 96.3484 99.8112 96.4418 99.8172C97.2294 99.8677 99.1094 99.9234 101.478 99.5658C103.925 105.658 108.027 110.7 113.449 114.077C115.167 115.148 118.279 116.57 121.112 117.249L115.235 126.682C113.666 129.201 111.473 131.098 108.981 132.306L99.552 126.432C98.7048 125.904 97.5904 126.163 97.0628 127.01C96.5351 127.857 96.7939 128.972 97.641 129.499L104.383 133.699C100.989 134.165 97.4202 133.496 94.2921 131.547C87.1769 127.114 84.9947 117.719 89.4275 110.604ZM107.063 176.229L98.5783 170.943L100.202 168.337C100.729 167.49 100.471 166.376 99.6233 165.848C98.7762 165.32 97.6618 165.579 97.1341 166.426L95.5108 169.032L60.6723 147.328L62.2955 144.722C62.8232 143.875 62.5645 142.761 61.7173 142.233C60.8701 141.705 59.7557 141.964 59.2281 142.811L57.6048 145.417L49.1075 140.123L52.9192 134.005C55.5973 129.706 61.4932 128.236 67.2572 130.431L75.2462 133.473C76.2587 133.858 77.2812 134.087 78.2822 134.172C78.7648 135.453 79.3725 136.683 80.0974 137.842C80.2484 138.083 80.4466 138.276 80.6727 138.417C81.2402 138.771 81.9828 138.794 82.5878 138.416C83.4338 137.886 83.6906 136.772 83.1617 135.926C82.7312 135.238 82.3525 134.518 82.0248 133.775C83.8648 133.192 85.4391 132.036 86.4706 130.38L86.993 129.541C88.3938 131.518 90.1995 133.255 92.3814 134.615C94.7772 136.107 97.3821 136.989 100.015 137.312L99.339 138.397C98.3079 140.052 97.9635 141.974 98.2507 143.882C94.8614 144.017 91.4912 143.138 88.5826 141.326C87.9922 140.958 87.4209 140.553 86.8841 140.12C86.1063 139.493 84.9694 139.616 84.3432 140.393C83.7169 141.17 83.8394 142.308 84.6163 142.934C85.2663 143.458 85.9581 143.949 86.6718 144.394C90.5265 146.795 95.05 147.845 99.5422 147.413C100.06 148.276 100.717 149.095 101.511 149.835L107.763 155.665C112.273 159.872 113.553 165.812 110.875 170.11L107.063 176.229Z" fill="white"/>
<path d="M98.1655 125.372C100.033 126.536 102.343 126.988 104.65 126.452C105.557 126.242 106.122 125.336 105.911 124.429C105.7 123.522 104.795 122.958 103.888 123.169C101.083 123.82 98.2724 122.069 97.6212 119.265C97.4105 118.358 96.5048 117.794 95.5977 118.004C94.691 118.215 94.1266 119.121 94.3373 120.027C94.8733 122.335 96.2979 124.209 98.1655 125.372Z" fill="white"/>
<path d="M99.5595 110.336C100.35 110.828 101.389 110.587 101.882 109.797C102.374 109.006 102.132 107.967 101.342 107.475C100.552 106.982 99.5124 107.224 99.0201 108.014C98.5279 108.804 98.7694 109.844 99.5595 110.336Z" fill="white"/>
<path d="M110.441 117.115C111.231 117.607 112.27 117.366 112.763 116.575C113.255 115.785 113.013 114.746 112.223 114.253C111.433 113.761 110.393 114.003 109.901 114.793C109.409 115.583 109.65 116.622 110.441 117.115Z" fill="white"/>
</svg>
