<svg width="129" height="129" viewBox="0 0 129 129" fill="none" xmlns="http://www.w3.org/2000/svg">
<path d="M74.8467 4.68534L6.34847 45.1489C2.84985 47.2211 1.66108 51.6878 3.69113 55.1338L43.4901 122.507C45.5284 125.948 50.0142 127.063 53.5176 124.999L122.016 84.535C125.514 82.4628 126.703 77.9961 124.673 74.5501L84.8742 7.17697C82.8359 3.73589 78.3501 2.62126 74.8467 4.68534ZM122.136 76.0488C123.357 78.116 122.643 80.7982 120.542 82.0397L52.0435 122.503C49.9418 123.745 47.2482 123.075 46.027 121.008L6.2281 53.6351C5.00695 51.5679 5.72078 48.8857 7.82251 47.6442L76.3207 7.18064C78.4225 5.93911 81.1161 6.60842 82.3372 8.67562L122.136 76.0488Z" fill="white"/>
<path d="M12.5705 49.8886C12.535 49.9085 12.5 49.9292 12.4654 49.9507C11.1102 50.7897 10.6814 52.5502 11.5076 53.8825L14.4557 58.8731L16.9926 57.3745L14.0446 52.3839L20.387 48.6372L18.913 46.1419L12.5705 49.8886Z" fill="white"/>
<path d="M74.606 21.6578L21.3296 53.1295C20.629 53.5433 20.3911 54.4374 20.7981 55.1264L29.6423 70.0982C30.0493 70.7873 30.9473 71.0104 31.6478 70.5966L84.9242 39.1249C85.6247 38.7111 85.8627 37.817 85.4557 37.128L76.6115 22.1561C76.2044 21.4671 75.3065 21.244 74.606 21.6578ZM82.1817 37.379L31.4422 67.3519L24.0721 54.8754L74.8115 24.9024L82.1817 37.379Z" fill="white"/>
<path d="M54.1546 62.3503L33.8589 74.3395C33.1583 74.7534 32.9204 75.6475 33.3274 76.3365L45.1197 96.2989C45.5267 96.9879 46.4247 97.2111 47.1252 96.7973L67.4209 84.8081C68.1215 84.3942 68.3594 83.5001 67.9524 82.8111L56.1601 62.8487C55.7531 62.1597 54.8552 61.9365 54.1546 62.3503ZM46.9196 93.5526L37.6435 77.8497L62.8848 84.1216L46.9196 93.5526ZM63.636 81.2974L38.3955 75.0257L54.3602 65.595L63.636 81.2974Z" fill="white"/>
<path d="M87.1353 42.8679L59.2286 59.3531C58.5281 59.7669 58.2901 60.6611 58.6971 61.3501L63.1192 68.836C63.5263 69.525 64.4242 69.7481 65.1247 69.3343L93.0314 52.8492C93.7319 52.4353 93.9699 51.5412 93.5629 50.8522L89.1408 43.3663C88.7338 42.6773 87.8358 42.4541 87.1353 42.8679ZM90.2889 51.1032L64.9192 66.0897L61.9711 61.0991L87.3408 46.1126L90.2889 51.1032Z" fill="white"/>
<path d="M96.5109 55.8427L66.0673 73.8265L67.5413 76.3218L97.985 58.338L96.5109 55.8427Z" fill="white"/>
<path d="M100.196 62.0809L69.7524 80.0647L71.2264 82.56L101.67 64.5762L100.196 62.0809Z" fill="white"/>
<path d="M103.881 68.3192L58.2156 95.2949L59.6896 97.7902L105.355 70.8145L103.881 68.3192Z" fill="white"/>
<path d="M97.4183 80.5521L51.7528 107.528L53.2269 110.023L98.8923 83.0474L97.4183 80.5521Z" fill="white"/>
<path d="M50.6047 99.7909L48.0677 101.29L49.5418 103.785L52.0787 102.286L50.6047 99.7909Z" fill="white"/>
<path d="M55.6786 96.7936L53.1416 98.2922L54.6157 100.788L57.1526 99.2889L55.6786 96.7936Z" fill="white"/>
</svg>
